<svg width="36" height="36" viewBox="0 0 36 36" fill="none" xmlns="http://www.w3.org/2000/svg">
<circle cx="18" cy="18" r="17" stroke="#EB4335" stroke-width="2"/>
<path fill-rule="evenodd" clip-rule="evenodd" d="M12.5435 13.4322C10.5439 12.2324 8 13.6727 8 16.0046V20.9399C8 23.2718 10.5439 24.7121 12.5435 23.5123L16.6562 21.0447C17.3571 20.6242 17.805 19.9888 18 19.2936V20.9399C18 23.2718 20.5439 24.7121 22.5435 23.5123L26.6562 21.0447C28.5982 19.8795 28.5982 17.065 26.6562 15.8998L22.5435 13.4322C20.5439 12.2324 18 13.6727 18 16.0046V17.6509C17.805 16.9557 17.3571 16.3203 16.6562 15.8998L12.5435 13.4322Z" fill="#EB4335"/>
</svg>
