<svg width="375" height="92" viewBox="0 0 375 92" fill="none" xmlns="http://www.w3.org/2000/svg">
<rect opacity="0.2" x="1" y="1" width="373" height="90" rx="7" stroke="#034801" stroke-width="2" stroke-dasharray="10 10"/>
<path d="M154.506 49.282H149.61L148.764 52H147L151.284 39.4H152.832L157.116 52H155.352L154.506 49.282ZM154.074 47.932L152.058 41.47L150.042 47.932H154.074ZM161.264 52.18C160.1 52.18 159.176 51.748 158.492 50.884C157.82 50.02 157.484 48.838 157.484 47.338C157.484 46.426 157.64 45.634 157.952 44.962C158.264 44.278 158.708 43.75 159.284 43.378C159.86 43.006 160.532 42.82 161.3 42.82C162.404 42.82 163.292 43.282 163.964 44.206H164V38.644H165.512V49.732C165.512 50.848 165.53 51.604 165.566 52H164.162C164.138 51.712 164.126 51.238 164.126 50.578H164.09C163.814 51.058 163.418 51.448 162.902 51.748C162.386 52.036 161.84 52.18 161.264 52.18ZM161.48 50.956C162.248 50.956 162.854 50.728 163.298 50.272C163.754 49.804 163.982 49.18 163.982 48.4V46.762C163.982 45.922 163.754 45.25 163.298 44.746C162.842 44.242 162.236 43.99 161.48 43.99C160.712 43.99 160.106 44.29 159.662 44.89C159.23 45.478 159.014 46.306 159.014 47.374C159.014 48.49 159.23 49.366 159.662 50.002C160.106 50.638 160.712 50.956 161.48 50.956ZM171.02 52.18C169.856 52.18 168.932 51.748 168.248 50.884C167.576 50.02 167.24 48.838 167.24 47.338C167.24 46.426 167.396 45.634 167.708 44.962C168.02 44.278 168.464 43.75 169.04 43.378C169.616 43.006 170.288 42.82 171.056 42.82C172.16 42.82 173.048 43.282 173.72 44.206H173.756V38.644H175.268V49.732C175.268 50.848 175.286 51.604 175.322 52H173.918C173.894 51.712 173.882 51.238 173.882 50.578H173.846C173.57 51.058 173.174 51.448 172.658 51.748C172.142 52.036 171.596 52.18 171.02 52.18ZM171.236 50.956C172.004 50.956 172.61 50.728 173.054 50.272C173.51 49.804 173.738 49.18 173.738 48.4V46.762C173.738 45.922 173.51 45.25 173.054 44.746C172.598 44.242 171.992 43.99 171.236 43.99C170.468 43.99 169.862 44.29 169.418 44.89C168.986 45.478 168.77 46.306 168.77 47.374C168.77 48.49 168.986 49.366 169.418 50.002C169.862 50.638 170.468 50.956 171.236 50.956ZM181.841 45.268C181.841 44.128 181.817 43.372 181.769 43H183.191C183.239 43.396 183.263 43.93 183.263 44.602H183.317C183.581 44.05 183.983 43.618 184.523 43.306C185.075 42.982 185.687 42.82 186.359 42.82C187.415 42.82 188.207 43.162 188.735 43.846C189.263 44.53 189.527 45.55 189.527 46.906V52H187.997V46.888C187.997 45.928 187.835 45.214 187.511 44.746C187.187 44.278 186.695 44.044 186.035 44.044C185.531 44.044 185.075 44.176 184.667 44.44C184.259 44.692 183.941 45.052 183.713 45.52C183.485 45.976 183.371 46.492 183.371 47.068V52H181.841V45.268ZM199.316 48.094H192.836C192.92 49.006 193.19 49.702 193.646 50.182C194.102 50.65 194.732 50.884 195.536 50.884C196.616 50.884 197.474 50.458 198.11 49.606L198.974 50.434C198.626 50.986 198.14 51.418 197.516 51.73C196.904 52.03 196.226 52.18 195.482 52.18C194.15 52.18 193.118 51.772 192.386 50.956C191.654 50.14 191.288 48.994 191.288 47.518C191.288 46.054 191.654 44.908 192.386 44.08C193.13 43.24 194.15 42.82 195.446 42.82C196.658 42.82 197.606 43.234 198.29 44.062C198.974 44.878 199.316 46.024 199.316 47.5V48.094ZM197.912 46.834C197.912 45.97 197.684 45.292 197.228 44.8C196.784 44.308 196.166 44.062 195.374 44.062C194.63 44.062 194.036 44.314 193.592 44.818C193.16 45.322 192.908 46.036 192.836 46.96H197.912V46.834ZM211.782 43L209.532 52H208.146L205.968 44.638L203.79 52H202.404L200.154 43H201.756L203.214 49.912L205.266 43H206.67L208.722 49.912L210.18 43H211.782ZM221.18 52.18C219.848 52.18 218.81 51.772 218.066 50.956C217.334 50.128 216.968 48.976 216.968 47.5C216.968 46.024 217.334 44.878 218.066 44.062C218.81 43.234 219.848 42.82 221.18 42.82C221.936 42.82 222.602 42.97 223.178 43.27C223.766 43.558 224.228 43.978 224.564 44.53L223.646 45.358C223.382 44.95 223.034 44.632 222.602 44.404C222.182 44.164 221.726 44.044 221.234 44.044C220.382 44.044 219.71 44.35 219.218 44.962C218.738 45.562 218.498 46.408 218.498 47.5C218.498 48.58 218.738 49.426 219.218 50.038C219.71 50.65 220.382 50.956 221.234 50.956C221.726 50.956 222.182 50.842 222.602 50.614C223.034 50.374 223.382 50.05 223.646 49.642L224.564 50.47C224.228 51.022 223.766 51.448 223.178 51.748C222.602 52.036 221.936 52.18 221.18 52.18ZM228.608 52.18C227.72 52.18 226.994 51.922 226.43 51.406C225.866 50.89 225.584 50.224 225.584 49.408C225.584 48.508 225.92 47.812 226.592 47.32C227.276 46.828 228.242 46.582 229.49 46.582H231.344V46.114C231.344 45.442 231.164 44.932 230.804 44.584C230.456 44.224 229.946 44.044 229.274 44.044C228.734 44.044 228.236 44.158 227.78 44.386C227.336 44.602 226.964 44.92 226.664 45.34L225.89 44.404C226.298 43.888 226.796 43.498 227.384 43.234C227.972 42.958 228.626 42.82 229.346 42.82C230.474 42.82 231.344 43.096 231.956 43.648C232.568 44.2 232.874 44.992 232.874 46.024V50.254C232.874 50.722 232.946 51.304 233.09 52H231.758C231.65 51.724 231.572 51.304 231.524 50.74H231.488C231.152 51.208 230.738 51.568 230.246 51.82C229.754 52.06 229.208 52.18 228.608 52.18ZM228.842 50.974C229.298 50.974 229.718 50.89 230.102 50.722C230.486 50.542 230.786 50.302 231.002 50.002C231.23 49.702 231.344 49.372 231.344 49.012V47.68H229.436C228.68 47.68 228.098 47.83 227.69 48.13C227.282 48.43 227.078 48.856 227.078 49.408C227.078 49.888 227.234 50.272 227.546 50.56C227.87 50.836 228.302 50.974 228.842 50.974ZM235.316 45.196C235.316 44.176 235.298 43.444 235.262 43H236.684C236.732 43.48 236.756 44.008 236.756 44.584V44.764H236.81C237.038 44.14 237.404 43.66 237.908 43.324C238.412 42.988 239.006 42.82 239.69 42.82C239.882 42.82 240.056 42.838 240.212 42.874V44.134C240.056 44.098 239.846 44.08 239.582 44.08C239.078 44.08 238.616 44.236 238.196 44.548C237.776 44.848 237.446 45.262 237.206 45.79C236.966 46.318 236.846 46.894 236.846 47.518V52H235.316V45.196ZM244.795 52.18C243.631 52.18 242.707 51.748 242.023 50.884C241.351 50.02 241.015 48.838 241.015 47.338C241.015 46.426 241.171 45.634 241.483 44.962C241.795 44.278 242.239 43.75 242.815 43.378C243.391 43.006 244.063 42.82 244.831 42.82C245.935 42.82 246.823 43.282 247.495 44.206H247.531V38.644H249.043V49.732C249.043 50.848 249.061 51.604 249.097 52H247.693C247.669 51.712 247.657 51.238 247.657 50.578H247.621C247.345 51.058 246.949 51.448 246.433 51.748C245.917 52.036 245.371 52.18 244.795 52.18ZM245.011 50.956C245.779 50.956 246.385 50.728 246.829 50.272C247.285 49.804 247.513 49.18 247.513 48.4V46.762C247.513 45.922 247.285 45.25 246.829 44.746C246.373 44.242 245.767 43.99 245.011 43.99C244.243 43.99 243.637 44.29 243.193 44.89C242.761 45.478 242.545 46.306 242.545 47.374C242.545 48.49 242.761 49.366 243.193 50.002C243.637 50.638 244.243 50.956 245.011 50.956Z" fill="#006B17"/>
<path fill-rule="evenodd" clip-rule="evenodd" d="M131.09 40.1055C131.57 40.1055 131.96 40.4825 131.96 40.9476V51.0528C131.96 51.5179 131.57 51.8949 131.09 51.8949C130.609 51.8949 130.22 51.5179 130.22 51.0528V40.9476C130.22 40.4825 130.609 40.1055 131.09 40.1055Z" fill="#034801"/>
<path fill-rule="evenodd" clip-rule="evenodd" d="M125 46.0003C125 45.5352 125.389 45.1582 125.87 45.1582H136.309C136.79 45.1582 137.179 45.5352 137.179 46.0003C137.179 46.4654 136.79 46.8424 136.309 46.8424H125.87C125.389 46.8424 125 46.4654 125 46.0003Z" fill="#034801"/>
</svg>
