<svg width="112" height="112" viewBox="0 0 112 112" fill="none" xmlns="http://www.w3.org/2000/svg">
<mask id="mask0_139_3502" style="mask-type:alpha" maskUnits="userSpaceOnUse" x="0" y="0" width="112" height="112">
<circle cx="56" cy="56" r="56" fill="#636366"/>
</mask>
<g mask="url(#mask0_139_3502)">
<circle cx="56" cy="56" r="56" fill="#F1F1F1"/>
</g>
<path fill-rule="evenodd" clip-rule="evenodd" d="M44.2243 38.4748C44.2243 37.8822 44.7047 37.4019 45.2972 37.4019H66.9271C67.5197 37.4019 68 37.8822 68 38.4748V50.7489C68 52.5265 66.5589 53.9676 64.7813 53.9676H47.443C45.6654 53.9676 44.2243 52.5265 44.2243 50.7489V38.4748ZM46.3701 39.5477V50.7489C46.3701 51.3414 46.8505 51.8218 47.443 51.8218H64.7813C65.3738 51.8218 65.8542 51.3414 65.8542 50.7489V39.5477H46.3701Z" fill="#979797"/>
<path fill-rule="evenodd" clip-rule="evenodd" d="M56.1124 43.1527C54.714 43.1527 53.5803 44.2863 53.5803 45.6847C53.5803 47.0832 54.714 48.2168 56.1124 48.2168C57.5108 48.2168 58.6445 47.0832 58.6445 45.6847C58.6445 44.2863 57.5108 43.1527 56.1124 43.1527ZM51.4345 45.6847C51.4345 43.1012 53.5289 41.0068 56.1124 41.0068C58.6959 41.0068 60.7903 43.1012 60.7903 45.6847C60.7903 48.2683 58.6959 50.3626 56.1124 50.3626C53.5289 50.3626 51.4345 48.2683 51.4345 45.6847Z" fill="#979797"/>
<path fill-rule="evenodd" clip-rule="evenodd" d="M63.1935 34.8698C63.1935 35.4623 62.7132 35.9427 62.1206 35.9427L60.919 35.9427C60.3264 35.9427 59.8461 35.4623 59.8461 34.8698C59.8461 34.2772 60.3264 33.7969 60.919 33.7969L62.1206 33.7969C62.7132 33.7969 63.1935 34.2772 63.1935 34.8698Z" fill="#979797"/>
</svg>
