<svg width="38" height="42" viewBox="0 0 38 42" fill="none" xmlns="http://www.w3.org/2000/svg">
<rect y="2" width="38" height="40" rx="12" fill="#72C684"/>
<path d="M11 28C10.4477 28 10 28.4477 10 29C10 29.5523 10.4477 30 11 30V28ZM27 30C27.5523 30 28 29.5523 28 29C28 28.4477 27.5523 28 27 28V30ZM18 31C17.4477 31 17 31.4477 17 32C17 32.5523 17.4477 33 18 33V31ZM20 33C20.5523 33 21 32.5523 21 32C21 31.4477 20.5523 31 20 31V33ZM14 29V20H12V29H14ZM24 20V29H26V20H24ZM13 30H25V28H13V30ZM13 28H11V30H13V28ZM25 30H27V28H25V30ZM19 15C21.7614 15 24 17.2386 24 20H26C26 16.134 22.866 13 19 13V15ZM14 20C14 17.2386 16.2386 15 19 15V13C15.134 13 12 16.134 12 20H14ZM18 33H20V31H18V33ZM19 13V15C20.1046 15 21 14.1046 21 13H19ZM19 13H17C17 14.1046 17.8954 15 19 15V13ZM19 13V11C17.8954 11 17 11.8954 17 13H19ZM19 13H21C21 11.8954 20.1046 11 19 11V13Z" fill="white"/>
</svg>
