<svg width="24" height="21" viewBox="0 0 24 21" fill="none" xmlns="http://www.w3.org/2000/svg">
<path fill-rule="evenodd" clip-rule="evenodd" d="M0.224304 5.47477C0.224304 4.88221 0.704663 4.40186 1.29722 4.40186H22.9271C23.5197 4.40186 24 4.88221 24 5.47477V17.7489C24 19.5265 22.5589 20.9676 20.7813 20.9676H3.44304C1.66539 20.9676 0.224304 19.5265 0.224304 17.7489V5.47477ZM2.37013 6.54768V17.7489C2.37013 18.3414 2.85049 18.8218 3.44304 18.8218H20.7813C21.3738 18.8218 21.8542 18.3414 21.8542 17.7489V6.54768H2.37013Z" fill="#979797"/>
<path fill-rule="evenodd" clip-rule="evenodd" d="M12.1124 10.1527C10.714 10.1527 9.58033 11.2863 9.58033 12.6847C9.58033 14.0832 10.714 15.2168 12.1124 15.2168C13.5108 15.2168 14.6445 14.0832 14.6445 12.6847C14.6445 11.2863 13.5108 10.1527 12.1124 10.1527ZM7.43451 12.6847C7.43451 10.1012 9.52887 8.00684 12.1124 8.00684C14.6959 8.00684 16.7903 10.1012 16.7903 12.6847C16.7903 15.2683 14.6959 17.3626 12.1124 17.3626C9.52887 17.3626 7.43451 15.2683 7.43451 12.6847Z" fill="#979797"/>
<path fill-rule="evenodd" clip-rule="evenodd" d="M19.1935 1.86979C19.1935 2.46234 18.7132 2.9427 18.1206 2.9427L16.919 2.9427C16.3264 2.9427 15.8461 2.46234 15.8461 1.86979C15.8461 1.27723 16.3264 0.796875 16.919 0.796875L18.1206 0.796875C18.7132 0.796875 19.1935 1.27723 19.1935 1.86979Z" fill="#979797"/>
</svg>
