<svg width="34" height="34" viewBox="0 0 34 34" fill="none" xmlns="http://www.w3.org/2000/svg">
<path d="M17 0C13.6377 0 10.3509 0.997032 7.55531 2.86502C4.75968 4.733 2.58074 7.38804 1.29406 10.4944C0.00736563 13.6007 -0.329291 17.0189 0.326658 20.3165C0.982607 23.6142 2.6017 26.6433 4.97919 29.0208C7.35668 31.3983 10.3858 33.0174 13.6835 33.6733C16.9811 34.3293 20.3993 33.9926 23.5056 32.7059C26.612 31.4193 29.267 29.2403 31.135 26.4447C33.003 23.6491 34 20.3623 34 17C34 12.4913 32.2089 8.1673 29.0208 4.97918C25.8327 1.79107 21.5087 0 17 0ZM25.704 12.3002L14.7769 23.2769H14.7691C14.5188 23.5379 14.1815 23.698 13.821 23.7268C13.4544 23.7002 13.1121 23.5334 12.8651 23.2612L8.28816 18.6843C8.25716 18.654 8.23253 18.6178 8.21571 18.5778C8.1989 18.5378 8.19024 18.4949 8.19024 18.4515C8.19024 18.4082 8.1989 18.3652 8.21571 18.3253C8.23253 18.2853 8.25716 18.2491 8.28816 18.2188L9.74362 16.7646C9.77317 16.7337 9.80868 16.7091 9.84802 16.6922C9.88735 16.6754 9.92969 16.6667 9.97247 16.6667C10.0152 16.6667 10.0576 16.6754 10.0969 16.6922C10.1363 16.7091 10.1718 16.7337 10.2013 16.7646L13.8302 20.3935L23.8013 10.3491C23.8311 10.3184 23.8666 10.2939 23.9059 10.2771C23.9452 10.2603 23.9874 10.2514 24.0302 10.251C24.0731 10.2498 24.1158 10.258 24.1554 10.2749C24.1949 10.2918 24.2302 10.3171 24.259 10.3491L25.6896 11.8281C25.7231 11.8572 25.7502 11.8929 25.7692 11.933C25.7882 11.9731 25.7987 12.0166 25.8 12.061C25.8014 12.1053 25.7935 12.1494 25.777 12.1906C25.7605 12.2318 25.7356 12.2691 25.704 12.3002Z" fill="#09AC2C"/>
</svg>
