<svg width="36" height="36" viewBox="0 0 36 36" fill="none" xmlns="http://www.w3.org/2000/svg">
<circle cx="18" cy="18" r="17" stroke="#32CFC4" stroke-width="2"/>
<path fill-rule="evenodd" clip-rule="evenodd" d="M11 7C10.4477 7 10 7.44772 10 8V24C10 25.6569 11.3431 27 13 27H23C24.6569 27 26 25.6569 26 24V13C26 12.7348 25.8946 12.4804 25.7071 12.2929L20.7071 7.29289C20.5196 7.10536 20.2652 7 20 7H11ZM20 9.41421L23.5858 13H20V9.41421ZM14 18C14 17.4477 14.4477 17 15 17H21C21.5523 17 22 17.4477 22 18C22 18.5523 21.5523 19 21 19H15C14.4477 19 14 18.5523 14 18ZM14 22C14 21.4477 14.4477 21 15 21H21C21.5523 21 22 21.4477 22 22C22 22.5523 21.5523 23 21 23H15C14.4477 23 14 22.5523 14 22Z" fill="#32CFC4"/>
</svg>
