<svg width="18" height="19" viewBox="0 0 18 19" fill="none" xmlns="http://www.w3.org/2000/svg">
<path d="M17.9904 9.67775C17.9904 8.89933 17.9292 8.33129 17.7967 7.74222H9.1792V11.2556H14.2375C14.1355 12.1287 13.5848 13.4437 12.361 14.3272L12.3439 14.4449L15.0685 16.6221L15.2573 16.6415C16.991 14.99 17.9904 12.56 17.9904 9.67775Z" fill="#4285F4"/>
<path d="M9.17934 18.9347C11.6575 18.9347 13.7379 18.0932 15.2574 16.6415L12.3611 14.3272C11.5861 14.8848 10.5459 15.274 9.17934 15.274C6.75219 15.274 4.69217 13.6225 3.95783 11.3398L3.85019 11.3492L1.01703 13.6109L0.97998 13.7171C2.48929 16.8098 5.58955 18.9347 9.17934 18.9347Z" fill="#34A853"/>
<path d="M3.95783 11.3398C3.76407 10.7507 3.65193 10.1195 3.65193 9.46736C3.65193 8.81513 3.76407 8.18399 3.94763 7.59492L3.9425 7.46946L1.07384 5.17148L0.979977 5.21753C0.357916 6.5009 0.000976562 7.94207 0.000976562 9.46736C0.000976562 10.9927 0.357916 12.4338 0.979977 13.7171L3.95783 11.3398Z" fill="#FBBC05"/>
<path d="M9.17933 3.66069C10.9028 3.66069 12.0654 4.4286 12.7283 5.07032L15.3186 2.46152C13.7277 0.936221 11.6574 0 9.17933 0C5.58954 0 2.48929 2.12488 0.97998 5.21753L3.94764 7.59492C4.69217 5.31224 6.75218 3.66069 9.17933 3.66069Z" fill="#EB4335"/>
</svg>
