<svg width="310" height="235" viewBox="0 0 310 235" fill="none" xmlns="http://www.w3.org/2000/svg">
<path d="M220.66 114.221C220.66 114.578 219.994 114.901 218.646 115.049H215.22C213.873 114.901 213.206 114.578 213.206 114.212C213.206 113.846 213.873 113.533 215.22 113.375H218.646C219.994 113.532 220.66 113.846 220.66 114.221Z" fill="#D1DCF8"/>
<path d="M235.569 114.221C235.569 114.578 234.903 114.901 233.555 115.049H230.129C228.783 114.901 228.116 114.578 228.116 114.212C228.116 113.846 228.783 113.533 230.129 113.375H233.555C234.903 113.532 235.569 113.846 235.569 114.221Z" fill="#D1DCF8"/>
<path d="M250.478 114.221C250.478 114.578 249.811 114.901 248.463 115.049H245.037C243.69 114.901 243.024 114.578 243.024 114.212C243.024 113.846 243.69 113.533 245.037 113.375H248.463C249.811 113.532 250.478 113.846 250.478 114.221Z" fill="#D1DCF8"/>
<path d="M253.992 102.793C254.349 102.793 254.671 103.461 254.819 104.811V108.242C254.671 109.59 254.349 110.258 253.983 110.258C253.618 110.258 253.304 109.59 253.147 108.242V104.811C253.304 103.461 253.618 102.793 253.992 102.793Z" fill="#D1DCF8"/>
<path d="M253.992 87.8643C254.349 87.8643 254.671 88.5319 254.819 89.8817V93.3127C254.671 94.6612 254.349 95.3288 253.983 95.3288C253.618 95.3288 253.304 94.6612 253.147 93.3127V89.8817C253.304 88.5319 253.618 87.8643 253.992 87.8643Z" fill="#D1DCF8"/>
<path d="M268.146 87.1265C268.146 87.4839 267.479 87.806 266.131 87.9545H262.705C261.358 87.8067 260.692 87.4839 260.692 87.1175C260.692 86.7518 261.358 86.4374 262.705 86.2806H266.131C267.479 86.4381 268.146 86.7518 268.146 87.1265Z" fill="#D1DCF8"/>
<path d="M281.118 85.1702C281.294 85.1702 281.46 85.3312 281.602 85.6553C281.673 85.817 281.738 86.0196 281.794 86.2639C281.85 86.6775 281.899 87.266 281.937 87.9468C281.895 87.9496 281.85 87.9524 281.804 87.9551H277.613C276.267 87.8073 275.6 87.4846 275.6 87.1182C275.6 86.7524 276.267 86.4381 277.613 86.2812H280.274L280.282 86.2896C280.322 86.3201 280.371 86.3388 280.428 86.2639C280.485 86.0203 280.55 85.8177 280.621 85.6553C280.766 85.3312 280.935 85.1702 281.118 85.1702Z" fill="#D1DCF8"/>
<path d="M281.118 70.2411C281.475 70.2411 281.798 70.9088 281.945 72.2586V75.6896C281.798 77.038 281.475 77.7057 281.109 77.7057C280.744 77.7057 280.431 77.038 280.274 75.6896V72.2586C280.431 70.9088 280.744 70.2411 281.118 70.2411Z" fill="#D1DCF8"/>
<path d="M281.118 55.3121C281.475 55.3121 281.798 55.9797 281.945 57.3296V60.7606C281.798 62.109 281.475 62.7766 281.109 62.7766C280.744 62.7766 280.431 62.109 280.274 60.7606V57.3296C280.431 55.9797 280.744 55.3121 281.118 55.3121Z" fill="#D1DCF8"/>
<path d="M281.118 40.3831C281.475 40.3831 281.798 41.0507 281.945 42.4005V45.8316C281.798 47.18 281.475 47.8476 281.109 47.8476C280.744 47.8476 280.431 47.18 280.274 45.8316V42.4005C280.431 41.0507 280.744 40.3831 281.118 40.3831Z" fill="#D1DCF8"/>
<path d="M281.118 27.3466C281.475 27.3466 281.798 27.8448 281.945 28.8525V31.4133C281.798 32.4203 281.475 32.9186 281.109 32.9186C280.744 32.9186 280.431 32.4203 280.274 31.4133V28.8525C280.431 27.8448 280.744 27.3466 281.118 27.3466Z" fill="#D1DCF8"/>
<ellipse opacity="0.5" cx="155" cy="222.5" rx="155" ry="12.5" fill="#C4C4C4"/>
<path d="M155.89 218.681C202.921 218.681 241.046 210.713 241.046 200.883C241.046 191.054 202.921 183.085 155.89 183.085C108.86 183.085 70.7346 191.054 70.7346 200.883C70.7346 210.713 108.86 218.681 155.89 218.681Z" fill="#E4ECF9"/>
<path d="M181.132 92.4376C180.968 92.7513 185.389 111.288 199.926 108.09C206.186 106.712 210.957 100.275 214.36 93.3904C218.86 84.2902 220.967 74.4092 220.967 74.4092C220.967 74.4092 233.087 65.4172 231.644 64.4935C230.203 63.5768 225.356 67.4478 225.356 67.4478C225.356 67.4478 231.87 60.0326 230.049 59.6759C228.27 59.324 223.39 64.5713 223.179 64.7968C223.365 64.463 228.348 55.5994 226.149 56.41C223.91 57.2344 220.791 62.7017 220.791 62.7017C220.791 62.7017 219.062 59.7411 216.817 59.8806C214.576 60.0242 212.409 61.0902 213.317 61.8106C213.67 62.0916 214.441 62.1541 215.251 62.1249C217.264 62.0521 218.857 63.9599 218.324 65.9044C218.148 66.547 217.762 67.0689 217.026 67.2632C214.402 67.9697 214.723 64.3228 214.528 63.7732C214.332 63.2305 212.881 62.0215 212.247 63.4546C211.612 64.8898 212.043 69.1765 213.036 71.1051L200.77 88.2195L200.396 88.3014L181.132 92.4376Z" fill="#A8735B"/>
<path d="M181.132 92.4376C180.968 92.7512 185.389 111.288 199.926 108.09C206.186 106.712 210.957 100.275 214.36 93.3904C212.849 94.8367 211.168 96.0866 209.209 96.766C206.318 97.7646 202.67 97.172 200.935 94.6486C199.685 92.8331 199.674 90.4049 200.396 88.3014L181.132 92.4376Z" fill="#FFAB90"/>
<path d="M237.967 193.526H228.669V208.689H237.967V193.526Z" fill="#A8735B"/>
<path d="M228.669 193.526V198.889C231.776 199.074 234.906 198.857 237.967 198.239V193.526H228.669Z" fill="#FFAB90"/>
<path d="M225.097 214.267H254.623C255.327 214.267 255.97 213.97 256.436 213.481C256.903 212.992 257.194 212.317 257.194 211.579C257.194 210.455 256.528 209.452 255.525 209.051C252.418 207.831 246.984 206.474 245.837 205.27C244.298 203.665 241.612 200.975 239.691 201.112C237.77 201.249 236.622 204.467 233.675 206.346C231.586 207.678 229.329 204.386 228.203 202.364C227.821 201.682 226.864 201.674 226.504 202.364C224.117 206.883 225.097 214.267 225.097 214.267Z" fill="#2E363A"/>
<path d="M217.094 201.268H207.796V216.431H217.094V201.268Z" fill="#A8735B"/>
<path d="M207.796 201.268V206.63C210.903 206.815 214.033 206.598 217.094 205.98V201.268H207.796Z" fill="#FFAB90"/>
<path d="M204.223 222.009H233.749C234.453 222.009 235.096 221.712 235.562 221.223C236.029 220.733 236.32 220.059 236.32 219.32C236.32 218.197 235.654 217.193 234.651 216.792C231.544 215.572 226.11 214.215 224.963 213.011C223.424 211.406 220.738 208.717 218.817 208.854C216.896 208.99 215.748 212.208 212.802 214.087C210.712 215.419 208.455 212.128 207.33 210.106C206.947 209.423 205.99 209.415 205.631 210.106C203.244 214.624 204.223 222.009 204.223 222.009Z" fill="#3A4146"/>
<path d="M220.172 187.775C217.066 192.116 213.061 195.875 208.58 198.668C196.267 206.339 181.279 208.172 166.805 209.131C147.923 210.376 128.678 210.415 110.464 205.24C92.2765 200.085 75.0674 189.132 65.7815 172.626C59.6483 161.727 57.2761 149.139 55.994 136.711C54.2296 119.338 54.8373 100.655 63.8522 85.8836C64.3082 85.1355 64.7774 84.4075 65.2666 83.6997C74.0694 70.8935 89.528 62.9654 105.045 63.3027C105.594 63.3096 106.142 63.336 106.691 63.3686C113.518 63.7462 120.22 65.7379 126.24 68.9677C131.269 71.6812 137.006 75.5328 140.165 80.4102C142.015 83.2562 142.313 86.5318 142.835 89.7811C142.948 90.4626 143.067 91.1441 143.212 91.8193C145.724 103.718 152.643 114.658 162.622 121.66C173.21 129.079 186.23 131.871 198.231 136.65C210.233 141.409 222.334 149.416 225.81 161.885C228.307 170.799 225.631 180.157 220.172 187.775Z" fill="#FE4C40"/>
<path d="M131.607 136.617C131.581 145.697 133.887 155.028 139.538 162.129C129.063 163.823 118.647 157.053 112.937 148.093C107.233 139.125 105.304 128.331 103.731 117.822C101.993 106.16 100.552 94.3342 101.755 82.6135C102.429 76.022 104.009 69.4173 106.692 63.3679C113.519 63.7454 120.221 65.7371 126.241 68.9669C131.27 71.6804 137.007 75.5321 140.166 80.4094C142.016 83.2554 142.313 86.531 142.836 89.7803C140.457 96.4113 138.295 103.116 136.34 109.886C133.814 118.609 131.633 127.537 131.607 136.617Z" fill="#EA241F"/>
<path d="M201.27 195.28C198.594 189.376 195.395 183.711 191.714 178.377C189.203 174.744 186.401 171.19 182.699 168.774C179.19 166.471 174.729 165.319 170.724 166.465L173.797 156.346C181.073 157.239 188.74 158.768 194.126 163.758C198.237 167.557 200.536 173.01 201.429 178.536C202.315 184.062 201.898 189.714 201.27 195.28Z" fill="#EA241F"/>
<path d="M170.725 166.465L170.592 166.901C170.428 166.822 170.256 166.749 170.09 166.669C170.301 166.596 170.513 166.524 170.725 166.465Z" fill="#EA241F"/>
<path d="M220.173 187.771C217.069 192.118 213.062 195.876 208.584 198.668C196.268 206.34 181.28 208.169 166.804 209.133C147.926 210.372 128.677 210.411 110.468 205.238C92.2786 200.085 75.0715 189.129 65.7801 172.625C59.6517 161.728 57.2753 149.139 55.9981 136.708C54.2302 119.339 54.8394 100.652 63.8549 85.8802C59.9067 102.482 60.4764 120.146 66.566 136.039C75.5032 159.387 95.716 177.425 118.894 186.768C142.053 196.092 167.903 197.35 192.614 193.692C201.924 192.335 211.098 190.289 220.173 187.771Z" fill="#EA241F"/>
<path d="M242.026 195.398C239.321 200.018 227.682 200.35 221.232 200.136C218.733 200.068 216.682 198.145 216.383 195.662C213.473 171.131 209.567 162.555 207.223 160.688C204.756 158.734 186.996 156.629 155.212 162.406C123.424 168.203 134.29 128.967 134.29 128.967L135.133 128.972C154.999 117.665 219.327 121.947 230.612 135.012C241.875 148.092 245.853 188.891 242.026 195.398Z" fill="#2E363A"/>
<path d="M226.681 202.698C223.979 207.317 212.34 207.655 205.89 207.437C204.932 207.41 204.04 207.113 203.286 206.61C202.077 205.809 201.225 204.491 201.04 202.963C198.132 178.436 194.226 169.859 191.88 167.993C190.188 166.649 181.272 165.233 165.544 166.351C164.288 166.444 162.986 166.55 161.645 166.669C160.726 166.471 159.708 166.278 158.591 166.113C152.723 165.147 146.583 165.816 141.058 168.019C139.114 168.76 137.522 169.515 136.227 170.19C135.321 170.269 134.462 170.296 133.642 170.289C134.237 169.799 134.964 169.25 135.843 168.681C134.819 168.079 133.24 167.079 131.012 165.835C127.583 163.784 123.835 162.248 119.949 161.315C119.631 161.229 119.321 161.15 119.024 161.07C118.766 160.455 118.541 159.813 118.349 159.164C115.356 149.244 118.951 136.273 118.951 136.273H119.79C120.947 135.617 122.248 135.009 123.689 134.459C146.959 125.498 204.641 130.012 215.268 142.315C226.537 155.392 230.508 196.193 226.681 202.698Z" fill="#3A4146"/>
<path d="M206.955 204.505C205.864 205.431 204.622 206.112 203.286 206.609C202.077 205.809 201.225 204.491 201.04 202.962C198.132 178.436 194.226 169.859 191.88 167.993C190.188 166.649 181.273 165.233 165.544 166.351C164.288 166.444 162.986 166.55 161.645 166.669C160.726 166.471 159.708 166.278 158.591 166.113C152.723 165.147 146.583 165.815 141.058 168.019C139.114 168.76 137.522 169.514 136.227 170.19C135.321 170.269 134.462 170.296 133.642 170.289C134.237 169.799 134.964 169.25 135.843 168.681C134.819 168.079 133.24 167.079 131.012 165.835C127.583 163.784 123.835 162.248 119.949 161.315C119.631 161.229 119.321 161.15 119.024 161.07C118.766 160.454 118.541 159.813 118.349 159.164C115.356 149.244 118.951 136.272 118.951 136.272H119.79C120.947 135.617 122.248 135.009 123.689 134.459C126.141 138.748 130.807 141.812 135.466 143.857C145.637 148.324 156.826 149.767 167.718 151.964C178.602 154.161 189.718 157.365 198.165 164.591C205.435 170.819 210.24 179.853 211.337 189.369C211.958 194.81 211.118 200.958 206.955 204.505Z" fill="#2E363A"/>
<path d="M180.979 56.9138C180.917 55.1018 180.94 53.2516 180.364 51.5361C179.373 48.6012 176.791 46.5124 175.224 43.8391C174.035 41.8037 173.489 39.551 173.361 37.2178C173.355 37.2018 173.349 37.1866 173.344 37.1706C172.644 35.0109 172.282 32.6299 171.736 30.4153C171.195 28.2224 170.835 26.0085 170.493 23.7781C170.22 21.9945 169.897 20.2859 169.366 18.585C169.303 18.6231 169.237 18.6551 169.174 18.6953C166.704 11.1947 158.55 6.02869 150.725 7.00165C142.901 7.97115 136.256 14.9832 135.695 22.8571C135.457 26.1577 136.052 29.881 133.944 32.4272C130.579 36.4933 123.404 34.0928 119.278 37.3816C117.031 39.1741 116.259 42.236 116.001 45.0973C115.748 47.9593 115.859 50.9212 114.83 53.6021C112.145 60.5912 103.26 62.7225 98.3432 68.3611C93.5419 73.8769 93.2841 82.524 96.8872 88.8864C100.494 95.2489 107.4 99.3337 114.603 100.549C121.809 101.768 129.261 100.36 136.064 97.691C140.166 96.0831 144.199 93.9865 148.59 93.7062C154.409 93.337 160.087 96.2142 165.891 95.7215C173.435 95.0872 179.85 87.9669 179.711 80.3893L186.564 78.1123C185.054 75.6195 183.932 72.8352 183.11 70.0614C181.85 65.7913 181.136 61.3602 180.979 56.9138Z" fill="black"/>
<path d="M193.521 98.1082C187.637 102.757 180.109 106.417 180.109 106.417L180.279 122.566C167.638 135.671 146.653 139.646 118.948 136.269L124.975 110.662C94.8678 106.844 91.4498 97.5697 91.4498 97.5697C91.4498 97.5697 95.0917 92.0851 103.812 81.9022C103.816 81.8939 103.816 81.8897 103.824 81.8821C106.653 78.5815 110.014 74.7916 113.952 70.5298C120.903 63.0195 129.232 58.8313 137.329 56.8305C138.286 56.5939 139.242 56.3905 140.19 56.215C149.407 54.4953 158.058 55.4981 163.69 57.5231C163.938 57.6085 164.178 57.698 164.414 57.7924C165.725 58.3101 167.214 59.0145 168.821 59.8785C180.479 66.1251 198.387 80.4282 200.251 87.5221C201.139 90.8997 197.753 94.7583 193.521 98.1082Z" fill="#64D3FF"/>
<path d="M153.552 70.0565C153.57 70.2251 153.091 70.468 152.063 70.6387C151.04 70.7949 149.452 70.8768 147.377 70.4798C145.636 70.0842 143.955 69.4347 142.39 68.5693C140.835 67.7081 139.333 66.6074 138.202 65.0987C136.918 63.2506 136.757 61.4546 136.925 60.3866C137.101 59.2901 137.496 58.8584 137.649 58.9132C137.839 58.9708 137.798 59.483 137.92 60.4011C138.046 61.3054 138.392 62.6857 139.541 64.098C140.467 65.3367 141.776 66.3201 143.2 67.1057C144.624 67.8934 146.161 68.4881 147.752 68.849C151.493 69.8101 153.52 69.613 153.552 70.0565Z" fill="white"/>
<path d="M124.876 122.124V110.7C94.7686 106.88 91.3492 97.6057 91.3492 97.6057C91.3492 97.6057 94.9924 92.1211 103.712 81.9376C101.755 84.9897 103.352 90.2557 105.015 93.4848C106.683 96.7139 110.156 98.934 113.787 99.0874C120.225 99.3532 125.26 93.863 129.304 88.8448C129.858 94.8249 133.213 100.486 138.189 103.845C143.164 107.199 149.661 108.179 155.403 106.443C161.805 104.507 166.964 99.4059 169.924 93.396C172.877 87.3923 174.622 80.2192 174.463 73.525C179.153 82.6183 180.874 93.6944 180.229 106.349C180.087 106.419 180.01 106.455 180.01 106.455L181.284 122.124H124.876Z" fill="#42C1F4"/>
<path d="M126.335 104.378C126.352 104.672 123.596 105.273 118.06 104.54C113.41 103.763 108.877 102.293 104.657 100.189C99.7493 97.5328 97.8685 95.4273 98.0598 95.1927C98.3099 94.8478 100.539 96.403 105.398 98.6897C109.472 100.72 113.85 102.141 118.338 102.89C123.618 103.894 126.335 103.943 126.335 104.378Z" fill="white"/>
<path d="M124.878 121.345C126.187 121.616 127.614 121.881 129.048 122.125H124.878V121.345Z" fill="#FCC230"/>
<path d="M146.959 122.125H142.2C142.425 121.907 142.636 121.649 142.842 121.351C144.229 119.339 146.813 115.514 148.512 116.745C149.437 117.427 147.996 120.2 146.959 122.125Z" fill="#FCC230"/>
<path d="M156.707 122.125H148.413C151.255 119.921 155.742 117.275 158.009 116.996C158.577 116.917 159.02 116.996 159.238 117.275C159.773 117.937 158.696 119.842 156.707 122.125Z" fill="#FCC230"/>
<path d="M162.893 62.6649C161.477 65.0605 158.632 66.4908 154.441 66.9148C153.774 66.9842 153.115 67.0169 152.484 67.0169C146.779 67.0169 142.6 64.234 140.602 59.1526L140.167 56.2636C140.167 56.2594 140.175 56.2434 140.191 56.2143C149.408 54.4946 158.059 55.4974 163.691 57.5225C163.947 58.9486 163.963 60.864 162.893 62.6649Z" fill="white"/>
<path d="M169.652 36.0554C168.689 49.7338 160.387 49.9816 160.387 49.9816C160.387 49.9996 160.381 50.0114 160.381 50.0288C159.478 55.9797 161.163 56.1803 161.163 56.1803C161.163 56.1803 161.196 56.2455 161.24 56.3572C161.724 57.5086 163.959 63.9023 154.238 64.8877C143.547 65.9683 142.22 57.113 142.033 57.113C142.033 57.113 143.871 52.8804 143.684 48.3049C143.503 43.7295 140.613 39.5031 143.046 26.663C145.474 13.8228 161.438 13.1795 164.791 15.4933C168.138 17.807 170.615 22.3825 169.652 36.0554Z" fill="#A8735B"/>
<path d="M161.24 56.3573C158.096 56.3753 154.876 55.3003 152.399 52.5438C150.748 50.7138 149.487 48.1752 148.826 45.3589C152.322 48.2577 156.335 49.8692 160.381 50.0288C159.478 55.9798 161.163 56.1803 161.163 56.1803C161.163 56.1803 161.196 56.2456 161.24 56.3573Z" fill="#774030"/>
<path d="M138.013 51.2141C139.288 49.484 139.663 47.2376 139.62 45.0876C139.579 42.9377 139.162 40.8127 139.024 38.6662C138.898 36.7223 139.09 34.5571 140.489 33.2031C141.518 32.2079 142.986 31.8596 144.358 31.4564C155.967 29.797 155.723 19.5011 165.7 18.8931C167.617 19.5399 168.531 21.6892 169.089 23.6372C171.529 32.1552 171.471 41.3734 168.926 49.8602C168.684 50.6645 168.418 51.4987 168.549 52.3287C168.68 53.1587 169.354 53.9713 170.192 53.9387C171.17 53.9006 171.745 52.8402 172.067 51.9137C173.85 46.7837 174.03 41.2041 173.367 35.8125C172.704 30.4209 171.226 25.1681 169.753 19.9403C169.279 18.2574 168.755 16.4898 167.493 15.2816C166.19 14.0345 164.311 13.5994 162.512 13.4821C156.536 13.0935 149.665 14.6973 145.3 18.8029C140.935 22.9085 138.958 29.4028 137.044 35.0852C135.553 39.5101 134.6 44.1174 133.844 48.72C133.667 49.8019 133.071 52.2322 134.177 53.0574C135.405 53.9727 137.337 52.1316 138.013 51.2141Z" fill="black"/>
<path d="M148.827 34.174L147.246 39.7301C146.08 40.7343 144.273 40.483 143.104 39.492C141.93 38.4968 141.297 36.9388 140.948 35.3801C140.611 33.8874 140.562 32.1357 141.539 31.0129C142.574 29.8289 144.421 29.8636 145.743 30.6603C147.061 31.4536 147.976 32.8311 148.827 34.174Z" fill="#A8735B"/>
<path d="M146.28 37.6474C146.32 38.0811 145.997 38.5149 145.599 38.5655C145.404 38.5947 145.215 38.544 145.033 38.4642C144.399 38.197 143.914 37.6328 143.496 37.0554C142.735 36.0075 142.061 34.793 142.034 33.4634C142.027 33.0442 142.095 32.5966 142.358 32.2857C142.729 31.845 143.382 31.8158 143.921 31.9755C145.007 32.2857 145.903 33.2475 146.206 34.4037L146.28 37.6474Z" fill="#774030"/>
<path d="M152.919 30.2994C152.858 30.2634 152.849 30.1273 152.946 29.9018C153.044 29.6811 153.256 29.366 153.661 29.0746C154.368 28.62 155.278 28.477 156.089 28.6922C156.563 28.8448 156.861 29.0794 157.022 29.2599C157.183 29.4445 157.216 29.5777 157.167 29.6325C157.058 29.763 156.69 29.5076 155.92 29.366C155.278 29.1988 154.588 29.307 154.028 29.6638C153.339 30.035 153.067 30.3911 152.919 30.2994Z" fill="#4F2D2A"/>
<path d="M162.839 28.3056C162.746 28.2154 162.952 27.7504 163.783 27.307C164.505 26.9933 165.302 26.8684 166.085 26.9468C167.01 27.1147 167.349 27.4944 167.286 27.6116C167.218 27.7643 166.804 27.6588 166.017 27.638C165.354 27.5707 164.669 27.6783 164.058 27.9447C163.316 28.2057 162.953 28.4326 162.839 28.3056Z" fill="#4F2D2A"/>
<path d="M159.604 40.1381C159.663 40.0846 159.858 40.2408 160.224 40.4962C160.406 40.6176 160.643 40.7613 160.922 40.8203C161.187 40.8779 161.565 40.8279 161.76 40.6114C162.112 40.2928 161.859 39.3331 161.771 38.5863C161.647 37.8042 161.483 37.029 161.282 36.2629C160.857 34.4439 160.586 33.5431 160.741 33.4827C160.868 33.43 161.39 34.2441 161.954 36.0859C162.16 36.8743 162.329 37.6723 162.457 38.4767C162.523 38.8813 162.574 39.2782 162.619 39.6932C162.638 39.9063 162.65 40.1367 162.607 40.3858C162.566 40.6336 162.452 40.9035 162.248 41.1041C161.733 41.5517 161.156 41.5018 160.762 41.3727C160.359 41.2235 160.118 40.9903 159.949 40.805C159.622 40.4219 159.55 40.1853 159.604 40.1381Z" fill="#4F2D2A"/>
<path d="M160.927 44.0834C160.945 44.15 160.799 44.2721 160.456 44.3818C160.117 44.4866 159.572 44.5935 158.846 44.5136C157.628 44.3284 156.463 43.7746 155.604 42.8432C155.123 42.2644 154.96 41.6669 154.981 41.2839C155 40.8952 155.135 40.7356 155.2 40.7509C155.372 40.771 155.232 41.4782 156.122 42.3803C156.838 43.1597 157.882 43.6698 158.949 43.8266C160.213 44.0577 160.888 43.9029 160.927 44.0834Z" fill="#4F2D2A"/>
<path d="M165.291 34.4453C165.731 34.4453 166.087 33.8046 166.087 33.0143C166.087 32.224 165.731 31.5833 165.291 31.5833C164.852 31.5833 164.496 32.224 164.496 33.0143C164.496 33.8046 164.852 34.4453 165.291 34.4453Z" fill="#4F2D2A"/>
<path d="M155.968 35.2324C156.407 35.2324 156.764 34.5917 156.764 33.8014C156.764 33.011 156.407 32.3704 155.968 32.3704C155.529 32.3704 155.173 33.011 155.173 33.8014C155.173 34.5917 155.529 35.2324 155.968 35.2324Z" fill="#4F2D2A"/>
<path d="M119.555 38.1637C119.535 38.5066 119.261 38.8633 118.801 38.705C118.493 38.4524 118.318 38.0749 118.326 37.7008C118.505 37.1637 119.18 37.0721 119.553 37.2782C119.598 37.2962 119.589 37.3483 119.687 37.3303C119.597 37.4593 119.585 37.7959 119.555 38.1637Z" fill="#7A4036"/>
<g opacity="0.1">
<path opacity="0.1" d="M166.867 14.5071C166.449 14.7139 166 14.8735 165.553 14.9915C164.196 15.3455 162.782 15.4162 161.408 15.7174C154.399 17.2817 149.942 24.6025 143.08 26.7456C141.512 27.2355 139.855 27.4243 138.222 27.3181C138.481 25.2285 138.918 23.1736 139.772 21.2554C141.211 18.0027 144.176 15.1692 147.66 14.8208C148.81 13.988 150.059 13.3155 151.392 12.8374C156.45 11.0122 162.175 11.845 166.867 14.5071Z" fill="white"/>
</g>
<path d="M141.946 131.545H216.242C216.777 131.545 217.211 131.111 217.211 130.575V129.447C217.211 128.911 216.777 128.477 216.242 128.477H141.946C141.411 128.477 140.977 128.911 140.977 129.447V130.575C140.977 131.111 141.411 131.545 141.946 131.545Z" fill="#2E363A"/>
<path d="M158.986 128.481H215.572L217.913 119.59L225.654 90.0995C226.089 88.4513 225.09 87.1174 223.444 87.1174H172.833C172.343 87.1174 171.862 87.2285 171.399 87.4415C170.298 87.9232 169.373 88.9329 169.068 90.0995L158.986 128.481Z" fill="#4A5258"/>
<path d="M158.986 128.481H215.572L217.913 119.59C216.312 119.867 214.694 120.062 213.066 120.164C202.846 120.785 192.432 117.275 184.653 110.587C177.781 104.678 173.046 96.3516 171.399 87.4422C170.298 87.9238 169.373 88.9336 169.068 90.1002L158.986 128.481Z" fill="#3A4146"/>
<path d="M168.235 128.484H158.986L159.152 127.864C161.335 127.678 165.034 127.919 168.235 128.484Z" fill="#3A4146"/>
<path d="M197.303 109.529C198.082 107.176 197.107 104.734 195.126 104.077C193.144 103.419 190.907 104.794 190.127 107.148C189.348 109.502 190.323 111.943 192.305 112.601C194.286 113.258 196.524 111.883 197.303 109.529Z" fill="#3A4146"/>
<path d="M196.701 109.329C197.35 107.37 196.539 105.338 194.889 104.79C193.24 104.243 191.377 105.388 190.728 107.347C190.08 109.306 190.891 111.339 192.541 111.886C194.19 112.434 196.053 111.289 196.701 109.329Z" fill="white"/>
<path d="M156.707 122.126C153.819 125.442 149.001 129.558 144.408 131.794C142.597 132.668 139.814 133.436 136.497 133.991C125.592 135.831 108.872 135.447 101.523 129.425C100.419 128.519 99.4936 127.565 98.7341 126.592C96.7319 124.064 96.3681 119.763 96.7583 115.189C97.0819 111.298 97.9613 107.202 98.8401 103.833C103.394 106.163 110.63 108.637 122.07 110.312C120.986 113.158 119.724 116.599 119.248 118.32C119.149 118.684 119.083 118.969 119.063 119.154C119.063 119.201 119.07 119.233 119.083 119.26C119.261 119.949 121.72 120.677 124.879 121.345C126.187 121.616 127.615 121.881 129.049 122.126C134.224 123.013 139.485 123.641 139.485 123.641C139.485 123.641 140.925 123.436 142.2 122.126C142.425 121.907 142.636 121.649 142.842 121.351C144.229 119.339 146.813 115.514 148.512 116.745C149.437 117.427 147.996 120.2 146.959 122.126C146.093 123.734 145.505 124.766 146.78 123.516C147.21 123.099 147.771 122.623 148.412 122.126C151.254 119.922 155.741 117.275 158.008 116.996C158.577 116.917 159.019 116.996 159.238 117.275C159.773 117.937 158.697 119.842 156.707 122.126Z" fill="#A8735B"/>
<path d="M122.07 110.313C120.986 113.159 119.724 116.599 119.248 118.32C115.302 115.521 110.524 113.9 105.693 113.76C102.659 113.681 99.6128 114.17 96.7576 115.19C97.0812 111.299 97.9607 107.202 98.8394 103.833C103.393 106.163 110.63 108.638 122.07 110.313Z" fill="#774030"/>
<path d="M168.907 168.622C168.709 169.039 166.475 167.722 161.644 166.67C160.725 166.471 159.708 166.279 158.59 166.114C152.722 165.148 146.582 165.816 141.057 168.02C139.114 168.761 137.521 169.515 136.226 170.19C133.126 171.805 131.752 173.003 131.507 172.692C131.382 172.547 131.937 171.825 133.292 170.574C133.404 170.482 133.516 170.382 133.642 170.29C134.236 169.8 134.963 169.251 135.843 168.682C136.12 168.496 136.411 168.318 136.721 168.132C137.753 167.51 138.962 166.882 140.37 166.285C146.219 163.963 152.682 163.254 158.888 164.267C161.756 164.796 163.95 165.616 165.543 166.351C165.979 166.557 166.376 166.748 166.719 166.934C168.305 167.861 169.006 168.45 168.907 168.622Z" fill="#EA241F"/>
<path d="M137.33 169.25C137.191 169.409 136.715 169.191 135.843 168.681C134.818 168.079 133.239 167.079 131.012 165.835C127.582 163.784 123.835 162.248 119.948 161.315C119.631 161.229 119.32 161.15 119.023 161.07C115.064 160.038 113.009 159.766 113.035 159.33C113.042 159.045 114.826 158.675 118.349 159.164C118.97 159.251 119.651 159.363 120.384 159.509C124.455 160.482 128.368 162.083 131.963 164.234C134.428 165.842 135.948 167.225 136.721 168.132C137.25 168.748 137.429 169.151 137.33 169.25Z" fill="#EA241F"/>
<path d="M217.207 38.9556C217.567 40.4247 218.785 41.6746 220.394 41.9244C222.002 42.1742 223.541 41.3532 224.329 40.0625L217.207 38.9556Z" fill="#3A4146"/>
<path d="M226.219 35.3656C226.997 33.7354 228.259 32.3557 229.811 31.371C232.704 29.6318 234.83 26.6345 235.386 23.0438C236.42 16.3746 231.718 10.0399 224.835 9.32024C218.733 8.63458 212.986 12.9949 211.875 19.0388C211.206 22.7877 212.311 26.3743 214.613 29.0086C215.879 30.4313 216.665 32.1295 216.913 33.9193L226.219 35.3656Z" fill="#FFCF3D"/>
<path d="M225.842 37.233L216.621 35.8C216.109 35.7201 215.748 35.2267 215.827 34.7132C215.907 34.2003 216.4 33.8388 216.913 33.9186L226.134 35.3516C226.646 35.4315 227.007 35.9249 226.927 36.4384C226.847 36.9513 226.354 37.3128 225.842 37.233Z" fill="#2E363A"/>
<path d="M225.378 40.2255L216.156 38.7924C215.644 38.7126 215.283 38.2192 215.363 37.7057C215.443 37.1928 215.935 36.8313 216.448 36.9111L225.67 38.3441C226.182 38.4239 226.543 38.9174 226.463 39.4309C226.383 39.9438 225.891 40.3053 225.378 40.2255Z" fill="#2E363A"/>
<path d="M228.448 22.8072C228.52 22.8176 228.573 23.1466 228.384 23.7656C228.197 24.3812 227.681 25.2216 226.873 26.148C225.45 27.6311 224.343 29.3161 223.67 31.2273C222.837 33.4509 222.751 34.673 222.545 34.6514C222.417 34.6549 222.198 33.3759 222.941 30.9671C223.637 28.9642 224.857 27.1259 226.297 25.6303C227.143 24.7635 227.673 24.0841 227.962 23.5796C228.248 23.0772 228.354 22.7899 228.448 22.8072Z" fill="#3A4146"/>
<path d="M218.512 21.2631C218.603 21.2742 218.616 21.5795 218.736 22.1444C218.858 22.7135 219.157 23.5206 219.7 24.6053C220.62 26.4673 221.225 28.5895 221.282 30.7096C221.266 33.2309 220.666 34.3843 220.545 34.3412C220.341 34.2989 220.633 33.1087 220.509 30.736C220.446 28.7109 219.902 26.7692 218.994 24.9238C218.507 23.7954 218.269 22.8384 218.278 22.1944C218.285 21.5469 218.437 21.2506 218.512 21.2631Z" fill="#3A4146"/>
<path d="M209.065 34.4197C208.918 34.2816 209.11 33.7875 209.777 33.0345C210.393 32.4508 211.036 31.897 211.704 31.3751C212.547 30.8276 213.063 30.7117 213.18 30.8817C213.301 31.058 213 31.4702 212.295 32.133C211.65 32.6361 211.03 33.1705 210.437 33.7333C209.677 34.3329 209.224 34.5696 209.065 34.4197Z" fill="#3A4146"/>
<path d="M233.595 38.5364C233.396 38.6058 233.081 38.2053 232.605 37.3719C232.264 36.6356 231.865 35.9256 231.413 35.2524C230.948 34.4141 230.769 33.936 230.935 33.7992C231.092 33.6688 231.564 33.9242 232.21 34.7167C232.69 35.4322 233.113 36.1852 233.476 36.9673C233.818 37.9312 233.792 38.4677 233.595 38.5364Z" fill="#3A4146"/>
<path d="M241.913 30.3071C241.798 30.4764 241.33 30.3813 240.545 29.9504L238.671 28.6748C237.983 28.103 237.723 27.7012 237.84 27.5277C237.958 27.3542 238.424 27.4527 239.211 27.8795L241.084 29.1551C241.771 29.7318 242.035 30.1287 241.913 30.3071Z" fill="#3A4146"/>
<path d="M245.451 17.2185C245.464 17.4232 244.991 17.6397 244.016 17.7883L241.525 17.9506C240.54 17.9298 240.043 17.7765 240.029 17.5662C240.015 17.3566 240.489 17.1449 241.462 16.9916L243.954 16.8292C244.94 16.8548 245.437 17.0034 245.451 17.2185Z" fill="#3A4146"/>
<path d="M238.303 5.7525C238.468 5.87047 238.405 6.29172 237.99 6.9517C237.581 7.46455 237.15 7.96006 236.699 8.43544C236.104 8.93788 235.695 9.05794 235.553 8.90734C235.407 8.75328 235.558 8.37298 236.003 7.77407C236.435 7.31812 236.847 6.84344 237.24 6.3521C237.77 5.82814 238.125 5.62619 238.303 5.7525Z" fill="#3A4146"/>
<path d="M225.879 3.94186C225.709 3.81556 225.802 3.42068 226.063 2.74473C226.347 2.20273 226.562 1.62325 226.7 1.02712C226.942 0.344928 227.129 -0.0145566 227.345 0.000711095C227.547 0.0132029 227.727 0.424043 227.634 1.24572C227.478 1.92097 227.235 2.5754 226.914 3.18958C226.448 3.87316 226.044 4.06747 225.879 3.94186Z" fill="#3A4146"/>
<path d="M216.611 5.76291C216.416 5.84272 216.103 5.51377 215.628 4.82464C215.285 4.2063 214.883 3.62057 214.429 3.07788C213.958 2.38736 213.763 1.97721 213.912 1.81968C214.05 1.67047 214.511 1.82593 215.166 2.46162C215.659 3.05012 216.095 3.68581 216.467 4.35689C216.824 5.19801 216.804 5.68449 216.611 5.76291Z" fill="#3A4146"/>
<path d="M209.006 12.8533C208.867 13.0039 208.476 12.9082 207.887 12.505L206.534 11.3189C206.057 10.788 205.911 10.4133 206.045 10.2516C206.178 10.0892 206.559 10.1836 207.157 10.5875L208.529 11.7895C209.008 12.3294 209.152 12.6951 209.006 12.8533Z" fill="#3A4146"/>
<path d="M208.569 22.3464C208.661 22.5226 208.391 22.8939 207.632 23.2687C206.964 23.5144 206.274 23.6941 205.572 23.8058C204.727 23.8489 204.311 23.6566 204.305 23.4533C204.297 23.2375 204.681 23.0626 205.421 22.8565C206.061 22.7551 206.693 22.5907 207.302 22.3665C208.048 22.184 208.469 22.15 208.569 22.3464Z" fill="#3A4146"/>
<path d="M225.334 37.1586L217.141 35.8851L216.969 36.9968L225.162 38.2703L225.334 37.1586Z" fill="#3A4146"/>
<path d="M227.692 22.649C227.569 22.6934 227.376 22.5983 227.122 22.7454C226.977 22.8114 226.823 22.9703 226.404 23.1903C226.205 23.2944 225.848 23.386 225.509 23.3166C225.173 23.2541 224.888 23.0938 224.645 22.912C224.261 22.5768 224.015 22.2846 223.821 22.202C223.73 22.1549 223.627 22.1451 223.591 22.1528C223.555 22.1729 223.601 22.1174 223.502 22.2416C223.412 22.3513 223.304 22.6143 222.976 22.8669C222.651 23.1008 222.27 23.1688 221.911 23.1077C221.543 23.0425 221.243 22.8468 221.024 22.6004C220.793 22.3422 220.689 22.0445 220.619 21.862C220.547 21.626 220.509 21.5344 220.478 21.4886C220.436 21.4269 220.354 21.3713 220.273 21.3429C220.109 21.2853 219.966 21.3117 219.826 21.4047C219.554 21.59 219.484 21.8481 219.345 21.8669C219.241 21.9113 218.94 21.599 219.229 20.9591C219.364 20.6642 219.79 20.2929 220.369 20.3109C220.649 20.3172 220.958 20.4012 221.238 20.6211C221.539 20.8536 221.69 21.1992 221.787 21.4171C221.861 21.6198 221.909 21.7176 221.958 21.7704C222.013 21.8335 222.083 21.8696 222.125 21.8752C222.272 21.837 222.16 21.9959 222.484 21.5157C222.611 21.295 223.005 20.957 223.386 20.9196C223.761 20.8627 224.082 20.9432 224.362 21.0757C224.92 21.3644 225.191 21.7572 225.44 21.948C225.573 22.0771 225.691 22.1569 225.773 22.1944C225.852 22.2298 225.904 22.2465 226.044 22.2201C226.302 22.168 226.674 21.9939 227.02 22.0084C227.385 22.0133 227.625 22.1993 227.709 22.3568C227.799 22.5206 227.751 22.6233 227.692 22.649Z" fill="#3A4146"/>
<path d="M86.2334 210.73V224H19.0198C17.1902 224 15.5339 223.258 14.3349 222.056C13.136 220.855 12.3952 219.196 12.3952 217.364C12.3952 215.316 13.3217 213.483 14.7799 212.27C15.9282 211.308 17.4078 210.73 19.0205 210.73H86.2334V210.73Z" fill="#A698BB"/>
<path d="M84.5106 220.529C83.5701 221.869 82.3892 223.01 81.0842 224H19.0198C17.1902 224 15.5339 223.258 14.3349 222.056C13.136 220.855 12.3952 219.196 12.3952 217.364C12.3952 215.316 13.3217 213.483 14.7799 212.27C16.9386 214.385 19.9048 215.608 22.8314 216.491C33.4444 219.69 44.7455 219.463 55.8277 219.212C65.0872 218.999 74.3467 218.788 83.6055 218.576C84.0171 218.567 84.4884 218.58 84.76 218.892C85.1544 219.342 84.8529 220.039 84.5106 220.529Z" fill="#8D7EA3"/>
<path d="M71.3736 210.729C67.7144 210.729 64.7476 213.7 64.7476 217.364C64.7476 221.028 67.7144 223.999 71.3736 223.999H98.6426C99.0093 223.999 99.3066 223.702 99.3066 223.335C99.3066 222.967 99.0093 222.67 98.6426 222.67H71.4941C68.5294 222.67 66.0255 220.241 66.0754 217.273C66.1239 214.388 68.4823 212.057 71.3736 212.057H98.6426C99.0093 212.057 99.3066 211.76 99.3066 211.392C99.3066 211.025 99.0093 210.728 98.6426 210.728H71.3736V210.729Z" fill="#7E6A9D"/>
<path d="M97.8504 212.058V222.67H71.3729C70.499 222.67 69.6743 222.458 68.9466 222.077C68.6548 221.929 68.3783 221.749 68.1212 221.548C67.7671 221.273 67.449 220.951 67.1766 220.595C67.0463 220.427 66.9244 220.25 66.8162 220.064C66.6367 219.765 66.4864 219.445 66.3713 219.112C66.3096 218.939 66.2584 218.764 66.2189 218.582C66.1433 218.274 66.0969 217.958 66.0816 217.63C66.0775 217.541 66.0747 217.453 66.0747 217.364C66.0747 217.275 66.0768 217.187 66.0816 217.1C66.0969 216.773 66.1433 216.456 66.2189 216.148C66.2584 215.967 66.3096 215.79 66.3713 215.617C66.4864 215.282 66.6367 214.963 66.8162 214.665C66.9244 214.481 67.0442 214.304 67.1745 214.135C67.4469 213.778 67.765 213.457 68.1191 213.183C68.3755 212.979 68.6541 212.802 68.9466 212.651C69.6743 212.272 70.4996 212.06 71.3729 212.06H97.8504V212.058Z" fill="#F3F6FD"/>
<path d="M97.8504 212.65V213.182H68.1191C68.3755 212.978 68.6541 212.801 68.9466 212.65H97.8504Z" fill="#D1DCF8"/>
<path d="M97.8504 214.134V214.663H66.8162C66.9243 214.479 67.0442 214.302 67.1745 214.134H97.8504Z" fill="#D1DCF8"/>
<path d="M97.8504 215.615V216.147H66.2188C66.2583 215.965 66.3096 215.788 66.3713 215.615H97.8504Z" fill="#D1DCF8"/>
<path d="M97.8504 217.1V217.629H66.0823C66.0781 217.54 66.0754 217.452 66.0754 217.363C66.0754 217.275 66.0775 217.187 66.0823 217.1H97.8504Z" fill="#D1DCF8"/>
<path d="M97.8504 218.581V219.111H66.3713C66.3096 218.938 66.2583 218.763 66.2188 218.581H97.8504Z" fill="#D1DCF8"/>
<path d="M97.8504 220.063V220.595H67.1766C67.0463 220.426 66.9243 220.249 66.8162 220.063H97.8504Z" fill="#D1DCF8"/>
<path d="M97.8504 221.548V222.077H68.9458C68.654 221.928 68.3775 221.749 68.1204 221.548H97.8504Z" fill="#D1DCF8"/>
<path d="M81.8402 184.109V197.379H14.6274C12.7957 197.379 11.1415 196.637 9.94047 195.437C8.74154 194.236 8.0007 192.577 8.0007 190.746C8.0007 188.569 9.04717 186.637 10.6619 185.428C11.768 184.599 13.1395 184.11 14.6281 184.11H81.8402V184.109Z" fill="#7CD194"/>
<path d="M81.8402 191.596V197.379H14.6274C12.7957 197.379 11.1415 196.637 9.94047 195.437C8.74154 194.236 8.0007 192.577 8.0007 190.746C8.0007 188.569 9.04717 186.637 10.6619 185.428C12.1242 187.357 14.4867 188.77 16.818 189.623C20.9963 191.149 25.4781 191.614 29.9155 191.92C47.1919 193.104 64.5181 192.045 81.8402 191.596Z" fill="#71C687"/>
<path d="M66.9798 184.109C63.3206 184.109 60.3538 187.08 60.3538 190.744C60.3538 194.408 63.3206 197.379 66.9798 197.379H94.2488C94.6154 197.379 94.9128 197.082 94.9128 196.714C94.9128 196.347 94.6154 196.05 94.2488 196.05H67.1003C64.1356 196.05 61.6317 193.621 61.6816 190.653C61.7301 187.768 64.0885 185.437 66.9798 185.437H94.2488C94.6154 185.437 94.9128 185.14 94.9128 184.772C94.9128 184.405 94.6154 184.108 94.2488 184.108H66.9798V184.109Z" fill="#61BA76"/>
<path d="M93.456 185.438V196.051H66.9784C66.1045 196.051 65.2798 195.839 64.5521 195.458C64.2603 195.309 63.9838 195.13 63.7267 194.928C63.3726 194.653 63.0545 194.332 62.7821 193.976C62.6518 193.807 62.5299 193.63 62.4217 193.444C62.2422 193.145 62.0919 192.826 61.9768 192.492C61.9151 192.319 61.8639 192.144 61.8244 191.963C61.7488 191.655 61.7024 191.338 61.6871 191.01C61.683 190.921 61.6802 190.833 61.6802 190.744C61.6802 190.655 61.6823 190.567 61.6871 190.48C61.7024 190.153 61.7488 189.836 61.8244 189.528C61.8639 189.346 61.9151 189.169 61.9768 188.997C62.0919 188.662 62.2422 188.343 62.4217 188.044C62.5299 187.86 62.6497 187.684 62.78 187.515C63.0524 187.158 63.3705 186.837 63.7246 186.563C63.981 186.359 64.2596 186.182 64.5521 186.031C65.2798 185.652 66.1052 185.44 66.9784 185.44H93.456V185.438Z" fill="#FCF0F2"/>
<path d="M93.456 186.03V186.562H63.7246C63.9811 186.358 64.2597 186.181 64.5521 186.03H93.456Z" fill="#FADADF"/>
<path d="M93.456 187.514V188.044H62.4218C62.5299 187.86 62.6498 187.683 62.78 187.514H93.456Z" fill="#FADADF"/>
<path d="M93.456 188.996V189.527H61.8244C61.8639 189.346 61.9152 189.169 61.9768 188.996H93.456Z" fill="#FADADF"/>
<path d="M93.456 190.481V191.01H61.6878C61.6837 190.921 61.6809 190.833 61.6809 190.744C61.6809 190.655 61.683 190.567 61.6878 190.481H93.456Z" fill="#FADADF"/>
<path d="M93.456 191.962V192.492H61.9775C61.9158 192.319 61.8645 192.144 61.825 191.962H93.456Z" fill="#FADADF"/>
<path d="M93.456 193.444V193.975H62.7828C62.6525 193.807 62.5306 193.63 62.4225 193.444H93.456Z" fill="#FADADF"/>
<path d="M93.456 194.928V195.458H64.5521C64.2603 195.309 63.9838 195.13 63.7267 194.928H93.456Z" fill="#FADADF"/>
<path d="M84.6414 196.986H22.7018C19.3296 196.986 16.5956 200.141 16.5956 204.033C16.5956 207.925 19.3296 211.081 22.7018 211.081H84.6414V196.986Z" fill="#EE984F"/>
<path d="M84.6408 206.056V211.079H22.7011C21.0157 211.079 19.4897 210.291 18.3836 209.015C17.2796 207.741 16.5963 205.98 16.5963 204.033C16.5963 203.147 16.7377 202.301 16.9969 201.521C17.3046 202.458 17.782 203.296 18.3836 203.991C19.4897 205.267 21.0157 206.056 22.7011 206.056H84.6408Z" fill="#EA7D20"/>
<path d="M70.9466 196.986C67.5743 196.986 64.8404 200.141 64.8404 204.033C64.8404 207.925 67.5743 211.081 70.9466 211.081H96.0757C96.4132 211.081 96.6869 210.765 96.6869 210.375C96.6869 209.985 96.4132 209.669 96.0757 209.669H71.0575C68.3256 209.669 66.0178 207.089 66.0642 203.937C66.1093 200.874 68.2819 198.398 70.9466 198.398H96.0757C96.4132 198.398 96.6869 198.082 96.6869 197.692C96.6869 197.302 96.4132 196.987 96.0757 196.987H70.9466V196.986Z" fill="#EA7D20"/>
<path d="M95.3459 198.398V209.669H70.9459C70.1406 209.669 69.3804 209.444 68.7095 209.039C68.4406 208.882 68.1856 208.691 67.9493 208.477C67.6228 208.185 67.3297 207.844 67.0788 207.465C66.9582 207.286 66.8467 207.098 66.7469 206.9C66.5819 206.582 66.4433 206.244 66.3373 205.888C66.2805 205.704 66.2333 205.519 66.1966 205.326C66.1273 204.999 66.0843 204.663 66.0705 204.314C66.0663 204.22 66.0642 204.126 66.0642 204.032C66.0642 203.938 66.0663 203.844 66.0705 203.752C66.085 203.404 66.1273 203.067 66.1966 202.74C66.2333 202.547 66.2805 202.359 66.3373 202.175C66.4433 201.82 66.5819 201.481 66.7469 201.164C66.8467 200.969 66.9569 200.78 67.0767 200.601C67.3276 200.223 67.6208 199.882 67.9472 199.59C68.1835 199.373 68.4406 199.185 68.7095 199.025C69.3804 198.622 70.1406 198.397 70.9459 198.397H95.3459V198.398Z" fill="#FCF0F2"/>
<path d="M95.3459 199.026V199.591H67.9472C68.1836 199.375 68.4407 199.187 68.7096 199.026H95.3459Z" fill="#FADADF"/>
<path d="M95.3459 200.602V201.164H66.7469C66.8467 200.969 66.9568 200.781 67.0767 200.602H95.3459Z" fill="#FADADF"/>
<path d="M95.3459 202.176V202.741H66.1967C66.2334 202.548 66.2805 202.36 66.3373 202.176H95.3459Z" fill="#FADADF"/>
<path d="M95.3459 203.752V204.314H66.0705C66.0663 204.22 66.0642 204.126 66.0642 204.032C66.0642 203.938 66.0663 203.844 66.0705 203.752H95.3459Z" fill="#FADADF"/>
<path d="M95.3459 205.326V205.888H66.3373C66.2805 205.705 66.2334 205.519 66.1967 205.326H95.3459Z" fill="#FADADF"/>
<path d="M95.3459 206.9V207.465H67.0788C66.9582 207.286 66.8467 207.098 66.7469 206.9H95.3459Z" fill="#FADADF"/>
<path d="M95.3459 208.477V209.039H68.7095C68.4406 208.882 68.1856 208.691 67.9492 208.477H95.3459Z" fill="#FADADF"/>
<g opacity="0.17">
<g opacity="0.17">
<path opacity="0.17" d="M29.596 224C27.4448 220.016 27.3575 215.211 29.3326 211.159H23.9201C21.9443 215.211 22.0317 220.015 24.1821 224H29.596Z" fill="white"/>
</g>
</g>
<g opacity="0.17">
<g opacity="0.17">
<path opacity="0.17" d="M59.4577 224C57.3065 220.016 57.2192 215.211 59.1943 211.159H53.7818C51.806 215.211 51.8933 220.015 54.0438 224H59.4577Z" fill="white"/>
</g>
</g>
<g opacity="0.17">
<g opacity="0.17">
<path opacity="0.17" d="M29.86 208.139C31.9651 208.139 33.6717 206.431 33.6717 204.323C33.6717 202.215 31.9651 200.506 29.86 200.506C27.7549 200.506 26.0484 202.215 26.0484 204.323C26.0484 206.431 27.7549 208.139 29.86 208.139Z" fill="white"/>
</g>
</g>
<path d="M69.7581 188.052V193.967L68.0747 192.444L66.3914 193.967V188.052H69.7581Z" fill="#FE4C40"/>
<path d="M69.7581 188.052V190.541C69.7561 190.541 69.7533 190.539 69.7512 190.539C68.6507 190.158 67.3852 190.309 66.3921 190.912V188.052H69.7581Z" fill="#EA241F"/>
<path d="M281.649 193.971C281.868 193.78 282.089 193.589 282.303 193.399C284.026 191.886 285.779 190.356 287.504 188.779C287.638 188.661 287.764 188.543 287.89 188.425C290.246 186.263 292.561 184.007 294.727 181.581C295.658 180.538 296.564 179.461 297.436 178.358C297.555 178.206 297.675 178.053 297.796 177.894C300.599 174.306 303.086 170.408 305.202 166.258C305.788 165.111 306.342 163.759 305.741 162.721C305.534 162.36 305.193 162.093 304.79 161.908C304.667 161.847 304.535 161.799 304.393 161.758C303.913 161.62 303.378 161.593 302.865 161.655C301.719 161.799 300.639 162.353 299.65 162.953C297.109 164.501 294.936 166.418 293.033 168.506C292.913 168.637 292.783 168.774 292.663 168.911C290.72 171.097 289.045 173.444 287.485 175.74C286.32 177.454 285.202 179.165 284.132 180.86C283.987 181.076 283.85 181.296 283.722 181.51C281.064 185.725 278.682 189.885 276.535 193.972H281.649V193.971Z" fill="#71C687"/>
<path d="M263.098 172.106C263.977 181.665 265.832 190.773 266.533 193.972H270.172C270.354 191.966 270.698 188.108 271.082 183.551V183.545C271.094 183.434 271.098 183.329 271.111 183.217C271.236 181.789 271.36 180.286 271.477 178.759C271.501 178.51 271.517 178.266 271.542 178.016C272.088 171.238 272.621 163.976 272.779 159.742C272.782 159.575 272.795 159.416 272.799 159.261C272.801 159.024 272.811 158.794 272.814 158.583C273.014 149.104 268.525 146.777 268.525 146.777C268.221 146.816 267.927 146.884 267.645 146.974C267.476 147.035 267.318 147.103 267.169 147.179C264.572 148.483 263.285 152.546 262.82 157.776C262.814 157.959 262.789 158.149 262.775 158.338C262.477 162.394 262.649 167.054 263.057 171.635C263.067 171.793 263.078 171.947 263.098 172.106Z" fill="#71C687"/>
<path d="M276.417 193.971C277.584 190.927 279.464 185.999 281.586 180.363C281.696 180.099 281.797 179.828 281.899 179.557C284.466 172.735 287.373 164.911 289.704 158.38C289.922 157.768 290.141 157.168 290.341 156.587C291.475 153.398 292.419 150.636 293.037 148.64C293.059 148.565 293.08 148.49 293.103 148.415C293.189 148.138 293.274 147.866 293.341 147.603C296.818 135.456 292.274 131.369 292.059 131.176L292.049 131.168C291.938 131.168 291.818 131.168 291.707 131.176C287.06 131.335 283.216 136.944 280.212 144.792C280.155 144.93 280.099 145.068 280.042 145.214C277.276 152.576 275.295 161.621 273.937 169.93C273.909 170.143 273.871 170.35 273.833 170.556C273.028 175.61 272.444 180.382 272.022 184.397C271.998 184.624 271.973 184.844 271.948 185.065C271.569 188.871 271.333 191.97 271.198 193.972H276.417V193.971Z" fill="#71C687"/>
<path d="M288.343 193.971C289.118 193.612 289.94 193.229 290.812 192.806C291.018 192.707 291.225 192.61 291.439 192.511C293.569 191.468 295.879 190.294 297.971 189.127C298.115 189.049 298.251 188.97 298.379 188.891C302.942 186.314 306.276 183.808 303.982 183.022C303.86 182.975 303.72 182.934 303.554 182.905C303.538 182.899 303.521 182.899 303.504 182.893C302.4 182.681 301.066 182.846 299.615 183.287L299.186 183.421C296.842 184.198 294.223 185.624 291.716 187.228C291.546 187.342 291.377 187.455 291.208 187.563C287.773 189.82 284.638 192.343 282.707 193.97H288.343V193.971Z" fill="#71C687"/>
<path d="M260.865 191.038C261.236 192.116 261.787 193.162 262.262 193.972H265.917C265.013 190.14 263.454 185.405 261.517 186.71C261.391 186.795 261.274 186.893 261.167 186.995C261.067 187.092 260.984 187.194 260.911 187.308C260.29 188.199 260.38 189.458 260.765 190.717C260.79 190.823 260.832 190.933 260.865 191.038Z" fill="#71C687"/>
<path d="M291.439 192.512C291.225 192.61 291.018 192.708 290.812 192.807L287.536 192.932L287.517 192.66L291.439 192.512Z" fill="#61BA76"/>
<path d="M260.865 191.038L263.449 191.777L264.691 193.971H265.118L261.166 186.995C261.066 187.092 260.983 187.194 260.91 187.307L263.244 191.43L260.764 190.717C260.79 190.823 260.832 190.933 260.865 191.038Z" fill="#61BA76"/>
<path d="M263.056 171.634C263.067 171.794 263.078 171.947 263.098 172.106L267.205 175.086C267.328 182.963 267.567 190.199 268.063 193.971H268.442C268.149 191.685 267.951 188.053 267.813 183.65L271.477 178.759C271.501 178.51 271.517 178.266 271.542 178.016L267.796 183.029C267.629 177.332 267.558 170.331 267.556 163.313L272.779 159.742C272.782 159.575 272.795 159.416 272.799 159.261L267.559 162.837C267.558 157.295 267.597 151.77 267.645 146.974C267.476 147.035 267.318 147.103 267.169 147.179C267.148 149.976 267.107 155.903 267.114 162.654L262.82 157.776C262.814 157.959 262.789 158.149 262.775 158.339L267.11 163.258C267.121 166.961 267.148 170.878 267.198 174.65L263.056 171.634Z" fill="#61BA76"/>
<path d="M270.919 183.269L271.11 183.216C271.098 183.328 271.094 183.434 271.081 183.545C271.027 183.451 270.973 183.357 270.919 183.269Z" fill="#61BA76"/>
<path d="M272.92 193.971H273.332C273.698 192.552 274.079 191.072 274.48 189.537H274.488V189.531C274.488 189.526 274.488 189.526 274.488 189.52C274.747 188.532 275.015 187.519 275.285 186.487L281.586 180.364C281.696 180.1 281.798 179.829 281.899 179.558L275.467 185.809C276.233 182.923 277.039 179.895 277.883 176.797L289.705 158.381C289.923 157.769 290.142 157.168 290.342 156.588L278.225 175.511C279.79 169.789 281.44 163.861 283.049 158.241C283.049 158.241 283.049 158.241 283.049 158.234C283.29 157.833 288.057 153.232 293.104 148.416C293.19 148.138 293.275 147.867 293.342 147.603C289.459 151.308 284.995 155.604 283.31 157.353C287.338 143.394 291.016 131.855 292.125 131.361L292.06 131.177L292.05 131.168C291.939 131.168 291.819 131.168 291.708 131.177C290.507 132.539 287.999 139.965 285.222 149.224L280.213 144.792C280.156 144.93 280.1 145.068 280.043 145.214L285.086 149.664C284.273 152.386 283.437 155.245 282.608 158.148C280.847 164.299 279.11 170.601 277.613 176.173L273.938 169.929C273.91 170.143 273.871 170.349 273.834 170.555L277.468 176.71C276.207 181.402 275.103 185.583 274.269 188.761C273.812 187.62 272.74 185.675 272.024 184.396C271.999 184.623 271.975 184.843 271.95 185.064C272.957 186.852 274.027 188.92 274.079 189.503C273.569 191.458 273.172 192.985 272.92 193.971Z" fill="#61BA76"/>
<path d="M279.071 193.971H279.533C280.156 193.219 281.477 191.624 283.23 189.486L287.505 188.779C287.639 188.661 287.764 188.542 287.891 188.424L283.494 189.161C285.361 186.892 287.682 184.042 290.169 180.949L297.436 178.357C297.556 178.205 297.675 178.053 297.796 177.894L290.539 180.488C295.581 174.204 301.247 166.961 304.791 161.908C304.668 161.846 304.536 161.798 304.394 161.757C301.825 165.425 298.106 170.285 294.326 175.086L293.034 168.505C292.914 168.636 292.784 168.773 292.664 168.91L293.978 175.535C290.514 179.937 287.026 184.257 284.279 187.621L284.134 180.86C283.988 181.075 283.852 181.296 283.723 181.509L283.88 188.113C281.491 191.044 279.705 193.2 279.071 193.971Z" fill="#61BA76"/>
<path d="M285.935 193.971C287.738 192.843 291.007 190.805 294.523 188.666L297.971 189.127C298.115 189.049 298.251 188.97 298.38 188.891L294.905 188.43C298.131 186.457 301.5 184.432 303.983 183.023C303.86 182.976 303.721 182.935 303.554 182.906C302.358 183.586 300.966 184.403 299.486 185.285L299.615 183.287L299.186 183.422L299.052 185.544C296.306 187.189 293.33 189.015 290.77 190.596L291.716 187.229C291.546 187.343 291.377 187.457 291.208 187.564L290.27 190.9C288.198 192.191 286.435 193.293 285.353 193.972H285.935V193.971Z" fill="#61BA76"/>
<path d="M289.884 193.971L285.739 223.389H263.514L262.233 214.304L259.369 193.971H289.884Z" fill="#D1DCF8"/>
<path d="M289.884 193.971L285.739 223.389H263.514L262.233 214.303C262.638 214.185 263.042 214.061 263.447 213.939C269.288 212.143 275.169 210.116 280.139 206.561C284.453 203.477 288.044 199.06 289.351 193.971H289.884V193.971Z" fill="#BBCAEA"/>
<path d="M275.829 25.8836V39.4184C275.829 40.3761 276.588 41.1478 277.531 41.1478H291.194L293.908 45.1487L296.623 41.1478H299.176C300.118 41.1478 300.878 40.3761 300.878 39.4184V25.8836C300.878 24.9266 300.118 24.1542 299.176 24.1542H277.531C276.588 24.1549 275.829 24.9266 275.829 25.8836Z" fill="#D1DCF8"/>
<path d="M292.898 18.2976V34.4002C292.898 35.539 291.994 36.4572 290.873 36.4572H274.619L271.389 41.2172L268.16 36.4572H265.123C264.001 36.4572 263.098 35.539 263.098 34.4002V18.2976C263.098 17.1588 264.002 16.2407 265.123 16.2407H290.873C291.995 16.2407 292.898 17.1588 292.898 18.2976Z" fill="#E4ECF9"/>
</svg>
