<svg width="32" height="22" viewBox="0 0 32 22" fill="none" xmlns="http://www.w3.org/2000/svg">
<path d="M1 0C0.447715 0 0 0.447715 0 1C0 1.55228 0.447715 2 1 2V0ZM31 2C31.5523 2 32 1.55228 32 1C32 0.447715 31.5523 0 31 0V2ZM1 10C0.447715 10 0 10.4477 0 11C0 11.5523 0.447715 12 1 12V10ZM31 12C31.5523 12 32 11.5523 32 11C32 10.4477 31.5523 10 31 10V12ZM1 20C0.447715 20 0 20.4477 0 21C0 21.5523 0.447715 22 1 22V20ZM31 22C31.5523 22 32 21.5523 32 21C32 20.4477 31.5523 20 31 20V22ZM1 2H31V0H1V2ZM1 12H31V10H1V12ZM1 22H31V20H1V22Z" fill="white"/>
</svg>
