<svg width="170" height="133" viewBox="0 0 170 133" fill="none" xmlns="http://www.w3.org/2000/svg">
<path d="M13.7651 97.59V107.724L6.65507 97.59H5.21507V111H6.92507V100.794L14.0351 111H15.4751V97.59H13.7651ZM22.4993 111.216C25.2533 111.216 27.4133 109.11 27.4133 106.212C27.4133 103.314 25.2713 101.244 22.4993 101.244C19.7273 101.244 17.5853 103.314 17.5853 106.212C17.5853 109.11 19.7453 111.216 22.4993 111.216ZM22.4993 109.722C20.6453 109.722 19.2233 108.228 19.2233 106.23C19.2233 104.232 20.6453 102.738 22.4993 102.738C24.3533 102.738 25.7753 104.232 25.7753 106.23C25.7753 108.228 24.3533 109.722 22.4993 109.722ZM36.776 111.216C38.63 111.216 40.232 110.1 40.826 108.696L39.44 107.976C38.972 109.02 38.018 109.722 36.776 109.722C34.976 109.722 33.644 108.21 33.644 106.23C33.644 104.214 34.976 102.738 36.776 102.738C38.018 102.738 38.972 103.44 39.44 104.484L40.826 103.764C40.232 102.342 38.648 101.244 36.776 101.244C34.04 101.244 32.006 103.35 32.006 106.212C32.006 109.074 34.04 111.216 36.776 111.216ZM46.2496 101.244C44.4856 101.244 42.9376 102.252 42.3976 103.548L43.7836 104.268C44.1976 103.332 45.0976 102.72 46.2496 102.72C47.5096 102.72 48.4096 103.44 48.4096 104.538V104.808L45.0976 105.546C43.1716 105.978 42.0376 106.95 42.0376 108.354C42.0376 110.028 43.4056 111.216 45.4396 111.216C46.6636 111.216 47.7976 110.622 48.4456 109.668V111H49.9576V104.538C49.9576 102.594 48.4276 101.244 46.2496 101.244ZM45.5296 109.83C44.3956 109.83 43.6756 109.254 43.6756 108.354C43.6756 107.58 44.3776 106.986 45.4576 106.752L48.4096 106.068V106.896C48.4096 108.57 47.2036 109.83 45.5296 109.83ZM56.1499 101.352C54.9979 101.352 54.0799 101.766 53.5759 102.648V101.46H52.0819V111H53.6299V105.312C53.6299 103.728 54.5479 102.828 55.9159 102.828H56.9239V101.352H56.1499ZM66.3538 97.59V102.864C65.6698 101.856 64.3918 101.244 62.9518 101.244C60.2698 101.244 58.1458 103.35 58.1458 106.23C58.1458 109.11 60.2518 111.216 62.9698 111.216C64.4098 111.216 65.6878 110.64 66.3898 109.614V111H67.9018V97.59H66.3538ZM63.0598 109.722C61.1698 109.722 59.7838 108.246 59.7838 106.23C59.7838 104.232 61.1698 102.738 63.0598 102.738C64.9498 102.738 66.3538 104.232 66.3538 106.23C66.3538 108.246 64.9498 109.722 63.0598 109.722ZM73.6998 111.216C75.7518 111.216 77.1738 110.082 77.1738 108.426C77.1738 107.148 76.3098 106.212 74.7078 105.744L73.0878 105.258C72.2598 105.006 71.7198 104.574 71.7198 103.926C71.7198 103.17 72.4038 102.666 73.4298 102.666C74.5638 102.666 75.4638 103.26 75.8598 104.286L77.1558 103.656C76.5978 102.162 75.1938 101.244 73.4298 101.244C71.4498 101.244 70.1178 102.36 70.1178 104.016C70.1178 105.312 70.9458 106.23 72.5478 106.68L74.1138 107.112C74.9958 107.364 75.5718 107.742 75.5718 108.426C75.5718 109.218 74.8158 109.794 73.6998 109.794C72.5118 109.794 71.4858 109.164 70.9998 107.958L69.6858 108.606C70.2978 110.226 71.8278 111.216 73.6998 111.216ZM85.8258 101.244C84.0618 101.244 82.5138 102.252 81.9738 103.548L83.3598 104.268C83.7738 103.332 84.6738 102.72 85.8258 102.72C87.0858 102.72 87.9858 103.44 87.9858 104.538V104.808L84.6738 105.546C82.7478 105.978 81.6138 106.95 81.6138 108.354C81.6138 110.028 82.9818 111.216 85.0158 111.216C86.2398 111.216 87.3738 110.622 88.0218 109.668V111H89.5338V104.538C89.5338 102.594 88.0038 101.244 85.8258 101.244ZM85.1058 109.83C83.9718 109.83 83.2518 109.254 83.2518 108.354C83.2518 107.58 83.9538 106.986 85.0338 106.752L87.9858 106.068V106.896C87.9858 108.57 86.7798 109.83 85.1058 109.83ZM99.3261 97.59V102.864C98.6421 101.856 97.3641 101.244 95.9241 101.244C93.2421 101.244 91.1181 103.35 91.1181 106.23C91.1181 109.11 93.2241 111.216 95.9421 111.216C97.3821 111.216 98.6601 110.64 99.3621 109.614V111H100.874V97.59H99.3261ZM96.0321 109.722C94.1421 109.722 92.7561 108.246 92.7561 106.23C92.7561 104.232 94.1421 102.738 96.0321 102.738C97.9221 102.738 99.3261 104.232 99.3261 106.23C99.3261 108.246 97.9221 109.722 96.0321 109.722ZM111.01 97.59V102.864C110.326 101.856 109.048 101.244 107.608 101.244C104.926 101.244 102.802 103.35 102.802 106.23C102.802 109.11 104.908 111.216 107.626 111.216C109.066 111.216 110.344 110.64 111.046 109.614V111H112.558V97.59H111.01ZM107.716 109.722C105.826 109.722 104.44 108.246 104.44 106.23C104.44 104.232 105.826 102.738 107.716 102.738C109.606 102.738 111.01 104.232 111.01 106.23C111.01 108.246 109.606 109.722 107.716 109.722ZM123.576 105.816C123.576 103.386 121.848 101.244 119.13 101.244C116.466 101.244 114.486 103.332 114.486 106.212C114.486 109.092 116.52 111.216 119.256 111.216C121.218 111.216 122.766 110.154 123.36 108.84L122.01 108.12C121.506 109.092 120.624 109.812 119.274 109.812C117.6 109.812 116.178 108.588 116.106 106.698H123.504C123.558 106.392 123.576 106.086 123.576 105.816ZM116.142 105.366C116.358 103.638 117.636 102.612 119.13 102.612C120.534 102.612 121.848 103.782 121.866 105.366H116.142ZM133.007 97.59V102.864C132.323 101.856 131.045 101.244 129.605 101.244C126.923 101.244 124.799 103.35 124.799 106.23C124.799 109.11 126.905 111.216 129.623 111.216C131.063 111.216 132.341 110.64 133.043 109.614V111H134.555V97.59H133.007ZM129.713 109.722C127.823 109.722 126.437 108.246 126.437 106.23C126.437 104.232 127.823 102.738 129.713 102.738C131.603 102.738 133.007 104.232 133.007 106.23C133.007 108.246 131.603 109.722 129.713 109.722ZM146.949 101.442L144.015 108.822L141.081 101.442H139.317L143.133 110.91L142.719 111.9C142.431 112.566 142.071 113.43 140.667 113.43C140.289 113.43 139.857 113.376 139.677 113.322V114.708C140.037 114.852 140.505 114.906 140.937 114.906C143.169 114.906 143.853 113.394 144.339 112.188L148.749 101.442H146.949ZM158.693 105.816C158.693 103.386 156.965 101.244 154.247 101.244C151.583 101.244 149.603 103.332 149.603 106.212C149.603 109.092 151.637 111.216 154.373 111.216C156.335 111.216 157.883 110.154 158.477 108.84L157.127 108.12C156.623 109.092 155.741 109.812 154.391 109.812C152.717 109.812 151.295 108.588 151.223 106.698H158.621C158.675 106.392 158.693 106.086 158.693 105.816ZM151.259 105.366C151.475 103.638 152.753 102.612 154.247 102.612C155.651 102.612 156.965 103.782 156.983 105.366H151.259ZM164.452 111.108C164.722 111.108 165.1 111.09 165.406 111.018V109.758C165.208 109.794 164.938 109.812 164.74 109.812C163.102 109.812 162.994 108.696 162.994 108.084V102.936H165.298V101.46H162.994V98.364H161.446V100.056C161.446 100.902 160.906 101.46 160.078 101.46H159.592V102.936H161.446V108.084C161.446 110.01 162.526 111.108 164.452 111.108Z" fill="#A6AAB4"/>
<circle cx="84" cy="40" r="40" fill="#E9E9E9"/>
<path fill-rule="evenodd" clip-rule="evenodd" d="M74.0918 28.5455C72.6857 28.5455 71.5459 29.6851 71.5459 31.0909V48.9091C71.5459 50.3149 72.6857 51.4545 74.0918 51.4545H91.7053C91.4304 50.8759 91.2766 50.2287 91.2766 49.5455V34.228C91.1836 34.0512 91.131 33.8499 91.131 33.6364C91.131 33.4228 91.1836 33.2215 91.2766 33.0447V31.0909C91.2766 29.6851 90.1367 28.5455 88.7307 28.5455H74.0918ZM93.8225 32.3636V31.0909C93.8225 28.2793 91.5428 26 88.7307 26H74.0918C71.2797 26 69 28.2793 69 31.0909V48.9091C69 51.7207 71.2797 54 74.0918 54H94.9082C95.0516 54 95.1935 53.9941 95.3339 53.9825C95.465 53.9941 95.5977 54 95.7319 54C96.0161 54 96.2786 53.9068 96.4905 53.7494C98.528 53.084 100 51.1684 100 48.9091V37.4545C100 34.6429 97.7203 32.3636 94.9082 32.3636H93.8225ZM93.8225 34.9091V49.5455C93.8225 50.4691 94.4785 51.2395 95.35 51.4164C96.5455 51.2072 97.4541 50.1643 97.4541 48.9091V37.4545C97.4541 36.0487 96.3143 34.9091 94.9082 34.9091H93.8225ZM74.9903 33.262C74.9903 32.5591 75.5602 31.9893 76.2633 31.9893H86.7463C87.4494 31.9893 88.0193 32.5591 88.0193 33.262C88.0193 33.9649 87.4494 34.5348 86.7463 34.5348H76.2633C75.5602 34.5348 74.9903 33.9649 74.9903 33.262ZM77.9855 40C77.9855 39.2971 78.5554 38.7273 79.2584 38.7273H86.7464C87.4494 38.7273 88.0193 39.2971 88.0193 40C88.0193 40.7029 87.4494 41.2727 86.7464 41.2727H79.2584C78.5554 41.2727 77.9855 40.7029 77.9855 40Z" fill="#C2C2C2"/>
</svg>
