<svg width="856" height="1053" viewBox="0 0 856 1053" fill="none" xmlns="http://www.w3.org/2000/svg">
<path opacity="0.1" fill-rule="evenodd" clip-rule="evenodd" d="M294.806 704.776C228.878 689.989 186.488 622.722 159.509 560.538C132.859 499.109 136.522 430.737 147.056 364.214C158.019 294.977 164.985 214.745 220.941 172.58C276.142 130.984 352.791 159.184 421.439 157.457C481.493 155.946 544.568 134.266 597.061 163.116C649.674 192.033 683.569 249.499 696.348 308.549C707.81 361.515 667.81 410.004 662.191 464.077C655.613 527.39 708.25 607.657 660.851 650.198C613.131 693.027 538.745 622.055 475.699 631.456C409.909 641.265 359.499 719.285 294.806 704.776Z" fill="#09AC2C"/>
<path fill-rule="evenodd" clip-rule="evenodd" d="M208.651 897.286C224.974 892.463 242.561 902.023 256.133 912.355C269.54 922.561 277.129 937.997 282.979 953.869C289.068 970.387 297.387 988.828 290.252 1004.92C283.213 1020.79 262.884 1023.98 247.991 1032.76C234.962 1040.43 223.744 1052.9 208.651 1053C193.523 1053.1 179.009 1044.65 168.946 1033.26C159.921 1023.05 162.769 1007.53 157.366 994.991C151.039 980.308 129.601 969.151 134.807 954.027C140.049 938.801 165.131 945.26 177.85 935.487C191.122 925.289 192.634 902.019 208.651 897.286Z" fill="#FFC278" fill-opacity="0.5"/>
<path fill-rule="evenodd" clip-rule="evenodd" d="M752.15 796.694C741.848 810.243 722.014 812.946 704.96 812.651C688.112 812.36 672.859 804.41 658.75 795.079C644.065 785.369 626.446 775.429 622.675 758.238C618.955 741.279 633.45 726.673 640.261 710.784C646.218 696.884 647.88 680.196 659.989 671.184C672.125 662.153 688.826 660.374 703.673 663.592C716.99 666.479 723.882 680.676 735.66 687.586C749.45 695.677 773.333 691.982 778.088 707.253C782.875 722.628 758.835 732.268 754.367 747.673C749.706 763.748 762.259 783.4 752.15 796.694Z" fill="#8F98FF" fill-opacity="0.5"/>
</svg>
