<svg width="379" height="285" viewBox="0 0 379 285" fill="none" xmlns="http://www.w3.org/2000/svg">
<path fill-rule="evenodd" clip-rule="evenodd" d="M137.727 72.167C137.466 76.4464 137.204 80.7251 136.943 85.0046C138.623 84.5196 149.309 81.3671 148.649 84.5634C148.176 86.856 145.171 89.336 143.641 90.9321C142.232 92.4016 140.781 93.8329 139.294 95.2223C142.028 94.1728 144.785 93.179 147.561 92.2495C149.662 91.5459 151.779 90.8593 153.932 90.332C154.731 90.1361 156.889 89.3371 157.644 89.8819C159.628 91.3136 148.864 101.857 147.389 103.344C149.474 102.371 151.609 101.488 153.78 100.73C155.348 100.183 160.192 98.0923 161.579 99.878C163.064 101.788 159.385 106.175 158.365 107.566C156.903 109.559 155.319 111.471 153.657 113.299C160.565 119.52 168.683 125.058 177.323 128.499C183.657 131.023 189.88 131.666 196.564 130.281C203.432 128.858 210.017 126.129 216.278 123.009C219.955 121.177 223.583 119.194 227.04 116.967C225.615 115.229 224.231 113.455 222.887 111.654C220.968 109.082 218.61 106.272 217.517 103.21C216.446 100.214 220.463 100.799 222.389 100.962C225.179 101.198 227.961 101.697 230.696 102.296C228.762 100.948 226.864 99.5455 225.004 98.0979C222.58 96.2112 219.346 94.0782 217.76 91.364C216.364 88.9775 219.427 89.5802 220.843 89.8926C224.219 90.6385 227.504 91.9092 230.724 93.1486C233.082 94.0563 235.426 95.0071 237.747 96.0083C236.306 94.7525 234.914 93.4366 233.576 92.0724C231.777 90.2389 229.351 87.9993 228.545 85.4744C226.903 80.3318 237.95 84.2108 239.836 85.0046C239.487 79.6775 239.139 74.3505 238.791 69.0234C224.163 72.9259 209.536 76.829 194.907 80.7318C193.327 81.1537 191.348 82.0722 189.699 82.1212C188.206 82.1661 186.403 81.4918 184.947 81.2131L158.476 76.1421C151.56 74.817 144.643 73.4921 137.727 72.167Z" fill="#016F56"/>
<path fill-rule="evenodd" clip-rule="evenodd" d="M294.945 255.392C293.366 256.299 291.516 256.998 289.761 257.467C288.731 257.743 287.028 258.595 286.123 257.814C285.689 257.44 285.589 256.588 285.332 256.095C284.927 255.314 284.35 254.64 283.809 253.95C282.5 252.277 281.137 250.663 279.711 249.089C279.035 248.344 277.801 246.603 276.61 246.717C275.126 246.86 275.161 248.92 275.533 249.972C276.718 253.322 280.302 256.243 282.644 258.767C282.048 259.686 278.779 259.576 277.871 259.361C276.484 259.033 276.344 258.043 275.712 256.911C274.232 254.266 271.23 252.785 268.762 251.23C267.863 250.662 265.951 249.091 264.778 249.486C263.667 249.861 263.715 251.284 264.069 252.214C264.603 253.618 266.124 254.592 267.249 255.48C268.749 256.663 270.12 257.951 271.369 259.399C269.568 259.547 267.773 259.801 265.977 259.95C263.804 260.129 261.993 258.934 259.992 258.256C258.134 257.627 256.282 257.094 254.454 256.369C252.402 255.554 250.252 255.27 248.182 254.555C240.059 251.75 232.099 248.222 224.271 244.665C220.541 242.97 216.887 241.275 213 239.949C210.168 238.982 205.717 237.055 205.039 233.672C204.682 231.885 205.984 229.962 206.176 228.177C206.401 226.076 206.224 223.764 205.586 221.748C205.023 219.973 204.091 218.328 203.356 216.623C202.5 214.636 203.266 214.668 204.929 214.442C206.92 214.172 209.243 213.048 211.114 212.317C213.269 211.473 215.406 210.295 217.379 209.084C219.165 207.988 220.718 206.576 222.139 205.042C223.585 203.482 224.521 201.633 225.919 200.034C231.079 206.396 235.982 212.855 241.464 218.941C244.051 221.814 246.865 224.19 250.054 226.374C251.385 227.287 252.706 228.328 254.156 229.05C255.97 229.952 257.998 230.512 259.863 231.336C267.011 234.494 273.833 237.946 280.502 242.021C283.728 243.992 286.436 246.252 289.277 248.725C290.161 249.495 297.405 253.981 294.945 255.392ZM211.088 203.276C209.933 203.801 208.832 204.482 207.6 204.819C207.949 202.687 209.933 199.472 212.476 199.826C213.448 199.961 214.181 200.718 213.754 201.761C213.366 202.709 211.912 202.903 211.088 203.276ZM130.679 145.462C129.37 146.187 128.15 146.609 127.382 145.053C127.951 144.939 130.534 144.593 130.679 145.462ZM128.499 141.063C127.487 140.755 128.296 140.432 128.645 140.06C128.916 139.771 129.814 138.758 130.128 138.59C131.517 137.853 132.59 140.596 133.254 141.487C131.682 141.347 130.029 141.528 128.499 141.063ZM139.32 150.562C137.402 150.888 137.615 148.482 137.672 147.263C138.077 147.758 140.816 150.308 139.32 150.562ZM145.677 146.406C143.339 146.801 141.793 142.75 142.213 140.978C142.581 139.417 144.394 138.545 145.837 138.315C147.235 138.092 149.182 138.396 149.598 140.014C149.965 141.443 147.236 146.142 145.677 146.406ZM201.037 207.563C199.356 208.081 197.709 208.146 196.02 208.655C194.104 209.231 192.33 209.18 190.409 209.573C189.628 209.732 187.521 210.873 186.758 210.618C186.003 210.366 184.911 208.017 184.477 207.406C187.875 205.99 190.773 204.162 193.013 201.178C194.794 198.805 196.703 195.25 195.583 192.188C194.32 188.735 189.964 187.985 187.06 189.428C185.686 190.11 184.325 190.957 183.192 191.997C181.897 193.185 181.387 194.482 180.548 195.948C179.7 197.43 179.104 196.606 178.256 195.347C177.532 194.271 177.627 193.185 176.721 192.123C176.259 191.582 175.544 191.059 175.303 190.359C175.15 189.916 175.472 189.129 175.182 188.78C174.775 188.29 174.279 188.866 173.937 188.428C173.689 188.11 173.77 187.385 173.514 186.986C173.292 186.76 173.045 186.567 172.771 186.406C172.44 186.242 172.379 186.037 172.59 185.79C172.326 185.301 172.58 185.135 172.016 184.54C171.135 183.612 170.333 182.723 169.706 181.627C169.42 181.126 169.448 180.383 169.093 179.949C168.605 179.353 167.791 179.442 167.372 178.705C166.998 178.048 167.248 176.899 166.631 176.302C166.307 176.209 165.981 176.118 165.656 176.028C165.411 175.789 165.268 175.5 165.228 175.16C164.885 174.631 164.817 174.01 164.385 173.451C163.557 172.383 162.444 171.397 161.713 170.271C160.945 169.087 161.352 168.888 162.687 168.464C163.891 168.082 164.99 167.727 166.106 167.076C171.264 164.066 176.155 156.082 167.967 153.643C164.929 152.738 162.433 150.303 159.063 151.26C157.603 151.675 156.217 152.558 155.128 153.606C154.375 154.331 153.678 156.268 152.754 156.639C151.092 157.307 151.794 155.64 151.323 154.874C151.097 154.508 150.191 154.087 149.855 153.754C149.461 153.364 149.079 152.872 148.806 152.389C148.297 151.494 147.986 150.995 147.254 150.266C146.978 149.99 145.598 148.568 146.842 148.754C146.338 147.214 147.073 146.983 148.09 145.858C149.283 144.537 150.515 142.702 150.522 140.851C150.536 137.298 146.336 135.706 143.699 137.815C143.162 138.244 139.988 142.387 140.638 139.745C140.988 138.32 144.23 134.6 145.733 135.563C144.049 133.101 140.179 139.078 139.276 140.301C138.507 138.882 138.453 137.771 137.18 136.672C136.144 138.337 136.691 136.517 136.463 136.147C135.969 135.348 136.24 136.262 135.973 135.978C135.64 135.624 135.115 135.345 134.761 134.877C134.153 135.703 134.396 134.814 134.21 134.506C133.775 133.784 133.943 133.366 133.198 132.739C132.655 132.283 131.586 131.574 130.856 131.509C130.014 131.434 129.781 131.758 128.923 131.519C127.831 131.214 126.458 130.747 126.986 132.577C127.37 133.907 128.929 134.663 129.271 136.022C129.615 137.39 128.266 138.769 127.611 139.89C126.771 141.329 126.084 141.212 124.561 141.536C123.588 141.743 122.289 142.187 123.124 143.37C123.72 144.216 125.117 144.038 125.903 144.539C127.006 145.241 126.991 146.972 128.399 147.274C129.95 147.606 130.838 145.874 132.146 145.456C133.076 145.159 135.956 145.192 136.688 145.892C137.685 146.846 136.823 148.668 137.074 149.853C137.447 151.61 138.633 151.717 140.132 151.773C141.978 151.842 142.627 153.619 143.619 155.029C145.945 158.33 147.965 161.85 150.347 165.107C151.402 166.549 152.944 167.833 153.807 169.398C154.873 171.331 153.393 172.446 152.116 173.834C150.447 175.647 149.201 177.71 147.754 179.692C146.467 181.453 144.869 181.015 142.814 181.015C143.272 180.068 143.823 179.478 144.95 179.592C143.771 178.15 142.829 179.8 142.065 180.714C140.959 182.036 139.517 182.355 138.097 183.224C137.594 183.531 134.857 185.525 135.689 186.206C135.783 186.283 140.314 183.294 140.83 183.02C140.83 184.123 140.589 185.27 140.744 186.367C140.857 187.171 141.421 188.01 141.3 188.847C141.073 190.426 139.037 191.67 138.164 192.9C137.506 193.826 137.665 194.556 137.33 195.55C137.025 196.456 137.185 196.182 136.425 196.462C134.876 197.033 132.269 196.725 130.867 195.914C129.997 195.411 129.329 194.615 128.622 193.914C128.089 193.385 126.749 192.482 126.601 191.743C126.348 190.469 128.869 188.103 129.368 186.789C130.777 183.082 128.361 180.201 124.599 179.99C125.759 179.094 127.195 179.769 128.417 180.111C126.329 177.209 122.761 179.597 120.989 181.569C119.779 178.501 119.195 175.264 118.456 172.064C117.952 169.886 116.034 165.997 116.89 163.754C117.303 162.669 118.47 162.064 119.278 161.313C120.195 160.458 120.981 159.436 121.652 158.378C123.232 155.887 124.144 152.741 121.968 150.286C122.629 150.177 123.291 150.068 123.952 149.959C122.877 148.946 121.18 149.439 119.785 149.139C118.899 148.949 116.351 149.072 115.76 148.57C115.049 147.965 115.505 145.186 115.531 144.363C115.589 142.441 115.749 140.593 115.961 138.681C116.162 136.876 116.121 134.926 116.493 133.153C116.795 131.713 117.76 131.275 118.874 130.427C121.536 128.399 123.705 125.932 122.796 122.437C123.118 122.386 123.44 122.335 123.762 122.284C122.721 121.528 121.373 121.803 120.215 121.404C121.278 118.402 123.631 113.124 127.452 112.84C127.583 114.182 127.493 115.778 128.396 116.889C129.424 118.154 131.229 118.281 132.622 117.612C133.886 117.004 135.072 115.717 135.655 114.445C136.049 113.583 135.978 112.127 136.669 111.445C137.597 110.529 143.993 111.081 143.797 112.627C143.682 113.535 141.971 115.062 141.493 115.867C140.619 117.341 139.918 118.935 139.597 120.627C139.11 123.198 139.392 126.591 141.995 127.942C144.956 129.479 148.563 127.525 150.991 125.836C152.325 124.909 153.616 123.886 154.834 122.811C155.482 122.24 156.134 121.65 156.706 121C157.128 120.521 157.466 119.746 157.985 119.387C159.213 118.538 160.416 119.978 161.455 120.706C163.147 121.892 164.831 123.017 166.647 124.004C170.333 126.006 173.703 128.657 176.962 131.29C180.24 133.939 183.619 136.663 186.275 139.963C184.667 140.955 184.953 141.213 184.238 142.982C183.73 144.238 183.031 145.306 182.95 146.702C182.81 149.109 184.352 151.161 186.692 151.694C188.001 151.992 189.247 151.754 190.459 151.217C191.402 150.8 192.341 149.774 193.325 149.519C195.155 149.046 196.619 152.512 197.645 153.733C202.2 159.155 207.015 164.363 211.305 170.006C211.78 170.631 213.191 171.852 213.306 172.68C213.471 173.868 211.606 175.001 210.833 175.682C210.426 176.039 206.12 180.101 207.566 180.747C207.978 180.931 209.185 178.439 209.486 178.226C210.616 177.428 209.762 178.992 209.694 179.783C209.526 181.748 210.872 182.819 212.765 182.57C214.784 182.304 216.582 180.706 217.832 179.196C219.398 181.014 221.846 183.764 222.299 186.193C222.588 187.745 221.249 191.544 223.749 191.861C224.131 191.909 225.512 190.881 225.77 191.465C225.985 191.952 224.492 192.784 224.276 192.945C223.356 193.634 222.8 194.372 222.057 195.206C221.185 196.185 219.993 197.01 219.012 197.948C217.979 198.936 215.934 201.621 214.57 200.324C213.884 199.672 214.065 198.82 212.966 198.438C211.966 198.089 210.699 198.531 209.77 198.917C208.724 199.352 205.279 200.939 204.896 202.245C204.369 204.047 207.217 201.881 207.723 201.564C207.146 203.034 206.827 205.162 205.356 206.019C204.134 206.731 202.377 207.15 201.037 207.563ZM181.506 196.447C182.484 193.296 188.25 187.678 191.895 189.435C187.647 190.328 184.277 193.242 181.506 196.447ZM183.662 205.471C182.241 204.677 182.318 202.37 181.822 201.021C181.537 200.247 180.967 199.681 181.135 198.822C181.331 197.814 182.612 196.694 183.295 195.968C185.441 193.681 189.219 190.556 192.675 191.08C197.073 191.748 194.091 197.668 192.594 199.707C191.317 201.445 186.399 207.001 183.662 205.471ZM173.402 201.617C168.646 201.299 163.906 200.873 159.214 199.997C157.551 199.687 156.157 199.733 157.109 197.816C157.423 197.183 159.318 193.216 159.745 193.33C159.999 193.397 159.941 196.123 160.016 196.436C160.352 197.839 161.295 199.147 162.885 199.058C165.486 198.913 167.163 195.54 168.533 193.73C169.63 195.209 170.424 196.853 171.527 198.307C172.055 199.002 173.89 200.62 173.402 201.617ZM145.517 182.898C144.719 184.733 143.114 186.48 141.998 188.143C141.367 186.804 140.923 183.729 142.42 182.738C142.986 182.364 146.021 181.737 145.517 182.898ZM162.013 188.365C162.233 187.658 162.476 186.957 162.747 186.268C163.212 187.737 163.45 187.781 162.013 188.365ZM166.084 189.869C166.662 190.85 167.624 191.815 167.473 193.047C167.359 193.981 166.517 194.937 165.916 195.588C164.921 196.664 162.717 198.73 161.276 197.301C160.072 196.107 160.492 192.824 161.052 191.481C161.851 189.562 164.708 187.532 166.084 189.869ZM163.26 187.858C163.591 187.726 162.896 185.585 163.541 185.371C164.103 186.658 164.634 187.006 163.26 187.858ZM154.171 159.038C153.957 158.248 153.465 158.281 153.642 157.304C153.758 156.664 154.265 155.98 154.65 155.472C155.417 154.461 156.428 153.627 157.521 152.996C159.829 151.663 162.999 151.11 165.066 153.196C163.134 153.501 157.211 155.414 157.173 158.063C159.322 157.648 161.011 155.485 163.166 154.803C164.935 154.243 166.853 154.282 168.612 154.873C173.429 156.491 171.426 160.665 168.707 163.376C167.094 164.985 165.159 166.187 163.044 167.016C162.065 167.4 161.464 167.442 160.502 167.249C160.321 167.213 160.111 166.878 159.895 166.806C159.358 166.628 159.513 167.232 159.071 166.961C158.685 166.724 157.862 165.197 157.6 164.76C157.182 164.064 156.987 163.387 156.474 162.752C155.961 162.116 155.711 161.265 155.236 160.69C155.008 160.413 154.383 160.424 154.215 160.154C153.963 159.748 154.284 159.453 154.171 159.038ZM146.774 190.166C147.869 188.259 149.742 186.64 151.191 184.973C151.28 187.713 149.321 189.588 146.774 190.166ZM148.254 191.047C150.514 190.249 151.76 188.341 151.99 186.027C152.283 183.097 154.118 181.559 155.223 178.926C155.647 177.917 156.14 174.597 157.783 175.547C158.346 175.873 158.68 177.099 158.974 177.653C159.684 178.993 160.492 180.292 161.245 181.607C161.858 182.678 162.777 183.755 162.507 185.045C162.271 186.169 161.512 187.367 161.067 188.427C160.017 190.931 158.637 193.237 157.485 195.686C157.02 196.674 156.47 199.013 155.05 199.001C153.926 198.991 154.052 197.76 153.312 197.337C152.378 196.804 151.316 197.819 150.549 198.239C151.432 196.743 152.977 195.896 154.713 196.178C152.634 194.102 151.229 196.903 149.445 197.527C147.755 198.118 144.756 195.33 143.333 194.54C143.878 193.616 144.37 192.486 145.306 191.877C146.194 191.3 147.284 191.389 148.254 191.047ZM129.874 210.014C130.122 208.819 130.822 208.113 131.265 207.027C131.779 208.343 130.575 209.12 129.874 210.014ZM165.791 217.348C165.67 221.372 165.342 225.386 165.224 229.412C165.169 231.268 164.841 233.039 164.624 234.874C164.44 236.426 164.533 237.95 163.559 239.276C162.023 241.366 159.037 241.967 156.718 242.741C155.016 243.31 153.294 243.826 151.612 244.457C150.099 245.026 148.88 245.887 147.441 246.563C146.154 247.167 144.765 247.526 143.484 248.17C142.159 248.836 141.112 249.648 139.751 250.241C138.122 250.951 136.78 252.214 135.331 253.217C134.055 254.1 132.706 254.782 131.608 255.891C130.579 256.933 129.277 257.39 128.111 258.315C126.878 259.293 125.588 259.929 124.226 260.696C121.435 262.269 117.671 264.954 114.313 263.426C115.273 262.196 117.239 261.014 117.388 259.32C117.583 257.112 115.667 257.925 114.557 258.63C112.876 259.697 111.947 260.986 110.667 262.409C109.172 264.073 107.282 262.953 105.452 262.486C106.703 261.356 107.945 260.216 109.194 259.085C110.248 258.13 111.862 257.097 112.504 255.776C112.963 254.832 112.94 253.538 111.833 253.048C110.594 252.5 109.193 253.656 108.275 254.344C105.839 256.172 104.234 258.489 102.635 261.033C101.784 262.385 101.392 262.281 99.8261 262.011C98.1672 261.724 96.5083 261.419 94.8358 261.218C97.0513 258.937 99.5274 256.465 101.277 253.796C101.844 252.93 102.584 250.651 100.856 250.441C100.145 250.355 98.7276 251.814 98.1787 252.208C95.7792 253.927 93.4723 256.096 91.8822 258.606C91.357 259.435 91.1923 260.357 90.1756 260.425C88.8465 260.516 86.3771 259.244 85.095 258.851C87.5452 255.754 89.9784 252.634 92.8412 249.903C95.4716 247.393 98.0954 245.57 101.172 243.645C104.469 241.582 107.54 239.207 110.567 236.769C113.465 234.435 116.491 232.234 119.158 229.629C124.486 224.425 129.232 218.44 133.161 212.111C134.08 210.63 134.946 209.11 135.694 207.535C136.397 206.055 136.721 204.285 137.669 202.939C137.997 202.474 138.459 202.128 138.751 201.643C139.026 201.186 138.933 200.634 139.353 200.23C140.325 199.294 142.094 199.858 143.002 200.514C144.462 201.568 145.644 202.847 147.249 203.73C148.863 204.617 150.609 205.262 152.397 205.698C156.575 206.717 160.717 207.553 164.973 208.172C164.535 209.8 165.611 210.057 165.967 211.522C166.4 213.3 165.846 215.537 165.791 217.348ZM125.562 190.19C124.615 188.779 123.769 187.304 122.838 185.883C122.271 185.018 121.568 184.089 122.053 183.031C122.869 181.248 125.749 180.93 127.312 181.708C130.864 183.475 127.564 188.53 125.562 190.19ZM116.158 157.917C115.831 155.159 116.883 153.202 119.372 151.756C121.145 150.725 122.573 152.134 122.331 154.012C121.963 156.875 118.912 160.059 116.583 161.553C116.431 160.342 116.302 159.129 116.158 157.917ZM115.779 150.025C116.513 149.441 118.479 150.186 119.329 150.237C118.16 151.262 116.99 152.287 115.82 153.311C115.743 152.608 115.102 150.565 115.779 150.025ZM119.726 123.389C125.645 122.618 118.831 128.986 117.116 129.985C117.395 128.629 118.081 123.604 119.726 123.389ZM135.483 112.239C134.689 115.503 128.51 119.064 128.445 113.717C128.421 111.725 129.537 111.886 131.166 111.695C132.096 111.586 135.938 110.373 135.483 112.239ZM114.141 117.294C113.447 119.119 112.891 120.992 112.211 122.819C111.91 123.629 111.556 124.185 110.995 124.826C110.525 125.362 109.966 125.498 109.985 126.345C110.573 126.231 111.034 125.879 111.509 125.54C111.394 127.22 110.802 129.028 110.515 130.703C110.171 132.711 109.885 134.719 109.779 136.755C109.549 141.183 109.547 145.595 109.644 150.025C109.693 152.283 109.716 154.542 109.837 156.796C109.898 157.918 109.966 159.045 110.105 160.16C110.161 160.61 110.487 161.568 110.285 161.99C109.495 163.646 105.993 159.097 104.472 159.765C104.691 158.505 104.186 158.78 103.343 158.161C102.935 157.86 102.669 157.349 102.244 157.081C102.115 156.942 101.973 156.819 101.818 156.71C101.643 156.469 101.457 156.495 101.262 156.786C99.5481 155.76 99.1054 153.571 98.1857 152.099C97.7127 151.342 97.2556 151.224 97.1749 150.177C97.105 149.265 97.2419 148.335 97.2049 147.42C97.1631 146.386 97.1027 145.247 96.8137 144.247C96.4783 143.085 96.0168 143.18 95.1178 142.561C95.3946 142.44 95.5775 142.236 95.6659 141.949C95.3787 142.001 94.5064 142.357 94.2895 142.101C93.8631 141.597 94.8691 141.53 95.1334 141.329C94.0056 140.827 94.2484 140.414 94.6555 139.494C94.7706 139.234 94.8806 138.845 94.9786 138.625C95.1926 138.146 95.3158 138.45 95.3865 137.854C95.4535 137.285 94.9513 136.168 94.8032 135.563C94.5552 134.548 94.4179 133.671 94.6407 132.613C94.8213 131.756 95.3073 130.981 95.341 130.1C95.3506 129.852 94.9749 129.77 94.9698 129.532C94.9624 129.183 95.2873 129.029 95.3717 128.707C95.5875 127.882 95.4901 127.009 95.8591 126.226C96.1911 125.522 96.8618 124.612 97.3363 123.998C97.6653 123.573 98.4725 123.093 98.561 122.532C98.6195 122.16 98.0417 122.203 98.0673 121.922C98.1024 121.543 98.42 121.42 98.507 121.138C98.7472 120.364 98.8075 119.62 99.4282 119.027C100.21 118.28 100.55 118.593 100.582 117.361C100.598 116.761 100.118 116.668 100.375 115.975C100.515 115.599 100.926 115.378 101.19 115.111C101.971 114.32 102.498 113.618 103.055 112.641C103.547 111.778 104.332 111.276 104.837 110.531C105.493 109.559 104.511 109.077 105.844 108.803C105.655 108.2 105.453 107.713 105.952 107.202C106.266 106.88 107.064 107.077 107.342 106.705C107.661 106.277 107.19 105.263 107.671 104.986C108.062 104.761 108.647 105.456 109.261 105.112C109.729 104.849 110.436 103.401 110.285 102.869C111.495 103.552 111.194 103.081 111.773 102.206C111.903 102.009 112.296 101.966 112.408 101.768C112.632 101.371 112.581 100.968 112.903 100.645C113.44 100.11 114.318 100.247 114.909 99.8643C115.397 99.5482 115.371 99.2071 115.76 98.9088C116.093 98.6538 116.64 98.6048 116.963 98.3406C117.597 97.8229 117.603 97.2767 118.396 96.831C119.335 96.3033 120.167 95.8543 121.021 95.1548C121.577 94.6991 122.106 93.8908 122.757 93.5899C123.658 93.1739 124.36 93.1446 125.241 92.5508C125.878 92.1218 126.48 91.4138 127.106 91.052C127.577 90.7796 127.908 90.8382 128.503 90.6694C129.573 90.3651 129.833 89.3542 130.706 88.9427C131.305 88.6603 132.178 88.9189 132.836 88.7705C134.883 88.3096 136.906 87.3154 138.961 86.7647C141.469 86.093 143.995 85.5045 146.522 84.9104C144.199 88.0665 141.241 90.9143 138.241 93.421C137.256 94.2437 131.86 97.9951 134.769 99.5971C135.937 100.24 138.473 98.1632 139.416 97.6556C141.314 96.6332 143.28 95.815 145.268 94.9882C148.483 93.6511 152.67 91.2731 156.243 91.4646C154.068 94.1398 151.353 96.2874 148.865 98.6509C146.58 100.822 143.135 102.86 144.213 106.415C141.002 105.595 138.118 104.627 134.78 104.842C133.285 104.938 131.788 104.758 130.3 104.968C128.681 105.197 127.157 105.74 125.601 106.217C124.371 106.593 123.011 106.623 121.879 107.25C121.332 107.553 120.655 107.986 120.164 108.362C119.508 108.863 119.359 109.195 118.845 109.856C117.009 112.213 115.232 114.422 114.141 117.294ZM104.099 161.906C103.998 161.498 103.907 161.126 103.792 160.66C104.814 161.291 104.814 161.291 104.099 161.906ZM96.3755 148.913C96.2496 149.088 95.7204 149.144 95.5668 148.993C95.3754 148.806 95.8784 148.076 95.9591 147.921C96.1586 148.074 96.6175 148.577 96.3755 148.913ZM94.1877 144.184C94.3228 143.686 94.4586 143.188 94.5937 142.69C94.7599 143.152 95.509 143.662 95.5257 144.102C95.536 144.394 94.3357 144.249 94.1877 144.184ZM94.6218 144.868C95.7944 145.642 95.9172 146.555 95.952 147.891C94.5489 147.425 94.7503 146.063 94.6218 144.868ZM115.013 92.1504C114.895 92.4714 114.393 93.4722 114.025 92.7724C113.907 92.5482 114.769 92.2424 115.013 92.1504ZM114.677 91.0594C114.967 90.7974 115.551 91.1232 115.879 90.9117C116.109 90.7633 116.032 90.6126 116.14 90.5246C116.162 90.5072 116.474 89.873 116.602 89.729C116.829 89.4763 117.321 89.3186 117.596 89.09C118.364 88.4521 118.798 87.6127 119.281 86.7592C119.857 85.7401 120.041 85.6221 120.971 85.1553C121.612 84.8339 122.109 84.4402 122.63 83.8932C123.231 83.2635 123.187 82.8126 123.68 82.1242C123.924 81.7846 124.275 81.7423 124.559 81.4685C124.9 81.1408 125.073 80.6821 125.387 80.3515C125.523 80.2082 125.96 80.2086 126.042 80.0862C126.147 79.931 126.229 79.3109 126.328 79.1966C126.515 79.4512 126.704 79.7058 126.891 79.9604C127.632 78.6537 128.173 77.5742 129.412 76.7047C130.713 75.7915 131.837 74.4555 133.182 73.638C133.484 73.4543 134.1 73.3771 134.331 73.1062C134.721 72.6479 134.383 72.2405 134.668 71.8512C134.991 71.4103 135.618 71.7673 136.028 71.5773C136.548 71.3365 136.697 70.6336 137.366 70.7108C135.165 73.3222 135.193 77.385 135.076 80.6465C135.025 82.0518 135.908 82.7603 134.605 83.7915C133.496 84.6688 131.933 84.4083 130.623 84.9857C128.977 85.7108 127.217 86.0964 125.538 86.7284C123.801 87.3819 122.404 88.5259 120.733 89.283C119.259 89.9502 118.252 90.8987 116.904 91.7225C116.403 92.0287 115.627 92.4733 115.029 92.1074C114.655 91.878 114.188 91.5014 114.677 91.0594ZM139.54 69.1649C139.635 68.7941 141.514 67.8189 141.976 67.5009C142.67 67.0225 143.697 65.8551 144.471 66.3189C144.74 65.2413 145.787 64.0423 146.712 63.8141C147.738 63.5602 149.498 62.6781 150.508 61.9077C150.803 61.6829 150.9 61.3541 151.247 61.1433C151.852 60.7755 152.451 60.9763 153.033 60.4753C153.122 60.3989 153.927 59.0655 153.959 59.0785C154 59.2214 154.038 59.3661 154.07 59.5116C154.681 59.1717 155.226 58.9015 155.607 58.4681C155.693 58.3697 155.133 58.1141 155.31 57.9192C155.526 57.6806 156.009 57.9474 156.228 57.7211C155.548 61.1069 156.054 65.4651 159.48 67.1817C155.406 67.623 151.427 66.395 147.302 67.1491C145.328 67.5105 143.321 68.1032 141.525 69.0138C140.425 69.5719 139.017 71.5703 137.922 70.5999C138.357 70.0187 139.02 69.6577 139.54 69.1649ZM159.308 59.424C160.832 57.5556 163.143 56.8163 165.47 57.4854C168.195 58.2688 167.046 60.1777 166.634 62.2974C165.848 61.1414 164.145 59.9951 162.695 59.9602C160.638 59.9113 161.415 61.6291 162.65 62.2447C163.773 62.8036 165.698 62.9594 166.502 63.9766C167.284 64.9659 166.984 66.5843 167.11 67.7514C166.502 67.6604 165.894 67.5699 165.286 67.4794C165.796 64.7559 163.55 64.6242 161.456 63.856C159.339 63.0808 157.575 61.5504 159.308 59.424ZM166.133 52.7176V55.2451C165.286 54.7609 164.439 54.2766 163.591 53.7923C164.439 53.4342 165.286 53.0757 166.133 52.7176ZM172.943 72.9133C175.772 73.6822 178.582 74.4952 181.301 75.5558C182.289 75.941 183.371 76.0772 184.339 76.5121C185.26 76.9259 185.399 76.8829 185.071 77.6926C184.152 79.9615 181.977 79.5696 180.072 79.2226C177.088 78.6793 174.167 77.926 171.221 77.2172C168.342 76.5251 165.402 76.0713 162.566 75.2033C159.656 74.3134 156.82 73.4703 153.826 72.8825C152.953 72.711 146.042 72.0753 146.094 71.3513C150.447 70.7843 154.928 71.3428 159.299 71.4018C163.843 71.463 168.536 71.7158 172.943 72.9133ZM169.103 64.1373C169.157 62.5772 169.179 61.0123 169.372 59.4619C170.667 61.0642 171.836 61.5437 173.468 60.0419C175.031 58.6039 175.379 57.8543 177.36 59.2062C179.078 60.3785 180.703 60.3243 182.527 59.2982C183.639 58.6722 185.428 56.1146 186.597 56.6412C187.154 56.892 187.563 57.9036 188.125 58.2758C188.831 58.7419 189.917 59.0655 190.74 59.2466C192.684 59.6734 193.841 58.4202 195.061 57.0794C196.83 55.1357 196.779 56.2645 198.419 57.6127C200.248 59.116 201.778 58.3816 203.434 57.0984C204.443 60.063 204.821 63.3005 205.106 66.4084C205.202 67.4578 205.562 68.9478 204.621 69.69C203.959 70.2132 202.553 70.2336 201.754 70.5227C198.903 71.5566 196.162 73.0235 193.777 74.9012C192.848 75.6327 192.038 76.5285 190.768 76.3618C189.558 76.203 188.382 75.1873 187.408 74.5164C186.352 73.7894 185.283 72.9634 184.049 72.5578C183.326 72.3203 182.168 72.4064 181.535 71.9711C180.359 71.1613 181.743 69.0379 181.45 67.6126C181.229 66.5305 180.607 64.2742 179.121 64.9084C176.909 65.8521 178.196 69.5363 179.413 70.6863C176.924 70.2433 174.169 69.5961 171.769 68.7741C169.915 68.1388 169.036 66.0402 169.103 64.1373ZM210.84 71.7354C215.948 70.2971 220.729 69.3274 226.045 69.0654C228.398 68.9493 230.677 69.0227 233.004 69.0439C234.343 69.0561 235.364 67.9729 234.294 66.7268C232.813 65.0016 228.294 65.6584 226.293 65.5808C220.927 65.373 216.007 65.9846 210.924 67.758C211.462 66.7654 212.753 66.6366 213.638 66.1234C214.723 65.4933 215.461 64.4553 215.925 63.3034C217.131 60.308 215.917 57.4851 214.655 54.7482C217.134 55.4169 219.699 56.8813 222.191 57.2531C222.714 57.331 223.049 57.281 223.511 57.4717C223.795 57.5886 223.885 57.9931 224.236 58.0814C224.406 58.1245 224.814 57.7393 225.006 57.7938C225.765 58.009 225.165 58.0662 225.645 58.3775C226.026 58.6247 225.995 58.9431 226.694 58.8262C227.004 58.775 227.34 58.2944 227.503 58.2814C227.711 58.2643 227.663 58.0105 227.981 58.0847C228.56 58.2194 228.509 58.9672 228.702 59.3353C228.907 59.7272 228.615 60.2482 229.24 60.4623C229.706 60.623 229.824 60.1284 230.221 60.164C230.462 60.1855 230.962 60.534 231.175 60.7459C231.861 61.4294 232.8 62.1838 233.723 62.6288C233.632 62.5371 234.157 62.3171 234.032 62.2655C233.947 62.231 234.499 62.3646 234.491 62.3627C235.023 62.4841 235.305 63.3038 235.574 63.6029C236.069 64.1506 236.838 64.7292 237.531 64.9711C238.731 65.3894 238.694 64.8891 239.132 66.3186C239.985 64.9741 240.312 67.2255 241.37 67.4734C241.917 67.6018 241.854 67.3665 242.351 67.6541C242.693 67.8512 242.921 68.4546 243.178 68.7459C243.289 68.3258 243.399 67.9054 243.51 67.486C244.271 68.9329 245.916 71.2274 247.719 70.8125C247.719 71.2074 247.556 71.6794 247.861 72.0163C248.074 72.252 248.419 71.9844 248.586 72.1214C248.731 72.2409 249.079 72.7166 249.191 72.7949C249.41 72.9493 249.808 73.0621 249.999 73.2157C250.167 73.3512 250.25 73.998 250.436 74.2314C250.786 74.6708 251.392 74.758 251.678 75.2849C251.744 74.7654 251.809 74.2455 251.874 73.726C252.442 74.1661 252.491 74.5079 252.63 75.1513C252.829 76.0679 252.565 75.8531 253.196 76.2401C253.816 76.6205 254.139 76.5778 254.707 77.238C255.263 77.8852 255.269 78.2841 256.072 77.6098C256.222 78.1086 256.27 78.7535 256.669 79.1358C256.97 79.4249 258.218 79.4371 258.337 80.1192C255.993 78.136 257.535 81.1482 258.338 80.1244C258.508 81.2202 259.308 81.5742 260.222 82.355C261.074 83.082 261.213 83.0293 261.504 84.2513C261.497 84.2246 261.932 84.4947 261.964 84.5489C261.133 84.6677 262.42 85.5976 262.638 85.768C262.797 85.8919 263.004 85.5954 263.267 85.7962C263.569 86.0262 263.815 86.5487 264.06 86.8638C264.725 87.7181 265.218 88.4521 265.918 89.1464C266.673 89.896 267.041 90.8438 267.766 91.7199C268.571 92.6929 269.007 93.8118 269.68 94.8679C270.319 95.8725 271.169 96.6789 271.91 97.5988C273.091 99.0628 273.493 102.286 275.695 102.371C275.566 102.505 275.745 103.504 275.766 103.689C275.87 104.596 275.801 105.469 276.337 106.291C276.459 105.354 276.949 105.715 277.373 106.207C278.08 107.027 277.46 106.82 277.497 107.651C277.542 108.657 277.656 107.879 278.039 108.758C278.338 109.446 278.502 109.893 278.663 110.656C277.419 110.756 276.85 109.737 276.39 108.749C276.198 108.336 276.131 107.658 275.791 107.335C275.429 106.991 274.932 106.964 274.56 106.581C273.846 105.844 273.536 104.696 272.695 103.979C271.744 103.169 271.533 102.786 270.747 101.818C269.878 100.747 268.677 99.995 267.765 98.9592C266.852 97.9213 266.926 98.4879 265.778 98.1124C264.558 97.7124 262.585 93.8656 261.048 95.3474C261.108 94.3781 259.661 93.4663 258.929 93.1152C258.613 92.9635 258.244 93.1008 257.928 92.8733C257.584 92.6265 257.56 92.1508 257.214 91.8546C257.214 91.8546 256.683 91.9838 256.575 91.9292C256.356 91.8179 256.354 91.4238 256.161 91.2943C255.625 90.9351 254.986 90.5588 254.418 90.253C253.036 89.5097 251.814 88.5946 250.481 87.6999C249.338 86.9332 247.955 85.5486 246.635 85.1445C245.482 84.7916 244.757 84.9716 243.812 84.2647C243.298 83.8798 243.449 83.7503 242.622 83.511C241.835 83.2831 241.393 83.4004 240.976 82.5636C240.247 81.0992 240.707 78.2411 240.566 76.599C240.416 74.8563 240.238 73.0703 239.785 71.3758C239.249 69.373 238.541 68.3262 236.399 68.7978C232.153 69.7334 227.96 70.6236 223.695 71.4449C215.197 73.0817 206.845 75.7525 198.534 78.1238C197.901 78.3049 194.37 79.1154 195.091 77.2844C195.423 76.4398 197.659 76.1251 198.407 75.8598C202.515 74.4021 206.641 72.917 210.84 71.7354ZM209.412 68.0085C208.792 68.2457 208.171 68.4828 207.551 68.7203V66.9899C208.171 67.3294 208.792 67.6686 209.412 68.0085ZM206.833 58.8588C207.372 59.3008 208.469 58.2373 208.927 58.0217C209.711 57.6539 210.708 57.3381 211.583 57.4134C213.197 57.5537 214.377 59.1468 214.081 60.7618C213.581 63.4945 209.698 64.7867 207.556 65.8551C207.488 64.8865 207.175 63.7224 207.853 62.8848C208.441 62.1575 209.581 62.2102 210.124 61.4365C211.489 59.4923 207.788 59.316 206.961 60.862C206.635 59.8738 206.309 58.8859 205.982 57.8981C206.77 57.7671 206.424 58.5241 206.833 58.8588ZM210.652 53.5099C209.882 54.0094 209.111 54.5089 208.341 55.0084C207.959 53.2794 209.261 53.052 210.652 53.5099ZM280.859 113.683C279.85 114.166 279.598 113.013 278.872 112.963C279.73 112.435 279.73 112.435 280.859 113.683ZM284.963 138.86C285.089 140.517 284.99 142.193 285.21 143.844C285.378 145.1 285.885 146.268 285.939 147.538C286.058 150.319 285.121 153.152 283.229 155.19C281.44 157.119 278.88 158.779 276.464 159.59C275.376 159.955 274.24 160.764 273.183 161.063C272.013 161.395 270.902 160.674 269.937 161.966C269.294 156.422 269.764 150.628 269.713 145.048C269.662 139.456 269.722 133.862 268.779 128.331C267.939 123.404 266.282 117.862 263.229 113.832C261.989 112.195 260.462 110.855 258.852 109.6C258.016 108.949 257.18 108.253 256.25 107.739C254.817 106.947 253.598 107.057 252.04 106.832C249.811 106.509 247.738 106.236 245.5 106.865C243.417 107.452 241.123 108.119 239.257 109.137C237.399 110.152 235.24 110.57 233.311 111.478C231.999 112.097 229.272 114.162 227.816 113.79C226.406 113.43 224.32 111.031 223.42 109.957C222.269 108.584 221.318 106.992 220.297 105.515C219.939 104.996 219.208 104.194 219.116 103.528C218.954 102.372 219.416 102.75 220.517 102.879C223.35 103.212 226.013 103.739 228.728 104.633C230.079 105.077 232.72 106.877 234.071 105.798C236.134 104.152 233 101.323 231.852 100.372C229.896 98.7525 227.622 97.5498 225.537 96.1104C223.322 94.5811 220.393 92.9527 218.968 90.5977C223.13 91.8298 227.289 93.241 231.33 94.8293C233.179 95.5559 235.007 96.3237 236.743 97.29C237.718 97.8326 239.689 99.3006 240.864 98.5974C243.417 97.0693 237.553 92.6306 236.706 91.7236C235.391 90.3142 234.103 88.9182 232.658 87.6394C231.683 86.7766 230.152 86.1699 229.698 84.8974C231.316 85.4848 232.625 86.6352 234.14 87.4167C234.933 87.8264 235.657 88.0621 236.533 88.1875C237.467 88.3215 237.579 88.4706 238.315 88.8428C238.888 89.1334 239.476 89.5212 240.12 89.7186C240.578 89.8596 241.379 89.8838 241.78 90.1446C241.985 90.4374 242.196 90.7258 242.415 91.0089C242.659 91.0809 242.9 91.1637 243.137 91.2583C243.493 91.576 243.704 92.0142 244.049 92.3419C246.559 94.7214 249.916 96.4243 252.729 98.4178C255.391 100.304 258.216 102.01 260.773 104.068C263.715 106.437 266.768 108.983 269.271 111.824C270.685 113.429 271.847 115.249 273.035 117.024C273.896 118.31 275.146 119.376 275.89 120.702C277.511 123.591 278.856 126.715 280.601 129.558C282.379 132.455 284.696 135.333 284.963 138.86ZM261.048 155.626C261.532 153.621 264.268 151.279 266.016 150.395C265.135 152.58 262.788 154.07 261.048 155.626ZM265.558 162.622C264.067 165.723 257.512 166.078 258.401 161.488C258.837 159.24 260.686 157.86 262.274 156.388C263.008 155.708 264.806 153.275 265.942 153.667C265.889 155.416 265.786 157.173 265.79 158.922C265.792 160.09 266.086 161.524 265.558 162.622ZM263.663 126.876C264.268 128.238 264.871 129.373 263.748 130.591C263.242 131.141 261.592 132.344 260.846 132.077C258.449 131.22 263.018 127.489 263.663 126.876ZM249.17 114.757C249.747 114.725 250.307 114.811 250.878 114.776C251.446 114.741 251.506 114.64 252.032 114.712C252.088 114.793 252.143 114.874 252.199 114.955C252.271 115.498 252.556 115.557 253.053 115.132C253.744 115.286 254.194 115.389 254.855 115.764C253.07 117.054 250.899 118.554 248.711 118.987C245.254 119.671 246.209 114.92 249.17 114.757ZM196.165 143.766C195.807 144.489 194.776 142.682 194.52 142.346C194.996 142.344 196.528 143.036 196.165 143.766ZM223.946 124.731C226.632 123.159 229.823 121.779 232.708 120.609C233.215 123.06 230.741 126.223 229.217 127.9C227.985 129.257 226.499 130.663 224.828 131.444C223.022 132.288 221.048 131.917 221.135 129.549C221.167 128.684 221.364 127.291 221.715 126.501C222.168 125.481 223.025 125.269 223.946 124.731ZM187.633 80.1515C188.033 80.1281 192.376 79.5651 192.354 80.1069C192.285 81.7357 188.069 80.4569 187.633 80.1515ZM156.92 111.597C159.214 108.759 162.918 105.696 162.972 101.73C163.052 95.8933 156.592 98.8052 153.344 99.0479C155.061 97.3561 163.691 90.2582 158.587 87.7374C157.119 87.0126 155.034 87.7207 153.562 88.1003C150.949 88.7738 148.521 89.9405 145.954 90.7521C147.788 88.795 150.956 86.5706 150.853 83.6067C150.726 79.9986 147.772 80.871 145.218 81.4002C144.236 81.6039 139.851 83.3529 139.027 82.1654C138.726 81.7305 139.214 81.1779 139.317 80.7905C139.5 80.1054 139.443 79.8661 139.45 79.1662C139.462 77.7542 140.398 75.9407 139.635 74.6274C139.46 74.9257 139.311 75.2363 139.187 75.5588C138.935 74.7947 139.104 73.9839 138.852 73.2198C145.229 74.8548 151.716 75.7499 158.133 77.1456C161.381 77.8522 164.439 79.0686 167.731 79.6163C171.053 80.1682 174.316 81.0131 177.643 81.5397C180.679 82.0195 183.587 82.8193 186.593 83.4323C189.524 84.0301 192.529 82.7202 195.389 82.0567C201.796 80.5712 208.2 79.0493 214.615 77.608C222.017 75.944 229.717 74.5212 236.803 71.7462C236.94 75.4449 237.235 79.1365 237.686 82.81C234.557 81.3267 229.913 79.3926 226.75 82.0466C225.483 83.1083 225.093 84.9419 225.594 86.5009C226.139 88.1983 227.807 88.9865 228.907 90.2641C225.557 89.4028 216.915 83.3317 215.377 89.4685C214.29 93.8029 219.59 96.6024 222.181 99.042C219.608 98.5369 216.162 96.474 214.65 99.7894C213.345 102.656 214.918 105.774 216.529 108.138C217.402 109.419 218.384 110.625 219.312 111.865C219.803 112.522 220.282 113.188 220.798 113.825C221.315 114.464 222.291 115.133 222.654 115.821C223.383 117.207 221.91 117.292 220.765 117.793C219.335 118.419 218.107 119.469 216.799 120.306C213.805 122.223 211.187 124.004 207.649 124.617C204.005 125.247 200.497 125.906 196.902 126.786C193.317 127.663 190.392 128.505 186.728 127.372C185.057 126.855 183.697 126.396 181.925 126.493C180.064 126.595 178.976 126.498 177.446 125.343C170.862 120.371 163.716 116.291 156.92 111.597ZM145.051 106.606C147.595 105.326 150.157 104.04 152.785 102.94C154.961 102.029 158.265 100.968 160.646 101.367C159.975 103.096 158.75 104.515 157.436 105.788C156.273 106.914 154.821 108.614 153.415 109.4C152.138 110.113 150.652 108.983 149.393 108.51C148.009 107.99 146.104 107.747 145.051 106.606ZM145.69 113.064C146.958 112.536 149.683 114.308 150.837 114.769C153.103 115.676 155.382 116.622 157.38 118.051C154.941 120.878 152.178 123.461 148.896 125.276C146.737 126.471 143.097 127.841 141.06 125.672C138.501 122.947 141.577 117.395 143.389 115.059C143.449 115.459 143.51 115.858 143.57 116.258C144.148 115.33 144.589 113.523 145.69 113.064ZM192.242 137.252C190.66 137.586 190.122 137.284 189.078 136.067C188.372 135.246 187.679 134.392 186.882 133.652C186.07 132.898 184.064 131.079 186.62 132.126C188.95 133.081 190.946 133.558 193.509 133.184C196.44 132.757 199.173 131.514 202.062 130.886C200.478 132.275 198.905 133.679 197.318 135.065C195.641 136.529 194.372 136.802 192.242 137.252ZM192.604 148.43C189.137 151.046 182.158 150.763 184.507 145.008C184.863 144.133 185.363 143.311 185.94 142.566C186.133 142.317 186.476 141.802 186.75 141.635C187.517 141.169 187.304 141.112 188.042 141.89C188.677 142.561 193.648 148.04 192.604 148.43ZM191.576 138.43C191.893 138.326 193.231 137.548 193.536 137.979C193.845 138.414 191.222 139.922 191.576 138.43ZM216.814 178.323C216.034 180.194 209.796 182.901 210.958 179.131C211.473 177.461 211.958 176.197 213.9 176.07C215.021 175.997 217.5 176.677 216.814 178.323ZM228.004 152.981C229.031 151.482 232.423 149.455 233.871 151.691C234.568 152.768 232.875 153.32 231.852 153.043C231.302 152.893 230.852 152.564 230.255 152.539C229.486 152.508 228.735 153.112 228.004 152.981ZM230.727 154.47C230.028 155.178 225.817 158.732 225.135 158.184C226.51 156.212 228.089 154.011 230.727 154.47ZM223.848 190.428C222.386 190.511 223.116 188.301 223.258 187.417C223.611 188.033 225.473 190.335 223.848 190.428ZM227.564 186.467C227.091 185.623 225.817 184.366 226.104 183.28C226.325 182.45 228.315 181.334 229.148 181.81C230.255 182.443 228.651 186.607 227.564 186.467ZM262.267 177.616C261.642 179.777 260.993 179.219 259.032 179.638C257.063 180.058 255.703 181.734 253.97 182.632C254.572 181.357 254.946 179.802 255.953 178.767C256.186 178.528 257.614 178.056 256.801 177.502C256.089 177.018 255.067 178.589 254.761 179.017C253.26 181.123 252.211 183.696 251.344 186.12C250.918 187.311 250.577 188.524 250.375 189.774C250.195 190.888 250.389 192.054 250.206 193.139C249.911 194.887 247.543 194.896 246.119 195.346C244.83 195.754 243.547 196.197 242.209 196.416C241.049 196.607 239.845 196.26 238.721 196.489C237.504 196.737 236.957 197.461 235.574 197.297C234.446 197.164 233.39 196.644 232.247 196.592C231.177 196.544 230.11 196.915 229.046 196.613C227.973 196.308 228.025 196.19 228.269 195.132C228.421 195.418 228.574 195.703 228.727 195.988C229.155 195.651 229.451 194.626 229.713 194.144C230.12 193.399 230.451 193.141 230.301 192.212C230.078 190.839 228.844 189.863 228.565 188.558C228.273 187.197 229.277 186.083 229.87 184.946C230.682 183.39 230.671 182.236 229.991 180.627C230.504 180.763 231.016 180.899 231.529 181.035C230.826 179.505 228.443 180.125 227.248 180.578C226.647 180.806 225.695 181.701 225.049 181.678C224.16 181.647 223.697 180.476 223.316 179.831C222.211 177.966 220.95 176.124 219.643 174.392C219.284 173.915 218.813 173.609 218.937 173.066C219.043 172.606 220.073 171.953 220.407 171.669C221.66 170.606 223.256 170.017 224.433 168.899C226.212 167.209 228.263 165.998 230.082 164.341C231.977 162.616 233.93 161.031 235.904 159.4C237.904 157.748 239.637 155.802 241.622 154.133C242.137 155.068 243.134 158.415 244.273 158.674C245.602 158.975 245.563 157.399 245.497 156.45C245.402 155.098 244.654 153.785 244.57 152.494C244.481 151.114 245.805 150.497 246.805 149.699C248.349 148.465 251.766 145.657 249.929 143.344C248.347 141.353 243.201 145.171 241.783 146.319C240.578 147.295 239.647 148.177 238.29 148.947C237.335 149.488 235.735 151.568 234.603 151.376C233.258 151.148 232.733 149.674 231.087 149.723C229.478 149.77 228.112 150.932 227.115 152.098C224.86 154.734 224.085 158.261 222.03 161.009C221.017 162.363 219.703 163.482 218.604 164.764C217.398 166.171 217.141 167.791 215.951 169.168C212.546 164.62 208.836 160.313 205.246 155.914C203.452 153.717 201.696 151.495 199.942 149.267C199.284 148.432 198.542 147.649 197.94 146.772C197.115 145.571 197.263 144.607 196.94 143.267C196.796 142.674 196.124 141.963 196.304 141.395C196.546 140.633 198.246 140.034 198.859 139.723C201.362 138.449 203.632 136.856 205.967 135.3C210.289 132.418 214.662 129.715 219.259 127.254C219.18 128.314 218.491 129.413 218.953 130.477C219.169 129.865 219.51 127.138 220.325 127.021C220.169 127.044 220.297 130.518 220.423 131.014C220.799 132.495 221.891 133.507 223.453 133.497C226.427 133.478 229.093 130.234 230.744 128.085C231.862 126.629 232.936 124.937 233.329 123.116C233.683 121.481 233.294 120.344 234.989 119.513C238.468 117.81 241.974 116.422 245.694 115.519C245.527 117.126 245.063 119.105 246.52 120.261C248.128 121.537 250.233 120.4 251.747 119.556C253.247 118.72 255.56 116.423 257.322 117.09C259.055 117.746 260.261 119.925 261.231 121.372C262.085 122.648 263.016 123.567 262.026 124.989C260.916 126.582 260.194 128.137 259.305 129.867C258.964 130.533 258.637 130.966 258.879 131.648C258.957 131.869 259.848 133.186 260.09 133.375C261.634 134.579 263.718 132.288 264.819 131.419C265.208 135.164 265.295 138.892 265.452 142.648C265.567 145.399 266.629 148.107 264.377 150.118C262.126 152.129 260.247 154.193 258.875 156.915C258.142 158.369 257.485 159.862 256.692 161.286C256.162 162.237 255.045 163.633 255.729 164.752C256.45 164.066 256.665 163.022 257.266 162.249C257.626 163.855 257.989 165.637 259.683 166.318C261.633 167.101 263.571 165.745 265.298 164.991C264.678 169.285 263.471 173.458 262.267 177.616ZM260.274 182.551C258.936 185.419 257.728 188.876 255.257 190.988C254.714 191.451 252.409 193.261 251.532 192.958C250.787 192.7 251.197 191.192 251.326 190.545C251.985 187.264 253.124 185.199 255.778 183.106C256.876 182.239 258.286 181.132 259.702 180.918C261.227 180.688 260.788 181.45 260.274 182.551ZM298.016 250.612C294.547 245.882 289.644 242.207 285.01 238.653C282.911 237.044 280.598 235.836 278.478 234.226C276.08 232.406 273.645 230.65 270.96 229.278C265.868 226.677 260.314 224.864 255.509 221.788C253.166 220.288 250.603 218.838 248.4 217.154C247.432 216.414 246.577 215.468 245.703 214.621C244.89 213.833 243.146 212.69 242.823 211.538C244.175 211.316 244.943 210.001 246.15 209.867C246.548 209.822 249.039 210.483 248.698 209.271C249.602 209.249 249.707 209.235 250.464 209.037C250.778 208.955 251.149 209.083 251.466 208.971C251.952 208.799 252.281 208.303 252.771 208.113C253.12 207.978 254.413 208.129 254.609 207.961C255.144 207.502 254.576 207.543 254.256 206.97C255.297 206.943 256.011 207.47 257.054 206.91C257.372 206.739 257.64 206.346 257.948 206.142C258.494 205.78 258.691 206.342 259.065 205.59C259.415 206.626 259.405 206.34 260.248 206.035C261.088 205.731 261.695 205.512 262.651 205.436C264.936 205.255 267.229 205.533 269.504 205.371C270.336 205.311 271.047 205.121 271.874 205.231C272.601 205.327 272.382 205.834 272.987 205.15C273.128 204.991 272.673 204.557 272.891 204.328C272.987 204.227 273.3 204.298 273.419 204.246C274.483 203.781 274.487 204.431 274.676 205.278C275.3 205.132 275.936 204.999 276.478 204.633C276.204 204.388 275.746 204.117 276.01 203.67C276.91 204.012 277.498 203.854 277.048 204.844C277.953 205.144 278.122 204.753 278.935 204.667C279.416 204.617 280.087 204.916 280.487 204.531C280.925 204.111 280.235 203.654 281.038 203.293C281.203 203.377 281.325 203.504 281.405 203.673C281.839 203.805 281.76 203.976 281.171 204.187C282.751 205.008 282.379 204.09 283.043 203.119C283.196 202.895 283.882 202.2 284.195 202.536C284.669 203.045 283.701 203.207 283.909 203.713C284.268 204.591 285.523 203.466 285.909 203.021C286.2 202.686 286.319 202.041 286.633 201.79C287.07 201.442 287.698 201.98 288.244 201.884C290.741 201.445 293.098 198.08 291.217 195.827C290.712 195.222 290.284 195.342 289.682 194.96C289.087 194.583 288.753 193.929 288.275 193.39C287.184 192.158 285.849 191.236 284.324 190.646C280.786 189.278 276.975 188.28 273.26 187.546C271.54 187.206 269.709 186.685 267.948 186.689C266.91 186.691 265.347 187.5 264.377 187.113C262.491 186.359 265.26 182.502 265.717 181.256C267.059 177.595 268.072 173.693 268.736 169.85C268.866 169.098 268.816 168.124 269.086 167.407C269.396 166.584 269.463 166.7 270.126 166.633C271.325 166.512 272.637 167.142 273.885 166.924C275.269 166.683 276.765 166.795 278.162 166.366C278.804 166.169 279.4 165.955 279.823 165.411C279.956 165.241 279.807 165.092 279.892 164.973C279.918 164.935 280.395 164.419 280.411 164.389C280.406 164.122 280.429 163.856 280.481 163.594C280.965 163.997 280.726 164.842 281.542 164.862C281.688 163.961 281.689 163.779 282.279 163.272C282.234 163.311 282.724 162.894 282.661 162.938C282.69 162.778 282.749 162.628 282.837 162.489C283.113 162.356 283.404 162.285 283.711 162.277C284.348 161.619 284.084 161.268 284.084 160.383C284.598 160.651 285.113 160.92 285.627 161.188C285.752 158.565 287.344 157.13 288.402 155.005C288.853 154.099 289.312 153.392 289.42 152.299C289.482 151.669 289.32 151.113 289.58 150.52C289.816 149.981 290.344 149.691 290.565 149.104C290.999 147.949 290.675 146.474 290.699 145.275C290.732 143.612 290.898 141.954 290.952 140.291C291.058 137.028 290.731 133.674 290.244 130.448C290.011 128.905 289.621 127.408 289.315 125.881C289.064 124.626 288.461 123.449 288.246 122.282C288.156 121.796 288.295 121.361 288.149 120.824C287.957 120.119 287.635 119.426 287.396 118.733C286.838 117.115 286.287 115.5 285.659 113.907C284.442 110.821 283.019 107.827 281.666 104.799C280.364 101.888 279.287 98.8865 277.601 96.1679C275.941 93.4904 274.153 90.8579 272.324 88.2951C270.418 85.6258 268.008 83.3325 266.16 80.6387C262.689 75.5811 257.849 71.4133 252.784 67.9718C242.334 60.8698 231.041 53.7789 218.51 51.3438C216.621 50.9772 214.709 50.7226 212.784 50.6751C211.59 50.6454 209.611 51.2243 208.48 50.8191C207.214 50.3652 207.33 48.9391 207.013 47.8203C206.605 46.3823 205.685 45.4401 204.641 44.4233C203.542 43.3534 202.544 42.1032 201.173 41.3755C199.784 40.6385 198.145 40.3628 196.606 40.1401C195.232 39.9409 193.178 40.1268 191.923 39.5263C190.779 38.9793 191.344 38.4097 192.415 38.878C192.493 38.4045 192.556 38.0987 192.859 37.7328C193.011 37.5488 193.729 37.2909 193.746 37.1194C193.767 36.9184 193.164 36.3461 193.078 36.0869C192.893 35.5289 192.998 34.756 193.218 34.2323C194.298 35.1945 194.61 35.6207 195.816 34.7009C196.325 34.3125 196.481 34.1413 197.071 33.9454C197.231 33.8922 197.589 34.0565 197.729 33.9643C198.261 33.6126 197.771 33.6955 198.024 33.2798C197.961 33.3847 198.408 32.2798 198.387 32.5108C198.441 31.9223 198.615 32.1032 198.261 31.3801C197.566 29.9656 195.799 29.9077 196.7 28.2934C197.054 27.6582 197.366 27.7215 197.466 26.8005C197.52 26.3054 197.453 25.7377 197.451 25.234C197.446 24.204 197.64 23.4828 196.677 22.9583C195.752 22.4539 194.898 23.0073 194.523 21.7563C194.129 20.4436 194.526 18.7606 193.107 17.8616C192.071 17.2049 190.574 17.7664 189.429 17.4451C188.281 17.1235 187.226 15.9461 186.061 16.8501C185.234 17.4926 184.795 19.0722 183.235 18.218C182.531 17.8327 182.144 16.5393 181.7 15.8139C180.993 14.6577 180.426 14.24 179.338 15.3661C178.667 16.0607 177.253 17.7513 177.166 18.7128C177.072 19.7741 177.995 20.2176 176.836 20.8454C175.682 21.4701 175.035 21.012 174.099 22.28C173.17 23.538 173.889 24.2329 172.814 25.4365C171.469 26.9409 170.753 27.5903 170.772 29.6173C170.785 31.0076 169.56 32.2084 170.275 33.5274C171.075 35.0056 173.413 35.6203 174.83 36.2219C174.357 37.0985 173.708 37.6605 174.26 38.5626C174.761 39.3798 176.175 39.5497 177.052 39.4013C177.641 39.3018 177.662 39.3913 178.127 38.9753C178.431 38.7033 178.014 38.3633 178.64 38.2127C179.306 38.0512 180.371 39.3612 180.803 39.6885C179.836 40.9469 177.18 41.1822 175.775 41.8201C174.919 42.209 174.132 42.7845 173.26 43.1323C172.469 43.4477 171.506 43.3746 170.789 43.8626C169.55 44.7057 169.035 46.7942 168.276 48.0222C167.416 49.4123 166.583 50.0576 164.934 50.3463C162.877 50.7059 161.221 50.8506 159.303 51.7487C156.96 52.8456 154.651 54.0038 152.35 55.1861C148.64 57.0932 145.192 59.0507 141.747 61.357C138.142 63.7706 134.635 66.2896 131.157 68.8112C127.716 71.3053 124.828 74.3735 121.839 77.3898C119.423 79.8279 117.303 82.4593 114.897 84.8966C112.056 87.7748 109.966 91.4071 107.332 94.4605C105.891 96.1304 104.512 97.7728 103.608 99.7404C102.875 101.336 101.6 102.901 100.749 104.574C99.6621 106.713 98.6332 108.819 97.4125 110.887C96.9118 111.736 96.3166 112.464 95.7881 113.275C95.1108 114.312 95.1507 115.315 94.9686 116.511C94.7784 116.219 94.5885 115.927 94.3983 115.636C94.0533 116.391 93.6366 117.134 93.3379 117.907C93.1473 118.4 93.1773 119.1 92.9859 119.532C92.7457 120.074 92.4533 120.002 92.1539 120.453C91.8337 120.935 91.7305 121.584 91.3933 122.101C89.9347 124.338 89.3736 127.176 88.6241 129.728C87.6189 133.153 87.7773 137.088 87.832 140.619C87.8902 144.348 88.0933 148.077 88.6526 151.767C89.1593 155.109 90.2422 158.314 91.9378 161.244C93.4153 163.797 95.4524 165.284 98.0621 166.592C99.2605 167.193 100.373 167.007 101.63 167.103C103.008 167.208 103.948 167.583 105.406 167.253C106.105 167.095 106.436 166.584 106.992 166.414C107.336 166.309 107.521 166.481 107.851 166.441C108.324 166.383 109.306 166.151 109.818 166.207C111.412 166.381 111.145 168.798 111.302 170.031C111.543 171.931 111.719 173.852 112.045 175.74C112.729 179.711 114.207 183.421 115.08 187.324C111.033 187.819 107.561 188.577 103.767 190.112C99.9612 191.653 96.113 192.176 92.1076 192.942C88.3606 193.659 84.7564 194.998 81.7569 197.423C80.3512 198.56 78.8908 199.89 79.923 201.761C80.5833 202.958 81.7732 203.263 82.8003 203.958C83.0079 203.695 82.4076 203.137 82.2977 202.982C83.1612 203.16 83.1349 203.564 83.7656 203.916C84.3167 204.223 84.7678 204.213 85.3711 204.43C86.8442 204.96 87.5682 206.284 89.0242 206.656C89.4824 206.773 90.0816 207.053 90.5498 207.132C91.1128 207.227 91.534 206.981 92.1043 207.085C92.4119 207.288 92.745 207.434 93.1025 207.521C93.3372 207.411 93.5689 207.296 93.7972 207.175C94.6167 207.26 95.1226 207.777 95.7885 208.201C95.8329 207.666 95.7688 207.111 96.2737 206.762C96.471 207.282 96.1523 207.611 96.6904 207.969C97.3722 208.423 98.2675 207.857 98.8778 207.569C99.0507 209.298 103.043 209.197 104.309 209.172C106.061 209.138 107.812 208.441 109.58 208.83C110.482 209.028 111.444 209.235 112.342 209.493C113.423 209.802 114.73 210.08 115.794 210.47C116.218 210.625 116.736 211.123 117.186 211.09C117.545 211.063 117.641 210.533 118.059 210.548C118.531 210.565 118.69 211.093 119.098 211.251C119.711 211.489 120.273 211.037 120.855 211.265C121.064 211.347 121.347 211.698 121.614 211.813C122.021 211.987 122.824 211.989 123.276 212.072C123.917 212.191 124.491 212.111 125.04 212.151C125.482 212.183 125.473 212.481 125.684 212.501C125.927 212.522 126.351 211.685 126.677 211.562C127.152 211.383 128.015 211.81 128.5 211.884C124.988 216.657 120.753 220.876 116.163 224.57C111.212 228.554 106.142 232.534 100.832 236.029C96.0116 239.203 91.3452 241.947 87.6078 246.427C84.4562 250.204 79.4396 254.246 80.2128 259.721C80.9856 265.191 86.9101 267.418 91.6572 268.462C97.6279 269.776 103.774 269.247 109.761 269.985C112.314 270.3 115.15 270.132 117.72 269.864C120.756 269.547 123.357 267.561 125.967 266.125C130.661 263.541 134.674 260.085 139.297 257.421C145.086 254.085 150.814 250.55 157.161 248.316C160.113 247.277 163.152 246.091 165.534 243.953C165.889 243.635 166.153 243.155 166.553 242.892C167.234 242.447 167.416 242.899 167.811 242.764C168.115 242.66 168.41 242.331 168.673 242.232C169.339 241.982 169.636 242.085 170.381 242.085C169.742 241.715 169.156 240.762 169.82 239.985C170.957 238.653 171.153 240.781 171.58 241.273C171.943 240.807 171.804 240.391 171.711 239.861C172.017 240.064 172.324 240.266 172.63 240.469C172.419 239.442 172.619 238.497 173.161 237.603C173.661 236.779 173.785 236.895 173.923 235.753C175.476 237.174 175.78 233.724 175.92 232.466C176.055 231.246 175.921 230.37 176.721 229.303C177.58 228.158 178.886 227.434 179.977 226.545C181.699 225.139 183.595 223.363 185.977 224.711C187.857 225.776 188.88 228.386 190.645 229.726C191.715 230.54 192.844 230.623 193.526 231.884C194.078 232.904 194.257 234.124 194.778 235.171C196.039 237.709 197.855 240.614 199.926 242.56C201.855 244.372 204.33 244.363 206.587 245.487C208.82 246.6 211.141 247.805 213.506 248.612C216.088 249.492 218.873 249.867 221.387 250.934C222.681 251.483 223.837 252.31 225.142 252.835C226.549 253.402 228.031 253.801 229.457 254.32C235.106 256.378 240.635 258.901 246.57 260.041C249.202 260.547 251.639 261.921 254.29 262.21C255.428 262.334 256.355 262.491 257.469 262.776C259.214 263.224 258.845 263.462 259.488 264.921C260.546 267.324 263.13 265.901 265.122 265.961C268.311 266.058 271.451 265.541 274.634 265.517C280.202 265.474 285.562 264.845 290.948 263.012C296.354 261.172 302.51 256.738 298.016 250.612Z" fill="black"/>
<path fill-rule="evenodd" clip-rule="evenodd" d="M233.663 62.8626C233.739 62.9391 233.918 62.9854 233.663 62.8626V62.8626Z" fill="black"/>
<path fill-rule="evenodd" clip-rule="evenodd" d="M135.597 165.209C136.806 163.981 141.951 164.229 142.34 166.427C142.773 168.88 138.176 172.585 136.494 173.624C134.329 174.961 131.686 175.212 132.07 171.855C132.36 169.32 133.875 166.959 135.597 165.209ZM139.846 162.68C140.003 163.36 138.846 163.129 138.528 162.967C138.378 162.659 139.689 161.998 139.846 162.68ZM130.974 167.179C132 167.271 133.176 165.621 133.95 165.058C134.292 165.589 132.036 168.504 131.788 169.169C131.168 170.83 130.823 172.93 131.668 174.588C134.138 179.432 140.46 172.514 142.041 170.098C143.147 168.409 143.913 166.313 142.35 164.657C141.794 164.067 140.875 163.904 140.358 163.343C139.678 162.606 140.213 161.654 138.846 161.815C137.902 161.926 136.769 162.78 135.851 163.089C134.745 163.46 133.751 163.846 132.786 164.536C132.568 164.691 129.706 167.065 130.974 167.179Z" fill="black"/>
<path fill-rule="evenodd" clip-rule="evenodd" d="M203.498 168.805C202.853 172.133 199.564 175.547 196.103 175.679C192.656 175.811 191.54 172.19 192.149 169.305C192.668 166.844 194.789 162.568 197.816 163.039C200.196 163.409 204.05 165.952 203.498 168.805ZM201.303 163.242C199.118 161.547 196.099 160.763 193.566 162.108C192.736 162.549 189.421 164.494 190.429 165.811C191.79 164.754 192.964 163.288 194.731 162.936C194.434 164.31 192.736 165.546 192.138 166.883C191.439 168.446 191.057 170.235 191.171 171.952C191.375 175.009 193.417 177.384 196.578 176.963C199.472 176.579 202.003 174.355 203.383 171.854C205.227 168.516 204.188 165.48 201.303 163.242Z" fill="black"/>
<path fill-rule="evenodd" clip-rule="evenodd" d="M181.01 176.37C179.454 178.679 177.082 180.852 174.339 181.566C170.788 182.489 171.785 179.547 172.846 177.435C173.785 175.568 175.394 172.357 177.846 172.374C178.678 172.379 180.227 172.783 180.956 173.229C182.393 174.108 181.829 175.154 181.01 176.37ZM177.696 171.293C178.254 170.67 180.727 167.996 181.058 170.08C181.768 169.255 181.208 168.57 180.299 168.483C179.203 168.378 178.004 169.602 177.212 170.21C175.584 171.462 174.33 172.743 173.251 174.498C172.061 176.432 169.027 180.803 171.682 182.722C174.552 184.796 178.729 180.965 180.527 178.99C181.676 177.726 183.198 175.87 182.761 174.017C182.225 171.74 179.584 171.501 177.696 171.293Z" fill="black"/>
<path fill-rule="evenodd" clip-rule="evenodd" d="M165.45 134.068C163.844 135.906 160.582 138.582 157.894 138.267C155.442 137.979 156.399 135.22 157.267 133.885C158.57 131.878 160.317 129.994 162.84 129.884C163.929 129.837 165.341 129.859 166.184 130.686C167.336 131.816 166.299 133.098 165.45 134.068ZM165.279 128.964C163.398 128.312 162.659 128.064 160.831 129.1C159.362 129.932 158.06 131.108 157.053 132.443C155.545 134.442 154.024 138.938 157.896 139.5C162.143 140.117 172.245 131.379 165.279 128.964Z" fill="black"/>
<path fill-rule="evenodd" clip-rule="evenodd" d="M171.068 140.435C169.846 141.686 168.321 142.707 166.58 143.055C167.317 141.408 168.961 137.808 170.911 137.307C171.809 137.075 172.833 137.378 172.76 138.404C172.706 139.146 171.55 139.941 171.068 140.435ZM172.641 136.079C171.629 135.571 171.948 135.224 170.771 135.623C169.844 135.937 168.674 136.482 167.902 137.11C167.48 137.452 166.168 138.667 166.329 139.286C166.62 140.409 167.598 138.687 167.856 138.356C168.296 138.717 166.042 141.951 165.908 142.483C165.408 144.465 166.96 144.675 168.481 144.026C170.532 143.152 176.605 138.071 172.641 136.079Z" fill="black"/>
<path fill-rule="evenodd" clip-rule="evenodd" d="M202.71 189.417C202.862 188.103 203.077 186.713 204.28 185.976C205.363 185.31 206.486 185.407 206.646 186.771C206.796 188.038 205.558 190.288 204.556 190.979C203.162 191.941 202.893 190.741 202.71 189.417ZM204.502 192.407C207.365 190.727 209.169 183.025 203.892 185.183C200.893 186.41 201.996 193.877 204.502 192.407Z" fill="black"/>
<path fill-rule="evenodd" clip-rule="evenodd" d="M180.052 160.465C180.503 159.537 181.02 159.23 181.935 158.823C181.325 159.401 180.701 159.935 180.052 160.465ZM180.713 158.179C180.064 158.831 178.578 159.826 178.786 160.946C178.976 161.969 179.755 161.91 180.462 161.591C181.944 160.923 182.768 158 184.318 157.726C182.599 156.633 182.198 156.684 180.713 158.179Z" fill="black"/>
<path fill-rule="evenodd" clip-rule="evenodd" d="M180.94 100.11C181.023 103.223 181.095 106.337 181.164 109.451C181.188 110.545 180.927 112.105 181.255 113.154C181.399 113.615 182.707 115.617 183.172 115.746C184.795 116.199 184.215 112.118 184.226 111.113C184.266 107.722 184.216 104.328 184.203 100.937C184.195 99.1896 184.687 84.5381 182.426 84.6098C182.036 84.622 181.077 86.2971 180.932 86.633C180.478 87.6876 180.645 89.251 180.655 90.3754C180.686 93.6188 180.854 96.8666 180.94 100.11Z" fill="black"/>
<path fill-rule="evenodd" clip-rule="evenodd" d="M194.632 109.187C194.759 110.048 194.692 111.483 195.659 111.929C196.5 112.317 196.822 111.856 197.137 111.134C197.86 109.475 197.599 106.938 197.586 105.222C197.559 101.821 197.177 98.4349 196.914 95.0471C196.797 93.5605 197.038 92.0676 196.853 90.512C196.772 89.8296 196.691 87.0835 195.429 87.2115C194.288 87.3269 194.39 90.2047 194.328 90.9462C193.811 97.119 193.721 103.025 194.632 109.187Z" fill="black"/>
<path fill-rule="evenodd" clip-rule="evenodd" d="M248.492 180.069C248.008 182.548 240.117 191.181 238.131 186.353C236.952 183.488 239.507 180.37 241.499 178.712C242.733 177.685 244.273 176.678 245.954 176.989C247.381 177.253 248.798 178.495 248.492 180.069ZM244.417 175.622C243.86 175.754 239.201 179.034 239.159 178.991C238.754 178.584 241.692 174.193 241.995 173.809C244.485 170.645 246.139 173.041 247.697 175.528C247.365 174.042 246.452 171.885 244.927 171.257C243.001 170.464 241.499 172.422 240.573 173.829C239.264 175.819 238.542 177.979 237.814 180.224C237.467 181.295 237.072 182.265 236.484 183.231C235.904 184.183 234.889 185.233 235.039 186.438C235.864 185.979 236.302 185.079 236.821 184.338C237.401 184.574 237.202 186.426 237.319 186.898C237.615 188.083 238.423 189.01 239.671 189.214C241.999 189.593 244.512 187.434 246.068 185.968C247.708 184.422 249.473 182.304 249.459 179.926C249.444 177.441 247.007 175.008 244.417 175.622Z" fill="black"/>
<path fill-rule="evenodd" clip-rule="evenodd" d="M250.727 135.788C249.407 137.815 247.089 140.244 244.637 140.715C242.838 141.06 241.65 139.723 242.373 137.917C242.984 136.391 245.065 135.428 246.429 134.756C247.511 134.224 252.555 132.984 250.727 135.788ZM249.756 132.473C247.051 132.371 244.868 134.332 242.851 135.897C243.307 134.099 244.337 132.143 245.789 130.973C247.763 129.38 249.635 130.369 251.714 131.166C251.201 129.543 248.899 128.959 247.432 129.189C245.578 129.479 244.244 131.066 243.307 132.601C242.188 134.433 241.806 136.592 240.489 138.31C239.886 139.096 236.154 142.039 236.999 143.242C238.393 141.758 239.787 140.275 241.182 138.791C241.543 140.544 241.942 142.542 244.175 142.371C245.958 142.234 247.993 140.714 249.297 139.552C250.981 138.052 254.296 132.646 249.756 132.473Z" fill="black"/>
<path fill-rule="evenodd" clip-rule="evenodd" d="M211.86 149.778C210.714 150.306 208.192 151.024 207.551 149.437C206.661 147.232 209.525 143.365 210.888 141.896C211.727 140.992 212.295 140.525 213.465 141.11C214.398 141.577 215.77 142.904 216.128 143.924C216.896 146.115 213.653 148.951 211.86 149.778ZM214.489 139.189C215.423 139.4 215.537 140.589 214.37 140.132C213.496 139.79 213.292 138.919 214.489 139.189ZM215.661 140.863C215.313 139.797 216.021 138.125 214.305 138.048C213.333 138.005 211.551 138.996 210.702 139.399C209.525 139.957 208.418 140.81 207.804 142.01C207.234 143.122 207.641 143.416 208.508 142.493C208.615 142.565 206.546 147.914 206.528 148.45C206.447 150.899 208.176 152.512 210.605 152.078C212.837 151.679 214.849 149.848 216.077 148.002C216.699 147.066 217.209 145.996 217.255 144.851C217.327 143.095 216.159 142.388 215.661 140.863Z" fill="black"/>
<path fill-rule="evenodd" clip-rule="evenodd" d="M229.562 135.981C227.608 135.086 225.426 138.146 226.368 139.964C227.603 142.349 233.63 137.845 229.562 135.981ZM227.232 139.402C226.826 138.677 229.586 137.608 230.022 137.59C229.804 137.991 227.789 140.396 227.232 139.402Z" fill="black"/>
<path fill-rule="evenodd" clip-rule="evenodd" d="M96.5804 134.229C96.4712 133.455 94.7398 134.579 94.7498 135.078C95.0363 134.504 96.8077 135.843 96.5804 134.229Z" fill="black"/>
<path fill-rule="evenodd" clip-rule="evenodd" d="M191.279 75.7013C193.483 75.5388 190.674 64.3882 189.068 65.3742C187.326 66.4429 189.256 75.8501 191.279 75.7013Z" fill="black"/>
<path fill-rule="evenodd" clip-rule="evenodd" d="M195.395 70.4945C197.461 70.791 197.132 66.0362 196.022 65.1853C193.971 63.6144 192.888 70.1346 195.395 70.4945Z" fill="black"/>
</svg>
