<svg width="335" height="252" viewBox="0 0 335 252" fill="none" xmlns="http://www.w3.org/2000/svg">
<path fill-rule="evenodd" clip-rule="evenodd" d="M241.541 185.728C240.063 187.442 237.881 188.714 236.207 190.281C234.448 191.927 232.54 193.366 230.789 194.992C223.064 185.522 212.481 179.715 203.313 171.857C198.967 168.131 195.765 163.077 193.422 157.891C192.22 155.232 191.333 152.496 190.638 149.663C190.326 148.388 190.02 147.116 189.815 145.823C189.568 144.257 189.503 144.123 188.45 142.901C187.997 142.375 187.118 140.838 186.23 141.007C185.482 141.15 184.115 143.432 183.643 143.996C181.371 146.707 179.169 149.501 176.777 152.107C173.118 156.095 169.787 160.02 166.389 164.247C159.439 172.894 151.942 181.035 144.377 189.172C143.816 189.775 142.508 191.545 141.702 191.783C140.722 192.072 139.129 190.866 138.142 190.192C135.759 188.565 133.881 186.552 131.845 184.535C127.87 180.6 125.179 175.077 123.368 169.822C122.284 166.676 121.58 163.415 120.461 160.28C119.995 158.974 118.938 157.368 119.475 156.23C119.634 155.891 120.651 154.989 121.01 154.92C121.434 154.839 122.141 155.422 122.288 155.381C123.695 154.995 122.914 153.518 123.751 152.723C124.225 152.273 126.638 152.339 127.358 152.091C129.992 151.185 132.355 149.456 134.845 148.424C145.269 144.105 155.82 139.903 164.819 132.849C167.153 131.02 168.703 129.646 171.488 128.464C174.302 127.269 177.131 126.203 180.002 125.161C182.536 124.241 185.083 123.379 187.7 122.719C190.53 122.006 194.544 121.102 197.372 122.021C202.925 123.824 204.718 128.413 206.929 133.254C209.921 139.803 213.538 146.001 217.46 152.029C225.004 163.627 234.179 174.035 241.541 185.728Z" fill="#016F56"/>
<path fill-rule="evenodd" clip-rule="evenodd" d="M74.315 83.1901C74.0095 83.0346 71.6239 84.0085 71.2235 84.1574C69.6241 84.7527 68.1175 85.7416 66.6107 86.5462C67.7655 87.9558 68.9207 89.3658 70.0752 90.7757C71.2071 87.9909 72.662 85.6931 74.315 83.1901ZM75.1025 100.517C74.7096 100.561 78.0269 108.556 78.4142 109.454C79.8239 112.719 81.3039 115.953 82.7322 119.21C84.1161 122.366 85.8716 125.27 87.6401 128.218C89.1529 130.74 90.7088 134.653 92.9906 136.521C91.5499 130.11 91.7396 122.738 87.6071 117.355C83.3234 111.775 79.0881 106.326 75.1025 100.517ZM241.541 186.013C235.139 175.846 227.126 166.852 220.451 156.866C216.713 151.275 213.075 145.612 209.929 139.661C207.641 135.331 206.218 129.155 202.684 125.845C201.126 124.387 199.462 122.959 197.372 122.306C194.512 121.412 190.573 122.298 187.7 123.005C182.346 124.322 177.115 126.366 172.043 128.514C166.899 130.692 162.51 134.605 157.862 137.748C152.875 141.121 147.478 143.577 141.892 145.728C137.028 147.6 132.701 150.289 127.862 152.173C126.898 152.549 124.931 152.494 124.122 152.984C123.251 153.511 123.594 155.069 122.536 155.643C122.058 155.902 121.899 154.963 121.533 154.978C121.085 154.997 120.676 155.524 120.244 155.858C118.486 157.219 119.563 158.126 120.259 159.999C122.529 166.099 123.748 172.306 126.935 178.065C129.555 182.799 133.304 187.041 137.719 190.175C138.39 190.652 140.579 192.5 141.367 192.377C142.077 192.267 143.521 190.375 144.011 189.861C146.234 187.529 148.266 185.021 150.487 182.686C153.92 179.077 157.225 175.371 160.557 171.713C164.424 167.466 167.847 162.654 171.331 158.116C172.933 156.029 174.996 154.328 176.777 152.393C179.172 149.79 181.371 146.992 183.643 144.281C184.33 143.461 185.482 141.363 186.55 141.387C187.298 141.405 188.618 143.172 189.01 143.726C190.465 145.785 190.458 149.504 191.182 152.074C192.948 158.341 196.132 164.462 200.499 169.298C204.842 174.108 210.405 177.528 215.541 181.393C221.105 185.582 226.376 189.868 230.789 195.277C232.54 193.651 234.448 192.212 236.206 190.566C237.881 188.999 240.063 187.727 241.541 186.013ZM159.142 214.776C160.386 214.789 162.494 215.557 163.607 215.095C160.305 211.43 157.272 208.285 153.094 205.6C148.759 202.813 144.437 200.051 140.226 197.078C131.74 191.087 125.498 183.982 121.953 174.005C121.04 171.436 120.429 168.741 119.76 166.1C119.4 164.678 118.683 158.023 117.467 157.449C116.746 157.108 111.322 160.932 110.462 161.408C108.453 162.523 106.436 163.387 104.359 164.259C99.8935 166.135 95.2902 167.565 90.555 168.759C84.878 170.19 81.0111 167.822 77.4943 163.346C73.5044 158.269 70.1887 152.54 66.5407 147.208C64.8817 144.783 63.5074 142.362 62.2822 139.687C61.4804 137.937 58.3001 133.215 59.399 131.35C62.5341 133.744 63.6621 138.504 65.7977 141.71C68.4594 145.704 71.459 149.471 74.1345 153.462C76.3843 156.818 78.6795 160.886 82.0034 163.298C84.9271 165.42 87.7046 164.768 90.8511 163.814C94.6647 162.658 98.6176 162.089 102.355 160.655C106.399 159.104 110.226 156.904 114.172 155.11C116.012 154.273 118.214 153.797 119.948 152.754C121.442 151.856 121.219 151.381 121.329 149.468C121.457 147.236 121.605 145.002 121.703 142.768C121.769 141.267 120.96 139.231 121.509 138.111C117.029 138.89 112.651 139.933 108.202 140.856C105.766 141.361 103.418 141.986 100.957 142.383C100.019 142.534 98.7373 142.53 97.8975 142.94C97.2275 142.747 96.886 142.87 96.8729 143.308C96.8409 143.546 96.7901 143.78 96.7205 144.011C95.3468 144.638 94.5479 143.293 93.3564 142.004C91.8862 140.412 90.7853 138.62 89.7067 136.75C87.295 132.569 84.5152 128.637 82.2834 124.338C80.0087 119.956 78.1613 115.264 76.2328 110.718C74.4636 106.547 73.3307 102.036 71.3756 97.9633C70.5031 96.1455 69.3974 94.6423 68.1061 93.1067C67.0406 91.8395 65.4012 89.1059 63.81 88.5238C63.3893 88.3699 62.2874 88.6285 61.8095 88.5943C60.8568 88.5261 60.0079 88.1753 59.033 88.2521C56.9222 88.4178 54.621 89.7566 52.9343 90.9336C54.0243 91.9081 56.7511 93.0926 54.7925 94.8481C52.8917 96.5524 51.8419 93.4952 51.1166 92.1558C47.7012 94.9688 48.1949 98.8476 47.8003 102.822C47.5942 104.897 47.0521 106.941 46.7024 108.985C46.4505 110.456 46.6272 111.977 46.5552 113.479C46.3717 117.295 45.9892 120.948 46.0079 124.711C46.0275 128.734 46.3007 132.618 46.6216 136.611C47.1617 143.333 48.3993 150.058 49.4606 156.728C50.0576 160.476 50.8749 164.119 51.6682 167.807C52.5685 171.993 54.234 175.957 55.168 180.132C56.1197 178.919 56.8355 178.913 58.3747 179.074C59.5587 179.198 60.354 178.915 60.2846 180.563C60.2398 181.632 59.2996 182.449 58.2593 182.635C56.9026 182.878 56.4416 182.2 55.7425 181.169C55.5789 183.121 56.8875 185.161 57.4051 187.067C57.8948 188.874 58.2193 190.644 59.0424 192.373C59.8456 194.06 60.5333 195.723 61.3459 197.394C61.7202 198.162 62.0702 198.943 62.4487 199.709C62.6401 200.097 62.8655 200.632 63.1511 200.959C63.8211 201.726 63.7145 201.355 64.4986 201.792C66.207 202.743 65.5655 202.506 65.6054 204.472C65.6443 206.411 66.6356 207.835 68.2252 208.925C71.5977 211.237 74.9242 211.88 78.7584 213.049C82.3308 214.138 86.0937 215.072 89.8765 215.05C94.5096 215.025 99.0812 214.415 103.714 214.354C108.826 214.286 113.986 214.313 119.087 214.491C121.188 214.564 123.14 214.657 125.168 215.195C127.524 215.821 129.803 215.573 132.231 215.478C137.411 215.276 142.77 214.874 147.882 214.838C151.563 214.812 155.447 214.554 159.142 214.776ZM293.465 216.79C294.386 217.278 296.45 217.078 297.376 216.943C299.007 216.704 299.182 216.056 300.217 214.597C301.998 212.085 303.444 209.68 304.491 206.771C306.497 201.202 307.316 195.505 308.196 189.68C309.175 183.207 307.388 176.498 306.748 170.069C306.602 168.594 306.401 167.133 306.168 165.669C306.029 164.794 305.993 161.817 305.419 161.059C304.316 159.604 299.186 160.778 297.169 160.91C291.54 161.279 285.873 161.365 280.246 161.429C277.246 161.463 274.229 161.589 271.258 161.612C269.894 161.623 268.56 161.555 267.191 161.422C266.733 161.378 266.286 161.272 265.825 161.246C264.245 161.159 264.364 160.929 263.956 162.332C263.241 164.79 263.791 167.916 263.603 170.467C263.352 173.876 263.216 177.332 263.278 180.748C263.336 183.905 263.229 187.054 263.346 190.218C263.395 191.528 263.538 192.596 263.882 193.847C264.272 195.262 264.7 198.566 265.671 199.545C265.781 199.657 266.606 199.397 266.825 199.675C267.162 200.102 267.1 201.007 267.332 201.283C268.081 202.177 269.63 202.248 270.754 202.65C273.837 203.753 276.666 204.95 279.572 206.437C282.168 207.766 286.355 208.897 287.916 211.518C288.632 212.719 288.728 214.304 289.387 215.544C290.136 216.956 288.637 216.218 290.473 216.79C291.3 217.048 292.618 216.79 293.465 216.79ZM19.7221 200.818C19.4886 204.079 17.6569 207.186 17.0192 210.392C16.7209 211.894 16.2148 213.369 15.8641 214.862C15.5278 216.294 14.3128 217.99 14.4358 219.407C18.9203 217.804 23.4628 217.401 28.1498 216.969C32.5922 216.559 37.2851 216.396 41.6902 216.394C46.179 216.392 50.9786 215.952 55.6005 215.884C60.4341 215.813 65.3407 215.687 70.1043 215.184C67.6134 213.334 64.4967 211.596 62.6574 209.022C60.6579 206.223 59.6195 202.717 57.8601 199.764C54.3295 193.837 52.085 186.484 50.2343 179.826C46.4979 166.385 42.3225 153.193 41.3162 139.251C39.4011 140.235 37.8809 144.051 36.922 145.952C35.6981 148.378 35.0572 151.009 34.2616 153.588C32.6232 158.9 31.4894 164.408 29.4833 169.669C25.6491 179.727 23.1847 190.564 19.7221 200.818ZM263.157 122.482C263.987 128.494 265.726 134.583 265.792 140.666C265.807 142.005 265.581 143.491 265.859 144.811C266.156 146.22 267.122 147.466 267.68 148.805C268.565 150.93 270.807 155.287 268.645 157.088C268.601 155.379 267.042 153.208 266.256 151.714C265.072 149.462 263.517 147.403 262.233 145.207C259.547 140.61 256.536 136.112 253.074 132.059C249.702 128.112 245.815 124.611 242.239 120.852C241.165 119.723 232.546 108.853 232.203 109.005C234.877 119.345 239.422 128.342 245.641 137C248.69 141.245 252.35 144.038 256.062 147.633C259.154 150.628 264.98 153.83 263.911 158.736C268.743 158.27 273.544 157.526 278.42 157.526C277.618 151.335 277.004 145.243 275.573 139.155C273.947 132.242 272.846 125.122 271.471 118.147C270.068 111.027 267.687 104.134 266.206 97.0268C264.788 90.2215 263.569 83.4283 262.53 76.5472C261.671 80.3601 261.988 84.5479 261.683 88.4382C261.371 92.4127 261.401 96.3141 261.505 100.312C261.697 107.738 262.486 115.074 263.157 122.482ZM284.097 87.0784C284.124 83.8999 284.738 80.7643 284.927 77.5933C284.986 76.6204 285.952 69.9828 285.051 69.6363C284.31 71.2565 284.137 73.33 283.464 75.03C282.792 76.7284 281.892 78.3463 281.247 80.0565C279.85 83.7614 279.367 87.9535 279.217 91.8923C278.876 100.802 278.7 109.691 279.297 118.6C279.553 122.419 279.75 126.244 279.68 130.07C279.603 134.281 278.96 137.935 279.74 142.111C280.513 146.246 280.999 150.364 281.256 154.559C281.437 157.504 281.509 157.295 284.31 157.088C286.332 156.939 288.374 157.098 290.4 157.005C289.453 145.529 289.298 134.029 287.786 122.596C287.014 116.764 286.993 110.847 286.035 105.036C285.558 102.15 284.759 99.3214 284.3 96.4316C283.807 93.3289 284.05 90.2051 284.097 87.0784ZM79.2664 79.8561C84.6588 80.3246 90.3947 81.9416 95.9219 80.8739C95.0108 80.5038 92.6265 79.9932 93.6996 78.5324C94.7906 77.047 96.6292 78.9311 97.7173 78.7365C98.3883 78.6164 99.8709 75.8034 100.284 75.221C101.223 73.8973 101.336 73.6666 103.024 73.3273C104.659 72.9992 105.03 73.3546 105.237 71.7241C105.475 69.8492 104.828 67.7413 104.892 65.8241C105.03 61.6966 106.357 58.0771 107.593 54.1937C102.343 55.3392 97.2099 56.6976 91.842 57.4359C89.5474 57.7516 85.9776 58.4797 83.893 56.9152C83.3509 56.5083 83.4376 55.959 82.994 55.4875C82.25 54.6964 80.8701 53.8781 79.8151 53.6526C73.3221 52.2663 72.6888 61.55 75.9426 65.0238C76.7575 65.8943 77.8914 66.3242 78.726 67.1218C79.8399 68.1856 79.9312 69.3062 80.0938 70.9301C80.3987 73.9751 79.9845 77.0319 78.6893 79.8173L79.2664 79.8561ZM158.059 123.684C159.975 124.049 161.976 123.965 163.897 124.277C164.58 124.387 166.627 124.773 167.227 124.373C168.144 123.761 168.47 121.519 168.903 120.475C169.666 118.639 170.744 117.037 171.471 115.167C174.442 107.529 177.212 99.8602 180.804 92.483C179.428 92.124 178.37 92.1099 176.982 91.9245C175.537 91.7312 174.226 90.8738 172.847 90.5053C171.536 90.1552 170.163 90.2445 168.864 89.8373C168.148 89.6132 167.534 89.1147 166.829 88.9405C165.705 88.6632 164.392 88.5012 163.724 89.2414C163.038 90.0007 162.798 92.0826 162.425 93.0634C161.432 95.6763 160.278 98.1979 159.446 100.871C158.695 103.282 157.982 105.667 157.321 108.099C156.623 110.668 155.247 112.784 154.409 115.238C153.771 117.105 153.17 119.014 153.074 121.005C152.982 122.948 152.7 123.072 154.637 123.382C155.615 123.539 157.139 124.121 158.059 123.684ZM284.171 214.612C284.67 214.846 285.141 214.815 285.583 214.519C281.254 212.686 277.044 210.143 272.529 208.885C268.293 207.705 264.177 206.295 260.096 204.842C256.78 203.662 253.799 202.743 250.802 200.665C248.982 199.404 247.366 197.986 246.115 196.143C244.723 194.09 244.414 191.17 242.906 189.322C240.871 191.564 238.481 193.261 236.073 195.042C235.24 195.658 233.242 197.002 232.958 197.955C232.598 199.158 233.561 200.309 234.037 201.527C235.257 204.646 235.853 207.762 236.515 211.005C236.781 212.304 237.353 214.257 238.418 214.802C239.387 215.297 242.193 214.937 243.399 214.845C249.69 214.367 255.869 213.877 262.198 214.313C269.36 214.805 277.028 215.146 284.171 214.612ZM296.736 156.826C297.88 156.83 298.997 156.686 300.136 156.686C299.478 153.607 301.015 149.622 301.561 146.548C302.17 143.11 302.635 139.554 303.041 136.088C303.898 128.788 304.287 121.576 304.298 114.222C304.308 107.106 305.6 100.603 307.409 93.7623C309.352 86.4156 312.533 79.8088 315.163 72.7236C312.278 74.2533 310.681 77.8328 309.165 80.5694C307.248 84.0295 305.972 87.8607 305.189 91.745C303.679 99.2384 302.023 106.754 300.281 114.235C298.467 122.025 297.401 129.886 295.323 137.611C294.309 141.379 292.931 146.014 292.855 149.899C292.823 151.506 292.34 154.872 293.066 156.268C293.746 157.574 295.247 156.959 296.736 156.826ZM124.149 147.161C124.089 147.961 124.032 148.722 123.89 149.512C125.474 149.497 127.48 147.849 128.838 147.109C130.493 146.208 132.149 145.213 133.768 144.307C136.892 142.558 140.439 141.405 143.775 139.968C147.607 138.317 151.13 136.322 154.794 134.334C156.074 133.64 165.274 129.64 165.12 128.547C163.1 128.48 161.08 128.412 159.06 128.345C157.329 128.287 154.647 128.68 152.988 128.143C152.08 127.849 151.06 126.765 150.718 125.917C150.378 125.078 151.141 121.218 150.698 120.971C148.437 123.286 147.016 126.363 144.994 128.861C142.761 131.621 139.875 133.232 136.694 134.699C133.181 136.319 129.546 137.574 125.956 138.962C124.442 139.547 124.472 139.882 124.34 141.547C124.193 143.408 124.209 145.295 124.149 147.161ZM306.68 217.17C310.488 217.58 314.39 217.346 318.228 217.666C319.624 217.782 321.56 217.955 320.155 219.835C319.27 221.018 316.437 220.639 315.151 220.721C311.7 220.941 308.046 220.822 304.587 220.771C303.859 220.761 303.054 220.544 302.318 220.592C301.469 220.649 300.451 221.262 299.677 221.257C299.199 221.254 299.028 220.749 298.617 220.703C297.72 220.602 296.824 220.528 295.919 220.528C282.248 220.531 268.764 220.255 255.127 220.241C248.606 220.234 241.98 220.121 235.461 219.814C234.093 219.749 226.297 220.03 226.513 217.558C226.624 216.285 229.168 216.105 230.097 215.97C230.785 215.87 231.499 215.886 232.188 215.849C234.019 215.75 234.822 216.192 234.435 214.183C232.97 206.56 230.344 200.26 224.734 194.779C220.147 190.297 214.623 186.231 209.428 182.489C203.119 177.944 198.001 173.165 194.256 166.211C192.068 162.15 190.237 157.998 189.113 153.508C188.709 151.893 188.7 150.055 188.204 148.498C187.823 147.299 186.954 146.46 186.442 145.218C180.166 155.733 171.847 164.531 164.219 174.012C160.574 178.541 156.416 182.843 152.062 186.783C150.769 187.953 149.563 189.174 148.357 190.432C147.348 191.485 145.747 192.422 144.895 193.59C144.077 194.711 144.279 194.657 145.523 195.548C147.167 196.724 148.979 197.701 150.649 198.849C153.318 200.683 156.232 202.232 158.619 204.439C161.201 206.826 163.456 209.59 165.712 212.282C167.216 214.076 169.19 216.377 169.568 218.645C169.693 219.396 170.169 221.252 169.541 221.801C169.005 222.271 169.059 222.093 168.392 221.806C167.52 221.431 167.263 220.57 166.197 220.159C163.469 219.109 160.167 219.47 157.329 219.457C154.489 219.444 151.626 219.764 148.787 219.752C142.306 219.726 135.963 220.252 129.483 220.534C122.601 220.834 115.635 220.114 108.776 220.216C103.694 220.292 98.4766 219.911 93.2543 220.194C90.5681 220.339 87.93 220.003 85.3108 219.965C81.8817 219.915 78.3599 220.383 74.9013 220.45C69.2246 220.56 63.6173 220.559 57.9059 220.696C45.6209 220.991 33.4022 221.295 21.1099 221.491C19.4702 221.516 17.6752 221.461 16.0548 221.646C14.335 221.843 15.2229 222.209 14.0429 222.83C10.7393 224.568 11.5022 218.125 11.5814 216.858C12.006 210.067 13.7249 203.407 15.7905 196.96C17.7501 190.845 19.341 184.446 21.0006 178.199C22.8173 171.362 25.1842 164.804 27.3336 158.034C29.5359 151.097 31.3291 143.89 35.3291 137.74C36.2402 136.34 37.1817 134.833 38.6474 133.95C40.2903 132.96 40.361 133.538 40.3597 131.726C40.3587 130.02 40.4634 127.741 40.062 126.112C39.6991 124.642 39.7551 125.514 38.9382 124.457C38.2734 123.598 37.5779 123.01 37.1009 121.967C34.171 124.947 27.4641 123.374 24.6333 121.229C21.1685 118.602 18.5294 114.172 17.5623 109.952C16.7857 106.563 17.7386 100.104 21.478 98.4748C23.3008 97.6805 29.9962 97.08 30.2642 94.4911C30.4022 93.1546 28.0458 91.2755 27.5021 90.1264C26.4945 87.9975 25.5267 85.1658 25.2467 82.8321C24.6997 78.2771 26.7614 73.1836 30.0456 70.1068C36.0704 64.4624 46.671 61.5657 54.4208 65.1469C52.7831 58.8721 51.7945 53.4591 52.6192 46.932C53.3298 41.3089 56.6376 38.1628 61.1892 35.362C68.9564 30.5817 79.5187 28.695 88.3998 30.085C90.4179 30.401 92.3547 31.0785 94.2233 31.6176C96.938 32.4009 100.188 32.14 102.751 33.4126C104.61 34.3349 106.021 36.1724 107.653 37.3993C109.559 38.8316 111.142 40.9693 112.466 42.9463C115.298 47.1738 114.191 55.0199 111.821 59.2636C111.313 60.1738 110.685 60.94 109.845 61.5611C108.969 62.2075 107.635 62.4087 107.184 63.247C106.028 65.3946 107.143 70.0438 107.297 72.365C107.476 75.0602 106.118 77.0847 103.071 77.2996C101.308 77.4243 101.252 76.3986 100.408 78.5091C99.8608 79.8771 99.3638 81.3674 98.5744 82.6215C96.9468 85.2061 93.9659 84.9538 91.2505 84.8839C88.1073 84.8025 85.0112 84.3044 81.8663 83.9901C82.6969 86.6594 84.9706 88.7312 86.3904 91.1091C88.3101 94.3254 89.4656 96.9914 89.7777 100.739C90.0172 103.618 89.5003 105.891 87.5361 108.034C86.7231 108.921 86.0024 108.964 86.2043 109.987C86.3273 110.612 87.4033 111.641 87.7841 112.139C88.7914 113.457 89.9609 114.667 90.8475 116.074C94.259 121.489 95.2666 129.743 95.2751 136.046C95.2755 136.335 95.4292 136.95 95.3019 137.249C95.2077 137.47 94.4919 138.169 94.4815 138.229C94.3414 139.039 95.1292 140.429 96.3655 140.566C97.664 140.71 100.042 139.623 101.25 139.266C103.183 138.695 105.153 138.273 107.081 137.686C110.196 136.738 113.296 135.982 116.463 135.239C117.894 134.904 119.333 134.624 120.768 134.31C122.403 133.953 123.163 133.263 124.007 134.932C124.731 136.364 124.281 136.623 126.035 135.902C127.776 135.185 129.478 134.296 131.178 133.487C134.176 132.06 137.747 130.789 140.334 128.682C144.649 125.168 146.247 119.573 150.376 115.844C151.526 114.806 152.212 114.788 152.939 113.349C153.718 111.81 154.119 109.836 154.528 108.18C155.245 105.281 155.755 102.372 156.405 99.475C157.214 95.8663 158.964 92.5981 160.241 89.1561C160.739 87.8151 160.997 86.1104 161.799 84.9052C162.012 84.5856 162.418 84.4055 162.584 84.141C163.155 83.2331 163.149 82.9837 163.297 81.8914C163.989 76.7874 167.026 79.4725 170.346 80.6429C171.744 81.1361 178.385 84.3343 175.849 86.4612C178.872 87.3409 183.713 86.8628 183.673 91.2079C183.652 93.4342 182.324 95.8157 181.612 97.8997C180.979 99.7499 180.367 101.607 179.724 103.455C178.316 107.502 176.607 111.427 175.233 115.486C174.606 117.336 174.089 119.23 173.217 120.976C172.448 122.516 170.586 124.214 170.279 125.898C178.334 122.451 185.786 117.467 194.803 117.785C198.751 117.924 202.334 119.588 204.514 123.07C207.248 127.434 209.047 132.32 211.718 136.725C221.438 152.747 233.031 167.302 243.701 182.661C244.521 183.841 245.575 184.957 245.859 186.416C246.045 187.368 245.685 188.319 245.907 189.234C246.369 191.133 248.701 193.505 250.283 194.597C253.314 196.69 258.242 199.642 262.025 199.38C259.651 193.658 259.682 187.388 259.792 181.284C259.898 175.485 260.522 169.734 261.264 163.995C261.432 162.697 261.578 161.493 261.95 160.235C262.377 158.791 262.963 158.928 261.684 157.63C259.716 155.632 257.375 153.988 255.391 151.964C251.1 147.589 246.702 144.16 243.324 138.935C240.112 133.966 236.724 128.853 234.346 123.411C231.898 117.809 230.92 111.826 229.705 105.893C229.212 103.486 227.414 100.798 227.775 98.2839C228.232 95.1066 229.7 97.4203 230.298 99.1301C232.123 104.35 236.396 109.021 239.935 113.219C243.759 117.754 248.436 121.548 252.427 125.95C256.773 130.746 259.75 136.256 263.615 141.375C263.615 135.023 261.452 128.554 260.568 122.27C259.79 116.739 259.545 111.19 259.053 105.635C257.936 93.0158 258.901 80.025 260.469 67.4962C261.215 61.546 260.792 55.7359 260.815 49.7653C260.822 47.8652 260.038 43.4857 261.037 41.7995C262.951 38.5697 264.068 45.632 264.165 46.6849C264.743 52.9573 263.705 59.1599 264.236 65.4054C264.79 71.9276 265.992 78.2666 267.016 84.7133C268.124 91.6935 269.929 98.5162 271.657 105.363C273.472 112.551 274.997 119.889 277.015 127.02C277.559 124.778 276.795 122.025 276.645 119.742C276.429 116.475 276.009 113.208 275.973 109.932C275.914 104.712 275.874 99.3952 276.168 94.1994C276.458 89.078 276.371 83.7115 277.937 78.7775C278.68 76.4357 279.77 74.1509 280.837 71.945C282.152 69.2248 282.618 66.5873 283.346 63.6943C283.97 61.2166 284.884 58.8042 285.3 56.277C285.558 54.7053 286.279 50.0656 288.074 53.5808C289.115 55.6211 288.665 58.6457 288.694 60.8376C288.731 63.6477 288.302 66.38 288.237 69.1782C288.109 74.6684 288.017 80.152 287.609 85.633C287.18 91.3834 287.554 96.5369 288.645 102.203C289.839 108.405 290.188 114.621 290.807 120.899C291.126 124.14 291.664 127.364 291.923 130.61C292.061 132.329 291.356 137.259 292.584 138.483C292.703 135.505 293.554 132.525 294.198 129.624C294.962 126.187 295.271 122.574 295.834 119.087C296.746 113.439 298.515 108.045 299.685 102.46C302.098 90.947 304.103 76.1502 314.214 68.6145C315.537 67.6285 316.991 66.9007 318.421 66.0892C319.231 65.6299 320.434 64.4414 321.361 64.234C322.372 64.0076 322.793 64.1835 323.203 65.3601C323.775 67.0004 322.73 67.7666 321.754 68.958C318.377 73.0806 316.934 78.3654 314.849 83.2003C310.074 94.2716 307.961 105.949 307.937 117.916C307.924 124.181 307.493 130.224 306.827 136.45C306.11 143.152 305.166 150.239 303.136 156.686C305.172 157.144 307.381 156.461 307.934 158.835C308.069 159.418 307.824 160.107 307.974 160.866C308.12 161.604 308.471 162.337 308.679 163.063C309.108 164.563 309.335 166.044 309.544 167.585C310.351 173.54 311.737 179.203 311.884 185.241C312.02 190.822 310.931 196.477 309.927 201.951C308.916 207.464 306.016 212.164 303.732 217.149C304.715 217.149 305.698 217.16 306.68 217.17Z" fill="black"/>
<path fill-rule="evenodd" clip-rule="evenodd" d="M177.456 204.496C176.374 204.803 171.146 205.382 171.147 207.028C171.148 208.014 176.368 207.995 177.292 208.102C177.347 206.9 177.402 205.698 177.456 204.496ZM188.995 215.849C192.008 216.423 196.097 215.615 198.023 212.951C198.923 211.707 199.349 209.814 199.642 208.329C199.922 206.913 200.786 203.381 200.198 202.054C199.477 200.424 192.555 202.127 190.54 202.314C187.023 202.64 183.387 202.678 179.868 202.448C179.868 206.092 179.682 209.644 181.819 212.781C183.361 215.044 186.256 215.578 188.995 215.849ZM188.39 220.35C185.117 219.148 181.68 219.929 179.549 216.405C179.008 215.511 178.553 214.549 178.226 213.556C178.066 213.121 177.941 212.675 177.853 212.219C178.019 211.236 177.661 210.959 176.777 211.388C175.042 211.049 173.139 212.244 171.312 211.892C166.88 211.038 167.685 204.67 170.659 202.466C171.247 202.03 171.834 201.909 172.506 201.694C173.989 201.22 174.791 201.749 176.147 201.614C177.243 201.506 177.545 200.353 178.722 199.846C179.494 199.513 180.564 199.539 181.375 199.506C185.617 199.331 189.873 199.332 194.143 199.055C196.134 198.926 198.284 199.242 200.235 198.901C201.148 198.741 201.017 198.131 201.882 198.666C202.777 199.22 202.391 201.268 202.346 202.085C202.084 206.807 201.804 211.872 199.281 216.001C196.974 219.779 192.433 220.165 188.39 220.35Z" fill="black"/>
<path fill-rule="evenodd" clip-rule="evenodd" d="M15.5288 221.651C16.5819 221.64 17.6347 221.628 18.6842 221.618C17.6298 221.629 16.5793 221.64 15.5288 221.651Z" fill="black"/>
<path fill-rule="evenodd" clip-rule="evenodd" d="M307.943 120.957C307.941 119.942 307.939 118.928 307.937 117.915C307.939 118.931 307.941 119.944 307.943 120.957Z" fill="black"/>
<path fill-rule="evenodd" clip-rule="evenodd" d="M40.0652 125.124C40.062 126.112 40.0587 127.1 40.0554 128.086C40.0584 127.097 40.0616 126.11 40.0652 125.124Z" fill="black"/>
<path fill-rule="evenodd" clip-rule="evenodd" d="M127.6 220.531C128.438 220.532 129.276 220.533 130.109 220.535C129.27 220.534 128.435 220.532 127.6 220.531Z" fill="black"/>
<path fill-rule="evenodd" clip-rule="evenodd" d="M76.7295 220.329C77.5673 220.332 78.4048 220.334 79.2387 220.338C78.3996 220.335 77.5647 220.332 76.7295 220.329Z" fill="black"/>
<path fill-rule="evenodd" clip-rule="evenodd" d="M259.903 179.283C259.867 179.95 259.829 180.617 259.793 181.283C259.83 180.615 259.867 179.949 259.903 179.283Z" fill="black"/>
<path fill-rule="evenodd" clip-rule="evenodd" d="M306.681 217.169C306.033 217.162 305.386 217.155 304.739 217.149C305.389 216.876 306.036 216.889 306.681 217.169Z" fill="black"/>
<path fill-rule="evenodd" clip-rule="evenodd" d="M249.198 220.123C249.663 220.115 250.128 220.108 250.588 220.1C250.122 220.107 249.66 220.115 249.198 220.123Z" fill="black"/>
<path fill-rule="evenodd" clip-rule="evenodd" d="M307.691 129.189C307.702 128.685 307.714 128.181 307.725 127.678C307.714 128.183 307.702 128.686 307.691 129.189Z" fill="black"/>
<path fill-rule="evenodd" clip-rule="evenodd" d="M264.236 65.4049C264.197 64.8848 264.159 64.365 264.12 63.8463C264.159 64.3667 264.197 64.8858 264.236 65.4049Z" fill="black"/>
<path fill-rule="evenodd" clip-rule="evenodd" d="M307.92 122.943C307.926 122.422 307.933 121.901 307.939 121.381C307.933 121.903 307.926 122.423 307.92 122.943Z" fill="black"/>
<path fill-rule="evenodd" clip-rule="evenodd" d="M161.788 219.476C162.202 219.482 162.615 219.488 163.024 219.494C162.61 219.487 162.199 219.482 161.788 219.476Z" fill="black"/>
<path fill-rule="evenodd" clip-rule="evenodd" d="M268.211 220.326C268.615 220.334 269.019 220.343 269.419 220.351C269.014 220.343 268.613 220.335 268.211 220.326Z" fill="black"/>
<path fill-rule="evenodd" clip-rule="evenodd" d="M311.838 183.672C311.809 183.214 311.78 182.757 311.751 182.301C311.78 182.758 311.809 183.215 311.838 183.672Z" fill="black"/>
<path fill-rule="evenodd" clip-rule="evenodd" d="M304.587 220.77C304.916 220.768 305.245 220.767 305.57 220.766C305.24 220.768 304.913 220.769 304.587 220.77Z" fill="black"/>
<path fill-rule="evenodd" clip-rule="evenodd" d="M259.795 220.347C260.12 220.339 260.446 220.331 260.768 220.323C260.441 220.332 260.118 220.34 259.795 220.347Z" fill="black"/>
<path fill-rule="evenodd" clip-rule="evenodd" d="M186.615 220.097C186.974 220.095 187.332 220.094 187.687 220.091C187.328 220.093 186.972 220.095 186.615 220.097Z" fill="black"/>
<path fill-rule="evenodd" clip-rule="evenodd" d="M103.975 220.096C104.315 220.098 104.656 220.101 104.993 220.103C104.651 220.102 104.313 220.099 103.975 220.096Z" fill="black"/>
<path fill-rule="evenodd" clip-rule="evenodd" d="M83.8713 220.152C84.2188 220.132 84.5655 220.113 84.9097 220.094C84.5613 220.113 84.2165 220.132 83.8713 220.152Z" fill="black"/>
<path fill-rule="evenodd" clip-rule="evenodd" d="M180.12 87.3863C179.603 87.3416 179.086 87.297 178.569 87.2521C179.087 87.2885 179.634 86.9814 180.12 87.3863Z" fill="black"/>
<path fill-rule="evenodd" clip-rule="evenodd" d="M311.887 217.366C311.378 217.315 310.868 217.263 310.358 217.211C310.868 217.263 311.378 217.315 311.887 217.366Z" fill="black"/>
<path fill-rule="evenodd" clip-rule="evenodd" d="M276.335 90.5339C276.301 90.9818 276.266 91.4301 276.232 91.8766C276.267 91.4281 276.301 90.9808 276.335 90.5339Z" fill="black"/>
<path fill-rule="evenodd" clip-rule="evenodd" d="M308.048 109.208C308.083 108.784 308.118 108.359 308.152 107.936C308.118 108.361 308.083 108.785 308.048 109.208Z" fill="black"/>
<path fill-rule="evenodd" clip-rule="evenodd" d="M276.132 97.4817C276.095 97.9289 276.059 98.3758 276.022 98.8214C276.059 98.3739 276.095 97.9276 276.132 97.4817Z" fill="black"/>
<path fill-rule="evenodd" clip-rule="evenodd" d="M307.833 126.349C307.829 125.917 307.826 125.485 307.823 125.054C308.101 125.485 308.09 125.916 307.833 126.349Z" fill="black"/>
<path fill-rule="evenodd" clip-rule="evenodd" d="M259.91 188.408C259.906 188.841 259.903 189.274 259.898 189.706C259.613 189.269 259.67 188.837 259.91 188.408Z" fill="black"/>
<path fill-rule="evenodd" clip-rule="evenodd" d="M292.397 138.296C292.347 137.857 292.297 137.418 292.248 136.981C292.298 137.42 292.347 137.858 292.397 138.296Z" fill="black"/>
<path fill-rule="evenodd" clip-rule="evenodd" d="M23.3943 98.0579C23.0564 98.5058 22.5961 98.199 22.1943 98.2534C22.5948 98.1881 22.9945 98.1232 23.3943 98.0579Z" fill="black"/>
<path fill-rule="evenodd" clip-rule="evenodd" d="M190.499 199.366C190.072 199.366 189.645 199.367 189.218 199.367C189.646 199.367 190.072 199.366 190.499 199.366Z" fill="black"/>
<path fill-rule="evenodd" clip-rule="evenodd" d="M258.709 99.898C258.749 100.262 258.788 100.626 258.828 100.989C258.788 100.624 258.749 100.261 258.709 99.898Z" fill="black"/>
<path fill-rule="evenodd" clip-rule="evenodd" d="M47.7154 63.7252C47.2862 63.7337 46.857 63.7423 46.4277 63.7508C46.8524 63.5001 47.2803 63.4276 47.7154 63.7252Z" fill="black"/>
<path fill-rule="evenodd" clip-rule="evenodd" d="M276.121 103.782C276.094 104.164 276.066 104.546 276.038 104.926C276.066 104.544 276.094 104.163 276.121 103.782Z" fill="black"/>
<path fill-rule="evenodd" clip-rule="evenodd" d="M264.351 56.8988C264.384 56.5507 264.417 56.2026 264.451 55.8564C264.417 56.2052 264.384 56.552 264.351 56.8988Z" fill="black"/>
<path fill-rule="evenodd" clip-rule="evenodd" d="M260.978 55.8082C260.945 56.1858 260.911 56.5638 260.877 56.9402C260.911 56.5619 260.945 56.1849 260.978 55.8082Z" fill="black"/>
<path fill-rule="evenodd" clip-rule="evenodd" d="M74.5387 30.578C74.1019 30.6312 73.6652 30.6843 73.2288 30.7371C73.6655 30.684 74.1019 30.6312 74.5387 30.578Z" fill="black"/>
<path fill-rule="evenodd" clip-rule="evenodd" d="M42.9934 64.0258C42.5452 64.0717 42.097 64.1176 41.6492 64.1636C42.0974 64.1176 42.5456 64.0717 42.9934 64.0258Z" fill="black"/>
<path fill-rule="evenodd" clip-rule="evenodd" d="M288.595 65.1328C288.622 64.7814 288.649 64.4296 288.677 64.0802C288.649 64.4319 288.622 64.7824 288.595 65.1328Z" fill="black"/>
<path fill-rule="evenodd" clip-rule="evenodd" d="M28.283 123.131C28.5411 123.135 28.7989 123.138 29.0531 123.142C28.794 123.138 28.5385 123.135 28.283 123.131Z" fill="black"/>
<path fill-rule="evenodd" clip-rule="evenodd" d="M260.991 166.504C260.965 166.894 260.939 167.282 260.914 167.671C260.94 167.281 260.966 166.893 260.991 166.504Z" fill="black"/>
<path fill-rule="evenodd" clip-rule="evenodd" d="M287.322 90.7725C287.312 90.3975 287.302 90.0227 287.291 89.6487C287.302 90.0241 287.312 90.3981 287.322 90.7725Z" fill="black"/>
<path fill-rule="evenodd" clip-rule="evenodd" d="M85.5326 29.6906C85.1345 29.6906 84.7363 29.6909 84.3389 29.6909C84.737 29.4166 85.1348 29.4235 85.5326 29.6906Z" fill="black"/>
<path fill-rule="evenodd" clip-rule="evenodd" d="M191.827 117.964C191.391 117.975 190.955 117.986 190.519 117.997C190.948 117.694 191.384 117.686 191.827 117.964Z" fill="black"/>
<path fill-rule="evenodd" clip-rule="evenodd" d="M229.936 219.461C230.195 219.466 230.454 219.472 230.709 219.478C230.449 219.473 230.192 219.467 229.936 219.461Z" fill="black"/>
<path fill-rule="evenodd" clip-rule="evenodd" d="M239.671 219.917C239.929 219.907 240.187 219.898 240.442 219.889C240.183 219.899 239.927 219.908 239.671 219.917Z" fill="black"/>
<path fill-rule="evenodd" clip-rule="evenodd" d="M87.3196 220.097C87.5888 220.104 87.8581 220.111 88.1237 220.117C87.8535 220.11 87.5865 220.104 87.3196 220.097Z" fill="black"/>
<path fill-rule="evenodd" clip-rule="evenodd" d="M311.614 179.332C311.576 178.961 311.538 178.59 311.499 178.221C311.538 178.593 311.576 178.962 311.614 179.332Z" fill="black"/>
<path fill-rule="evenodd" clip-rule="evenodd" d="M276.451 116.825C276.482 117.178 276.512 117.532 276.542 117.883C276.512 117.529 276.482 117.177 276.451 116.825Z" fill="black"/>
<path fill-rule="evenodd" clip-rule="evenodd" d="M289.983 110.758C289.941 110.383 289.899 110.008 289.858 109.635C289.9 110.01 289.941 110.384 289.983 110.758Z" fill="black"/>
<path fill-rule="evenodd" clip-rule="evenodd" d="M89.5039 220.32C89.7754 220.316 90.0473 220.312 90.3159 220.308C90.043 220.313 89.7735 220.316 89.5039 220.32Z" fill="black"/>
<path fill-rule="evenodd" clip-rule="evenodd" d="M188.39 220.35C188.654 220.338 188.918 220.326 189.179 220.314C188.914 220.326 188.652 220.338 188.39 220.35Z" fill="black"/>
<path fill-rule="evenodd" clip-rule="evenodd" d="M287.774 83.3956C287.762 83.016 287.751 82.6363 287.739 82.2573C287.751 82.6373 287.763 83.0163 287.774 83.3956Z" fill="black"/>
<path fill-rule="evenodd" clip-rule="evenodd" d="M63.7566 220.568C64.0216 220.566 64.2862 220.564 64.5476 220.562C64.2813 220.564 64.0193 220.566 63.7566 220.568Z" fill="black"/>
<path fill-rule="evenodd" clip-rule="evenodd" d="M287.664 220.564C287.936 220.567 288.209 220.57 288.477 220.573C288.204 220.57 287.934 220.567 287.664 220.564Z" fill="black"/>
<path fill-rule="evenodd" clip-rule="evenodd" d="M293.544 220.532C293.807 220.551 294.07 220.57 294.33 220.588C294.066 220.569 293.805 220.551 293.544 220.532Z" fill="black"/>
<path fill-rule="evenodd" clip-rule="evenodd" d="M295.919 220.527C296.187 220.535 296.455 220.543 296.719 220.549C296.451 220.541 296.185 220.534 295.919 220.527Z" fill="black"/>
<path fill-rule="evenodd" clip-rule="evenodd" d="M308.114 112.263C308.096 111.889 308.079 111.516 308.062 111.143C308.079 111.517 308.096 111.89 308.114 112.263Z" fill="black"/>
<path fill-rule="evenodd" clip-rule="evenodd" d="M128.401 215.633C129.215 215.59 130.03 215.548 130.844 215.505C130.03 215.548 129.215 215.59 128.401 215.633Z" fill="black"/>
<path fill-rule="evenodd" clip-rule="evenodd" d="M79.2664 79.8555C79.9733 79.9172 80.6803 79.9788 81.3866 80.0399C80.6796 79.9785 79.973 79.9168 79.2664 79.8555Z" fill="black"/>
<path fill-rule="evenodd" clip-rule="evenodd" d="M278.875 110.683C278.897 111.36 278.92 112.037 278.942 112.711C278.919 112.034 278.897 111.359 278.875 110.683Z" fill="black"/>
<path fill-rule="evenodd" clip-rule="evenodd" d="M293.465 216.79C294.203 216.835 294.941 216.879 295.679 216.924C294.936 216.958 294.183 217.17 293.465 216.79Z" fill="black"/>
<path fill-rule="evenodd" clip-rule="evenodd" d="M289.098 136.758C289.103 136.112 289.109 135.467 289.114 134.823C289.109 135.469 289.103 136.113 289.098 136.758Z" fill="black"/>
<path fill-rule="evenodd" clip-rule="evenodd" d="M287.209 157.036C287.856 157.045 288.504 157.054 289.152 157.062C288.504 157.053 287.856 157.045 287.209 157.036Z" fill="black"/>
<path fill-rule="evenodd" clip-rule="evenodd" d="M124.196 145.689C124.18 146.181 124.164 146.673 124.148 147.163C124.165 146.67 124.18 146.18 124.196 145.689Z" fill="black"/>
<path fill-rule="evenodd" clip-rule="evenodd" d="M297.986 124.862C297.96 125.351 297.933 125.841 297.907 126.327C297.934 125.838 297.96 125.35 297.986 124.862Z" fill="black"/>
<path fill-rule="evenodd" clip-rule="evenodd" d="M284.171 214.612C284.642 214.58 285.113 214.548 285.583 214.517C285.229 214.802 284.873 214.825 284.171 214.612Z" fill="black"/>
<path fill-rule="evenodd" clip-rule="evenodd" d="M281.018 150.628C281.05 151.155 281.083 151.683 281.115 152.209C281.083 151.681 281.05 151.154 281.018 150.628Z" fill="black"/>
<path fill-rule="evenodd" clip-rule="evenodd" d="M104.876 67.3483C104.881 66.8387 104.886 66.3291 104.892 65.8215C104.887 66.3318 104.882 66.84 104.876 67.3483Z" fill="black"/>
<path fill-rule="evenodd" clip-rule="evenodd" d="M281.589 157.143L283.344 157.104C282.765 157.385 282.18 157.395 281.589 157.143Z" fill="black"/>
<path fill-rule="evenodd" clip-rule="evenodd" d="M297.787 160.903C297.373 160.907 296.959 160.91 296.548 160.914C296.963 160.911 297.375 160.907 297.787 160.903Z" fill="black"/>
<path fill-rule="evenodd" clip-rule="evenodd" d="M146.163 214.814C146.736 214.822 147.309 214.829 147.883 214.837C147.305 215.127 146.731 215.168 146.163 214.814Z" fill="black"/>
<path fill-rule="evenodd" clip-rule="evenodd" d="M38.1943 216.508C38.776 216.456 39.358 216.404 39.9397 216.352C39.358 216.404 38.776 216.456 38.1943 216.508Z" fill="black"/>
<path fill-rule="evenodd" clip-rule="evenodd" d="M279.077 115.029C279.105 115.558 279.134 116.088 279.162 116.616C279.134 116.086 279.105 115.557 279.077 115.029Z" fill="black"/>
<path fill-rule="evenodd" clip-rule="evenodd" d="M93.4067 81.0987C93.8971 80.8562 94.3914 80.8155 94.8907 81.0725C94.3957 81.0813 93.9014 81.0902 93.4067 81.0987Z" fill="black"/>
<path fill-rule="evenodd" clip-rule="evenodd" d="M263.036 121.144C263.076 121.591 263.117 122.038 263.158 122.483C263.117 122.036 263.076 121.59 263.036 121.144Z" fill="black"/>
<path fill-rule="evenodd" clip-rule="evenodd" d="M304.462 110.721C304.21 110.284 304.219 109.849 304.474 109.418C304.47 109.853 304.466 110.287 304.462 110.721Z" fill="black"/>
<path fill-rule="evenodd" clip-rule="evenodd" d="M279.157 95.548C279.157 95.99 279.158 96.4323 279.158 96.873C279.157 96.43 279.157 95.989 279.157 95.548Z" fill="black"/>
<path fill-rule="evenodd" clip-rule="evenodd" d="M296.736 156.825C297.241 156.67 297.746 156.45 298.248 156.83C297.744 156.829 297.24 156.827 296.736 156.825Z" fill="black"/>
<path fill-rule="evenodd" clip-rule="evenodd" d="M133.618 215.433C134.126 215.385 134.634 215.338 135.142 215.29C134.634 215.338 134.126 215.385 133.618 215.433Z" fill="black"/>
<path fill-rule="evenodd" clip-rule="evenodd" d="M63.9868 215.434C64.452 215.229 64.9162 215.121 65.3746 215.45C64.9117 215.444 64.4494 215.439 63.9868 215.434Z" fill="black"/>
<path fill-rule="evenodd" clip-rule="evenodd" d="M159.142 214.776C159.639 214.558 160.136 214.438 160.627 214.791C160.131 214.786 159.637 214.781 159.142 214.776Z" fill="black"/>
<path fill-rule="evenodd" clip-rule="evenodd" d="M48.4062 150.225C48.4435 150.676 48.4812 151.126 48.5181 151.575C48.4805 151.125 48.4432 150.675 48.4062 150.225Z" fill="black"/>
<path fill-rule="evenodd" clip-rule="evenodd" d="M163.897 124.276C164.387 124.097 164.874 124.004 165.355 124.302C164.869 124.293 164.383 124.285 163.897 124.276Z" fill="black"/>
<path fill-rule="evenodd" clip-rule="evenodd" d="M279.069 137.686C279.096 138.127 279.124 138.567 279.15 139.006C279.123 138.566 279.096 138.126 279.069 137.686Z" fill="black"/>
<path fill-rule="evenodd" clip-rule="evenodd" d="M48.0899 97.9529C48.0493 98.3076 48.0087 98.6626 47.9685 99.0153C48.0091 98.66 48.0493 98.3066 48.0899 97.9529Z" fill="black"/>
<path fill-rule="evenodd" clip-rule="evenodd" d="M19.7219 200.817C19.6967 201.163 19.6718 201.508 19.647 201.851C19.6728 201.505 19.6974 201.161 19.7219 200.817Z" fill="black"/>
<path fill-rule="evenodd" clip-rule="evenodd" d="M289.315 140.017C289.287 139.66 289.26 139.303 289.232 138.947C289.26 139.305 289.287 139.661 289.315 140.017Z" fill="black"/>
<path fill-rule="evenodd" clip-rule="evenodd" d="M253.672 214.109C254.108 214.112 254.545 214.115 254.98 214.118C254.544 214.115 254.108 214.112 253.672 214.109Z" fill="black"/>
<path fill-rule="evenodd" clip-rule="evenodd" d="M124.031 148.727C124.112 148.987 124.194 149.247 124.275 149.508C123.731 149.639 123.65 149.379 124.031 148.727Z" fill="black"/>
<path fill-rule="evenodd" clip-rule="evenodd" d="M156.73 123.688C157.173 123.686 157.616 123.685 158.059 123.683C157.617 123.893 157.174 124.038 156.73 123.688Z" fill="black"/>
<path fill-rule="evenodd" clip-rule="evenodd" d="M48.6543 152.358C48.6693 152.752 48.6844 153.146 48.6988 153.538C48.6834 153.144 48.6687 152.751 48.6543 152.358Z" fill="black"/>
<path fill-rule="evenodd" clip-rule="evenodd" d="M53.3406 215.864C53.7682 215.864 54.1954 215.864 54.623 215.864C54.1951 215.864 53.7682 215.864 53.3406 215.864Z" fill="black"/>
<path fill-rule="evenodd" clip-rule="evenodd" d="M264.111 156.51C264.127 156.872 264.143 157.235 264.159 157.596C264.143 157.232 264.127 156.871 264.111 156.51Z" fill="black"/>
<path fill-rule="evenodd" clip-rule="evenodd" d="M44.2637 216.307C44.6841 216.027 45.1054 216.051 45.5275 216.302C45.1061 216.304 44.6847 216.305 44.2637 216.307Z" fill="black"/>
<path fill-rule="evenodd" clip-rule="evenodd" d="M55.3335 92.8876C55.3561 93.2578 55.379 93.6282 55.4025 93.996C55.38 93.6253 55.3567 93.2564 55.3335 92.8876Z" fill="black"/>
<path fill-rule="evenodd" clip-rule="evenodd" d="M42.0762 216.345C42.5132 216.346 42.9503 216.348 43.3871 216.35C42.9487 216.649 42.5119 216.664 42.0762 216.345Z" fill="black"/>
<path fill-rule="evenodd" clip-rule="evenodd" d="M284.097 87.0775C284.101 86.7015 284.104 86.3258 284.107 85.9507C284.103 86.3271 284.1 86.7021 284.097 87.0775Z" fill="black"/>
<path fill-rule="evenodd" clip-rule="evenodd" d="M83.4404 80.5019C83.8585 80.5567 84.2766 80.6115 84.6944 80.666C84.2763 80.6112 83.8582 80.5567 83.4404 80.5019Z" fill="black"/>
<path fill-rule="evenodd" clip-rule="evenodd" d="M46.5461 112.953C46.5517 113.304 46.5573 113.656 46.5638 114.005C46.5582 113.653 46.5524 113.303 46.5461 112.953Z" fill="black"/>
<path fill-rule="evenodd" clip-rule="evenodd" d="M286.911 112.903C286.889 112.545 286.866 112.187 286.843 111.831C286.866 112.19 286.889 112.546 286.911 112.903Z" fill="black"/>
<path fill-rule="evenodd" clip-rule="evenodd" d="M189.398 215.925C189.914 215.972 190.43 216.019 190.945 216.066C190.429 216.019 189.914 215.972 189.398 215.925Z" fill="black"/>
<path fill-rule="evenodd" clip-rule="evenodd" d="M187.674 202.53C187.395 202.535 187.116 202.539 186.84 202.545C187.12 202.541 187.397 202.536 187.674 202.53Z" fill="black"/>
<path fill-rule="evenodd" clip-rule="evenodd" d="M187.698 215.721C188.13 215.763 188.563 215.806 188.996 215.849C188.563 215.806 188.13 215.763 187.698 215.721Z" fill="black"/>
<path fill-rule="evenodd" clip-rule="evenodd" d="M109.829 186.495C110.392 189.685 105.448 192.806 105.056 188.27C104.913 186.612 106.019 185.445 107.257 184.432C109.015 182.993 109.996 184.37 109.829 186.495Z" fill="black"/>
<path fill-rule="evenodd" clip-rule="evenodd" d="M55.3354 147.567C56.5001 148.045 65.3982 150.953 60.7762 152.416C59.5527 152.803 57.7033 152.861 56.6427 152.179C55.3668 151.358 54.0798 148.935 55.3354 147.567Z" fill="black"/>
<path fill-rule="evenodd" clip-rule="evenodd" d="M57.5251 104.358C60.5453 104.006 63.328 108.982 59.6044 108.82C56.894 108.703 53.2489 104.358 57.5251 104.358Z" fill="black"/>
<path fill-rule="evenodd" clip-rule="evenodd" d="M68.3292 116.557C70.8512 118.764 66.1766 123.703 64.3206 121.792C63.3729 120.815 64.247 118.712 65.0292 117.895C65.8321 117.056 67.2604 116.899 68.3292 116.557Z" fill="black"/>
<path fill-rule="evenodd" clip-rule="evenodd" d="M75.8374 173.772C74.3486 174.009 67.801 176.155 69.1666 172.257C69.6874 170.771 71.1399 171.212 72.4678 171.28C74.608 171.39 75.8374 171.287 75.8374 173.772Z" fill="black"/>
<path fill-rule="evenodd" clip-rule="evenodd" d="M71.5244 183.812C73.7533 185.008 70.4952 191.701 68.6478 190.277C66.0846 188.301 69.5903 184.413 71.5244 183.812Z" fill="black"/>
<path fill-rule="evenodd" clip-rule="evenodd" d="M81.2456 178.431C82.3295 177.987 87.4385 182.917 85.4936 184.288C84.4968 184.991 82.6082 183.786 82.0072 183.059C80.8805 181.697 80.7785 180.016 81.2456 178.431Z" fill="black"/>
<path fill-rule="evenodd" clip-rule="evenodd" d="M51.7682 138.143C52.8759 138.325 54.7884 138.383 54.8601 139.944C54.9229 141.316 53.2076 141.761 52.0001 141.868C50.7472 141.98 49.0885 141.625 49.0646 140.045C49.0394 138.341 51.7289 138.443 51.7682 138.143Z" fill="black"/>
<path fill-rule="evenodd" clip-rule="evenodd" d="M79.0846 206.082C80.2642 206.8 85.7669 209.386 83.4081 211.254C82.5255 211.954 79.8498 210.51 79.2475 209.776C78.5287 208.899 77.8263 206.847 79.0846 206.082Z" fill="black"/>
<path fill-rule="evenodd" clip-rule="evenodd" d="M94.3816 187.315C94.2111 184.46 99.013 183.324 98.0175 187.376C97.7368 188.518 97.4653 190.252 96.0569 190.319C94.3924 190.397 94.3322 188.422 94.3816 187.315Z" fill="black"/>
<path fill-rule="evenodd" clip-rule="evenodd" d="M79.5478 137.672C79.5812 139.838 75.4441 141.748 75.412 138.315C75.3835 135.248 79.7023 134.35 79.5478 137.672Z" fill="black"/>
<path fill-rule="evenodd" clip-rule="evenodd" d="M76.8158 126.394C77.8351 126.723 79.1899 126.893 79.2795 128.192C79.3747 129.567 78.1014 130.179 76.9558 130.102C76.0162 130.038 74.6258 129.341 74.4551 128.318C74.2048 126.817 75.6652 126.719 76.8158 126.394Z" fill="black"/>
<path fill-rule="evenodd" clip-rule="evenodd" d="M57.8602 166.042C57.8428 164.255 61.4133 162.107 62.0709 164.181C62.2813 164.844 60.5984 167.82 60.0387 168.042C58.5576 168.632 58.3509 167.258 57.8602 166.042Z" fill="black"/>
<path fill-rule="evenodd" clip-rule="evenodd" d="M87.1187 195.784C85.9122 196.867 82.2929 199.91 82.5635 195.826C82.7362 193.216 87.437 193.353 87.1187 195.784Z" fill="black"/>
<path fill-rule="evenodd" clip-rule="evenodd" d="M146.085 207.458C146.48 205.741 152.143 208.72 150.253 210.889C149.619 211.617 147.961 210.958 147.323 210.527C146.061 209.673 146.034 208.884 146.085 207.458Z" fill="black"/>
<path fill-rule="evenodd" clip-rule="evenodd" d="M114.536 170.696C114.757 169.93 115.003 168.576 115.731 168.088C117.049 167.204 118.196 168.537 118.196 169.942C118.197 172.564 115.221 173.391 114.536 170.696Z" fill="black"/>
<path fill-rule="evenodd" clip-rule="evenodd" d="M100.502 201.349C101.973 201.687 105.246 205.271 103.348 206.733C101.521 208.14 99.0905 202.419 100.502 201.349Z" fill="black"/>
<path fill-rule="evenodd" clip-rule="evenodd" d="M101.902 174.217C103.792 174.368 106.391 177.438 103.453 177.926C101.154 178.308 98.4815 174.969 101.902 174.217Z" fill="black"/>
<path fill-rule="evenodd" clip-rule="evenodd" d="M119.015 188.345C119.489 186.743 124.177 188.459 123.914 190.223C123.774 191.16 121.857 191.38 120.85 191.132C119.366 190.767 118.981 189.791 119.015 188.345Z" fill="black"/>
<path fill-rule="evenodd" clip-rule="evenodd" d="M63.7543 98.8959C63.7883 96.8254 67.755 95.9815 68.0455 98.068C68.3082 99.9531 63.7046 101.959 63.7543 98.8959Z" fill="black"/>
<path fill-rule="evenodd" clip-rule="evenodd" d="M117.705 209.679C117.991 208.638 118.114 207.385 119.411 207.248C120.895 207.091 120.851 208.232 120.677 209.416C120.202 212.635 118.388 212.796 117.705 209.679Z" fill="black"/>
<path fill-rule="evenodd" clip-rule="evenodd" d="M55.0636 123.53C52.9957 123.998 49.2083 120.003 51.5232 119.146C53.1543 118.541 55.0636 122.325 55.0636 123.53Z" fill="black"/>
<path fill-rule="evenodd" clip-rule="evenodd" d="M81.4391 154.559C80.3867 155.056 80.1442 155.357 79.3358 154.542C78.6318 153.831 78.6629 151.852 79.2671 151.113C81.5814 148.283 81.5271 153.414 81.4391 154.559Z" fill="black"/>
<path fill-rule="evenodd" clip-rule="evenodd" d="M90.0253 148.819C91.1228 148.96 94.3842 152.062 92.6859 153.295C90.605 154.806 89.4276 150.074 90.0253 148.819Z" fill="black"/>
<path fill-rule="evenodd" clip-rule="evenodd" d="M113.772 149.636C112.974 152.718 110.983 150.644 111.096 148.313C111.277 144.578 113.341 147.831 113.772 149.636Z" fill="black"/>
<path fill-rule="evenodd" clip-rule="evenodd" d="M125.881 199.126C127.231 199.686 129.063 204.862 127.135 205.139C124.969 205.451 125.69 200.204 125.881 199.126Z" fill="black"/>
<path fill-rule="evenodd" clip-rule="evenodd" d="M109.025 196.219C110.569 195.696 111.135 198.964 110.237 199.571C108.262 200.906 108.679 196.99 109.025 196.219Z" fill="black"/>
<path fill-rule="evenodd" clip-rule="evenodd" d="M94.3815 187.315C94.3618 187.748 94.3425 188.182 94.3223 188.613C94.3416 188.179 94.3612 187.747 94.3815 187.315Z" fill="black"/>
<path fill-rule="evenodd" clip-rule="evenodd" d="M146.085 207.458C146.069 207.903 146.053 208.348 146.036 208.79C146.052 208.345 146.068 207.901 146.085 207.458Z" fill="black"/>
<path fill-rule="evenodd" clip-rule="evenodd" d="M119.015 188.345C119.007 188.722 118.998 189.099 118.988 189.474C118.996 189.096 119.006 188.72 119.015 188.345Z" fill="black"/>
<path fill-rule="evenodd" clip-rule="evenodd" d="M289.851 181.851C293.053 181.748 296.626 180.539 299.772 180.924C300.638 181.03 302.632 181.248 301.245 182.537C300.581 183.153 297.403 182.835 296.441 183.039C290.562 184.287 283.888 185.093 277.86 184.989C275.038 184.94 272.195 184.713 269.374 184.564C266.556 184.414 266.279 183.265 269.45 182.9C272.744 182.52 276.124 182.661 279.435 182.657C282.915 182.653 286.378 182.084 289.851 181.851Z" fill="black"/>
<path fill-rule="evenodd" clip-rule="evenodd" d="M296.881 174.113C296.573 174.993 296.302 177.013 295.121 177.145C293.467 177.331 293.193 174.482 293.254 173.441C293.328 172.183 293.779 170.094 295.337 170.53C296.654 170.898 296.785 173.107 296.881 174.113Z" fill="black"/>
<path fill-rule="evenodd" clip-rule="evenodd" d="M286.867 173.469C287.109 172.526 287.228 170.401 288.557 170.329C290.042 170.249 290.466 172.462 290.456 173.523C290.447 174.53 290.075 176.432 288.893 176.665C287.289 176.98 287.146 174.545 286.867 173.469Z" fill="black"/>
<path fill-rule="evenodd" clip-rule="evenodd" d="M270.191 175.159C269.709 176.292 269.391 177.852 267.902 177.08C266.75 176.482 266.59 174.074 266.807 172.971C267.032 171.828 267.509 170.518 268.818 171.032C270.327 171.624 270.175 173.912 270.191 175.159Z" fill="black"/>
<path fill-rule="evenodd" clip-rule="evenodd" d="M282.82 174.113C281.4 178.429 278.811 175.509 279.794 172.287C280.822 168.919 282.689 172.19 282.82 174.113Z" fill="black"/>
<path fill-rule="evenodd" clip-rule="evenodd" d="M275.903 174.327C275.509 175.087 275.089 176.726 274.027 176.553C272.724 176.341 272.682 173.827 272.825 172.89C272.95 172.071 273.317 170.705 274.407 170.722C275.983 170.748 275.877 173.343 275.903 174.327Z" fill="black"/>
<path fill-rule="evenodd" clip-rule="evenodd" d="M304.218 175.155C303.162 177.533 301.708 175.485 302.173 173.796C302.863 171.291 304.159 173.51 304.218 175.155Z" fill="black"/>
<path fill-rule="evenodd" clip-rule="evenodd" d="M278.34 182.66C277.186 182.656 276.031 182.652 274.877 182.647C276.032 182.429 277.187 182.344 278.34 182.66Z" fill="black"/>
<path fill-rule="evenodd" clip-rule="evenodd" d="M301.273 180.914C300.272 180.92 299.271 180.926 298.271 180.933C299.27 180.632 300.271 180.626 301.273 180.914Z" fill="black"/>
<path fill-rule="evenodd" clip-rule="evenodd" d="M289.851 181.851C289.05 181.905 288.249 181.958 287.448 182.012C288.249 181.958 289.05 181.905 289.851 181.851Z" fill="black"/>
<path fill-rule="evenodd" clip-rule="evenodd" d="M270.19 175.159C270.183 174.582 270.175 174.005 270.168 173.43C270.465 174.003 270.444 174.58 270.19 175.159Z" fill="black"/>
<path fill-rule="evenodd" clip-rule="evenodd" d="M276.47 184.977C276.935 184.981 277.399 184.985 277.86 184.989C277.394 184.985 276.932 184.981 276.47 184.977Z" fill="black"/>
<path fill-rule="evenodd" clip-rule="evenodd" d="M268.669 184.564C269.139 184.564 269.61 184.563 270.077 184.564C269.605 184.564 269.137 184.564 268.669 184.564Z" fill="black"/>
<path fill-rule="evenodd" clip-rule="evenodd" d="M272.527 182.71C271.872 182.764 271.218 182.818 270.564 182.872C271.219 182.818 271.872 182.764 272.527 182.71Z" fill="black"/>
<path fill-rule="evenodd" clip-rule="evenodd" d="M281.373 182.653C280.727 182.654 280.081 182.656 279.435 182.657C280.081 182.384 280.727 182.376 281.373 182.653Z" fill="black"/>
<path fill-rule="evenodd" clip-rule="evenodd" d="M275.903 174.327C275.887 173.725 275.872 173.124 275.857 172.524C275.873 173.125 275.888 173.726 275.903 174.327Z" fill="black"/>
<path fill-rule="evenodd" clip-rule="evenodd" d="M266.807 172.971C266.804 173.557 266.8 174.143 266.795 174.727C266.799 174.14 266.803 173.556 266.807 172.971Z" fill="black"/>
<path fill-rule="evenodd" clip-rule="evenodd" d="M293.522 181.633C292.951 181.684 292.38 181.736 291.81 181.788C292.381 181.736 292.952 181.684 293.522 181.633Z" fill="black"/>
<path fill-rule="evenodd" clip-rule="evenodd" d="M304.219 175.155C304.2 174.643 304.182 174.131 304.163 173.619C304.182 174.132 304.2 174.643 304.219 175.155Z" fill="black"/>
<path fill-rule="evenodd" clip-rule="evenodd" d="M279.921 184.994C280.319 184.986 280.716 184.978 281.11 184.972C280.711 184.979 280.316 184.987 279.921 184.994Z" fill="black"/>
<path fill-rule="evenodd" clip-rule="evenodd" d="M296.881 174.113C296.846 173.745 296.811 173.376 296.776 173.01C296.811 173.378 296.846 173.745 296.881 174.113Z" fill="black"/>
<path fill-rule="evenodd" clip-rule="evenodd" d="M282.819 174.113C282.794 173.735 282.768 173.357 282.742 172.98C282.768 173.358 282.794 173.736 282.819 174.113Z" fill="black"/>
<path fill-rule="evenodd" clip-rule="evenodd" d="M77.8166 63.0328C76.2531 62.6213 75.96 60.4177 76.2112 59.0641C76.4962 58.4118 76.7811 57.7598 77.0661 57.1075C76.9545 56.8664 76.8433 56.6252 76.7321 56.384C76.875 55.0407 76.5096 54.4569 78.0488 55.001C80.9081 56.0123 81.3651 62.9291 77.8166 63.0328Z" fill="black"/>
<path fill-rule="evenodd" clip-rule="evenodd" d="M100.96 58.7721C102.248 58.6704 104.587 60.1748 103.305 61.6304C102.511 62.5321 99.893 62.1055 98.8252 62.2939C97.409 62.5436 95.9319 62.8852 96.6981 60.7576C97.2997 59.0868 99.4485 58.7285 100.96 58.7721Z" fill="black"/>
<path fill-rule="evenodd" clip-rule="evenodd" d="M99.6042 68.7796C98.2959 67.7273 98.8799 62.9344 100.871 63.7967C102.919 64.6843 100.696 68.0879 99.6042 68.7796Z" fill="black"/>
<path fill-rule="evenodd" clip-rule="evenodd" d="M76.2112 59.0641C76.2112 59.5685 76.2108 60.0731 76.2098 60.5752C75.937 60.0698 75.9455 59.5668 76.2112 59.0641Z" fill="black"/>
<path fill-rule="evenodd" clip-rule="evenodd" d="M77.8167 63.0328C78.0833 63.0253 78.3502 63.0174 78.6136 63.0105C78.3456 63.019 78.0813 63.0259 77.8167 63.0328Z" fill="black"/>
<path fill-rule="evenodd" clip-rule="evenodd" d="M239.357 201.064C239.234 203.244 236.9 201.632 237.066 200.174C237.366 197.527 238.858 200.143 239.357 201.064Z" fill="black"/>
</svg>
