<svg width="346" height="288" viewBox="0 0 346 288" fill="none" xmlns="http://www.w3.org/2000/svg">
<ellipse opacity="0.5" cx="173.112" cy="273.826" rx="172.406" ry="13.8746" fill="#C4C4C4"/>
<path d="M79.664 159.549C79.664 159.146 80.418 158.782 81.9432 158.615H85.8185C87.3422 158.782 88.0962 159.146 88.0962 159.56C88.0962 159.973 87.3422 160.327 85.8185 160.504H81.9432C80.418 160.327 79.664 159.972 79.664 159.549Z" fill="#D1DCF8"/>
<path d="M62.7987 159.549C62.7987 159.146 63.5527 158.782 65.0779 158.615H68.9533C70.4769 158.782 71.2309 159.146 71.2309 159.56C71.2309 159.973 70.4769 160.327 68.9533 160.504H65.0779C63.5527 160.327 62.7987 159.972 62.7987 159.549Z" fill="#D1DCF8"/>
<path d="M45.9335 159.549C45.9335 159.146 46.6875 158.782 48.2127 158.615H52.0881C53.6117 158.782 54.3657 159.146 54.3657 159.56C54.3657 159.973 53.6117 160.327 52.0881 160.504H48.2127C46.6875 160.327 45.9335 159.972 45.9335 159.549Z" fill="#D1DCF8"/>
<path d="M37.8728 148.171C38.2763 148.171 38.6408 148.925 38.8079 150.45V152.387C38.8172 153.04 38.7805 153.699 38.8508 154.201C38.8687 155.486 39.0046 156.256 38.6244 156.472C38.3107 156.676 37.4302 156.19 36.9759 154.445C36.8799 153.663 36.9306 153.025 36.9174 152.388V150.451C37.0946 148.925 37.4489 148.171 37.8728 148.171Z" fill="#D1DCF8"/>
<path d="M37.8728 131.312C38.2763 131.312 38.6408 132.065 38.8079 133.59V137.464C38.6408 138.987 38.2763 139.741 37.8626 139.741C37.4489 139.741 37.0946 138.987 36.9174 137.464V133.59C37.0946 132.065 37.4489 131.312 37.8728 131.312Z" fill="#D1DCF8"/>
<path d="M37.8728 114.453C38.2763 114.453 38.6408 115.206 38.8079 116.731V120.605C38.6408 122.128 38.2763 122.882 37.8626 122.882C37.4489 122.882 37.0946 122.128 36.9174 120.605V116.731C37.0946 115.206 37.4489 114.453 37.8728 114.453Z" fill="#D1DCF8"/>
<path d="M37.8728 97.5935C38.2763 97.5935 38.6408 98.3472 38.8079 99.8719V103.746C38.6408 105.269 38.2763 106.023 37.8626 106.023C37.4489 106.023 37.0946 105.269 36.9174 103.746V99.8719C37.0946 98.3472 37.4489 97.5935 37.8728 97.5935Z" fill="#D1DCF8"/>
<path d="M37.8728 80.7344C38.2763 80.7344 38.6408 81.4881 38.8079 83.0127V86.8867C38.6408 88.4098 38.2763 89.1636 37.8626 89.1636C37.4489 89.1636 37.0946 88.4098 36.9174 86.8867V83.0127C37.0946 81.4881 37.4489 80.7344 37.8728 80.7344Z" fill="#D1DCF8"/>
<path d="M37.8728 63.8752C38.2763 63.8752 38.6408 64.629 38.8079 66.1536V70.0276C38.6408 71.5507 38.2763 72.3044 37.8626 72.3044C37.4489 72.3044 37.0946 71.5507 36.9174 70.0276V66.1536C37.0946 64.629 37.4489 63.8752 37.8728 63.8752Z" fill="#D1DCF8"/>
<path d="M37.8728 47.0161C38.2763 47.0161 38.6408 47.7698 38.8079 49.2945V53.1685C38.6408 54.6915 38.2763 55.4453 37.8626 55.4453C37.4489 55.4453 37.0946 54.6915 36.9174 53.1685V49.2945C37.0946 47.7698 37.4489 47.0161 37.8728 47.0161Z" fill="#D1DCF8"/>
<path d="M41.5031 31.6325C41.674 32.0335 41.0917 32.5516 40.2948 33.5683C39.526 34.3408 39.003 35.3598 38.8594 36.4405C38.6962 37.0343 38.6002 37.639 38.4277 38.0174C38.2638 38.3966 38.0695 38.5854 37.8626 38.5854C37.6558 38.5854 37.4638 38.3966 37.3014 38.0174C37.1531 37.6398 36.9642 37.099 36.9876 36.1775C37.1867 34.6919 37.9032 33.2882 38.9577 32.2325C40.376 31.1206 41.379 31.2783 41.5031 31.6325Z" fill="#D1DCF8"/>
<path d="M58.302 31.1425C58.302 31.5459 57.548 31.9103 56.0228 32.0772H52.1474C50.6238 31.9095 49.8698 31.5459 49.8698 31.1323C49.8698 30.7188 50.6238 30.3646 52.1474 30.1874H56.0228C57.548 30.3653 58.302 30.7196 58.302 31.1425Z" fill="#D1DCF8"/>
<path d="M75.1672 31.1425C75.1672 31.5459 74.4132 31.9103 72.888 32.0772H69.0126C67.489 31.9095 66.735 31.5459 66.735 31.1323C66.735 30.7188 67.489 30.3646 69.0126 30.1874H72.888C74.4132 30.3653 75.1672 30.7196 75.1672 31.1425Z" fill="#D1DCF8"/>
<path d="M92.0324 31.1425C92.0324 31.5459 91.2784 31.9103 89.7532 32.0772H85.8778C84.3542 31.9095 83.6002 31.5459 83.6002 31.1323C83.6002 30.7188 84.3542 30.3646 85.8778 30.1874H89.7532C91.2784 30.3653 92.0324 30.7196 92.0324 31.1425Z" fill="#D1DCF8"/>
<path d="M108.883 31.3219C108.833 31.5193 108.607 31.6528 108.244 31.7604C107.874 31.858 107.416 31.9891 106.62 32.0772H102.744C101.22 31.9095 100.465 31.5459 100.465 31.1323C100.465 30.7188 101.219 30.3646 102.744 30.1874H106.62C107.349 30.2694 108.033 30.4083 108.412 30.6478C108.798 30.8741 108.934 31.1198 108.883 31.3219Z" fill="#D1DCF8"/>
<path d="M113.431 46.0439C113.028 46.0439 112.663 45.2902 112.496 43.7656V39.8916C112.663 38.3685 113.028 37.6147 113.441 37.6147C113.855 37.6147 114.209 38.3685 114.387 39.8916V43.7656C114.209 45.2902 113.855 46.0439 113.431 46.0439Z" fill="#D1DCF8"/>
<path d="M113.431 62.903C113.028 62.903 112.663 62.1493 112.496 60.6247V56.7507C112.663 55.2276 113.028 54.4739 113.441 54.4739C113.855 54.4739 114.209 55.2276 114.387 56.7507V60.6247C114.209 62.1493 113.855 62.903 113.431 62.903Z" fill="#D1DCF8"/>
<path d="M106.982 75.8897C106.984 75.4504 107.794 75.2335 108.949 74.7146C109.987 74.3893 110.914 73.7135 111.547 72.8256C112.414 71.8729 112.837 71.2175 113.267 71.3197C113.632 71.3821 113.945 72.3418 113.085 73.925C112.217 75.1422 110.949 76.0676 109.519 76.5163C108.646 76.6926 107.977 76.6091 107.563 76.4531C107.159 76.3009 106.988 76.0988 106.982 75.8897Z" fill="#D1DCF8"/>
<path d="M90.117 75.8898C90.117 75.4863 90.871 75.1219 92.3962 74.955H96.2716C97.7953 75.1227 98.5493 75.4863 98.5493 75.8999C98.5493 76.3135 97.7953 76.6677 96.2716 76.8448H92.3962C90.871 76.6669 90.117 76.3127 90.117 75.8898Z" fill="#D1DCF8"/>
<path d="M75.7284 70.921C76.1546 70.8499 76.5316 71.5335 77.334 72.5424C77.9046 73.4701 78.7827 74.2145 79.8005 74.6039C80.9362 75.2078 81.6793 75.4591 81.684 75.8999C81.7105 76.269 80.8621 76.8074 79.1105 76.3642C77.7102 75.825 76.5098 74.8106 75.7253 73.538C74.9721 71.8955 75.3507 70.96 75.7284 70.921Z" fill="#D1DCF8"/>
<path d="M75.6387 54.0673C76.0422 54.0673 76.4067 54.8211 76.5738 56.3457V60.2197C76.4067 61.7428 76.0422 62.4965 75.6285 62.4965C75.2148 62.4965 74.8605 61.7428 74.6833 60.2197V56.3457C74.8605 54.8211 75.2148 54.0673 75.6387 54.0673Z" fill="#D1DCF8"/>
<path d="M75.6387 37.2083C76.0422 37.2083 76.4067 37.962 76.5738 39.4866V43.3606C76.4067 44.8837 76.0422 45.6374 75.6285 45.6374C75.2148 45.6374 74.8605 44.8837 74.6833 43.3606V39.4866C74.8605 37.962 75.2148 37.2083 75.6387 37.2083Z" fill="#D1DCF8"/>
<path d="M75.6387 20.3491C76.0422 20.3491 76.4067 21.1029 76.5738 22.6275V26.5015C76.4067 28.0246 76.0422 28.7783 75.6285 28.7783C75.2148 28.7783 74.8605 28.0246 74.6833 26.5015V22.6275C74.8605 21.1029 75.2148 20.3491 75.6387 20.3491Z" fill="#D1DCF8"/>
<path d="M76.7377 3.72019C77.0859 3.96909 76.8689 4.72205 76.7128 5.99855C76.5785 6.55644 76.5637 7.00977 76.573 7.70343V9.6416C76.406 11.1654 76.0415 11.92 75.6278 11.92C75.2141 11.92 74.8597 11.1654 74.6825 9.6416V7.70343C74.67 7.10731 74.6895 6.25838 74.8738 5.55849C75.5138 3.86922 76.4403 3.47831 76.7377 3.72019Z" fill="#D1DCF8"/>
<path d="M92.767 1.17495C92.767 1.57835 92.013 1.94273 90.4878 2.1097H86.6124C85.0887 1.94195 84.3347 1.57835 84.3347 1.16481C84.3347 0.751268 85.0887 0.397029 86.6116 0.21991H90.487C92.013 0.397029 92.767 0.751268 92.767 1.17495Z" fill="#D1DCF8"/>
<path d="M109.632 1.17495C109.632 1.57835 108.878 1.94273 107.353 2.1097H103.478C101.954 1.94195 101.2 1.57835 101.2 1.16481C101.2 0.751268 101.954 0.397029 103.478 0.21991H107.353C108.878 0.397029 109.632 0.751268 109.632 1.17495Z" fill="#D1DCF8"/>
<path d="M126.498 1.17495C126.498 1.57835 125.744 1.94273 124.218 2.1097H120.343C118.819 1.94195 118.065 1.57835 118.065 1.16481C118.065 0.751268 118.819 0.397029 120.343 0.21991H124.218C125.744 0.397029 126.498 0.751268 126.498 1.17495Z" fill="#D1DCF8"/>
<path d="M143.363 1.17495C143.363 1.57835 142.609 1.94273 141.083 2.1097H137.208C135.684 1.94195 134.93 1.57835 134.93 1.16481C134.93 0.751268 135.684 0.397029 137.208 0.21991H141.083C142.609 0.397029 143.363 0.751268 143.363 1.17495Z" fill="#D1DCF8"/>
<path d="M160.228 1.17495C160.228 1.57835 159.474 1.94273 157.949 2.1097H154.073C152.55 1.94195 151.796 1.57835 151.796 1.16481C151.796 0.751268 152.55 0.397029 154.073 0.21991H157.949C159.474 0.397029 160.228 0.751268 160.228 1.17495Z" fill="#D1DCF8"/>
<path d="M177.093 1.17495C177.093 1.57835 176.339 1.94273 174.814 2.1097H170.939C169.415 1.94195 168.661 1.57835 168.661 1.16481C168.661 0.751268 169.415 0.397029 170.939 0.21991H174.814C176.339 0.397029 177.093 0.751268 177.093 1.17495Z" fill="#D1DCF8"/>
<path d="M193.958 1.17495C193.958 1.57835 193.204 1.94273 191.679 2.1097H187.804C186.28 1.94195 185.526 1.57835 185.526 1.16481C185.526 0.751268 186.28 0.397029 187.804 0.21991H191.679C193.204 0.397029 193.958 0.751268 193.958 1.17495Z" fill="#D1DCF8"/>
<path d="M210.824 1.17495C210.824 1.57835 210.07 1.94273 208.545 2.1097H204.669C203.145 1.94195 202.391 1.57835 202.391 1.16481C202.391 0.751268 203.145 0.397029 204.669 0.21991H208.545C210.07 0.397029 210.824 0.751268 210.824 1.17495Z" fill="#D1DCF8"/>
<path d="M227.689 1.17495C227.689 1.57835 226.935 1.94273 225.41 2.1097H221.534C220.011 1.94195 219.257 1.57835 219.257 1.16481C219.257 0.751268 220.011 0.397029 221.534 0.21991H225.41C226.935 0.397029 227.689 0.751268 227.689 1.17495Z" fill="#D1DCF8"/>
<path d="M244.554 1.17495C244.554 1.57835 243.8 1.94273 242.275 2.1097H238.4C236.876 1.94195 236.122 1.57835 236.122 1.16481C236.122 0.751268 236.876 0.397029 238.4 0.21991H242.275C243.8 0.397029 244.554 0.751268 244.554 1.17495Z" fill="#D1DCF8"/>
<path d="M261.396 1.41683C261.338 1.61268 261.107 1.73596 260.74 1.82959C260.338 1.91542 259.944 2.01139 259.142 2.1097H255.265C253.74 1.94195 252.986 1.57835 252.986 1.16481C252.986 0.751268 253.741 0.397029 255.265 0.21991H259.142C259.866 0.289353 260.612 0.475055 260.953 0.724739C261.331 0.96584 261.456 1.21708 261.396 1.41683Z" fill="#D1DCF8"/>
<path d="M265.713 16.3152C265.31 16.3152 264.945 15.5614 264.778 14.0368V10.1628C264.945 8.63972 265.31 7.88599 265.723 7.88599C266.137 7.88599 266.491 8.63972 266.668 10.1628V14.0368C266.491 15.5614 266.137 16.3152 265.713 16.3152Z" fill="#D1DCF8"/>
<path d="M265.713 33.1743C265.31 33.1743 264.945 32.4206 264.778 30.8959V27.0219C264.945 25.4988 265.31 24.7451 265.723 24.7451C266.137 24.7451 266.491 25.4988 266.668 27.0219V30.8959C266.491 32.4206 266.137 33.1743 265.713 33.1743Z" fill="#D1DCF8"/>
<path d="M265.713 50.0334C265.31 50.0334 264.945 49.2797 264.778 47.7551V43.8811C264.945 42.358 265.31 41.6042 265.723 41.6042C266.137 41.6042 266.491 42.358 266.668 43.8811V47.7551C266.491 49.2797 266.137 50.0334 265.713 50.0334Z" fill="#D1DCF8"/>
<path d="M265.713 66.8925C265.31 66.8925 264.945 66.1388 264.778 64.6142V60.7402C264.945 59.2171 265.31 58.4634 265.723 58.4634C266.137 58.4634 266.491 59.2171 266.668 60.7402V64.6142C266.491 66.1388 266.137 66.8925 265.713 66.8925Z" fill="#D1DCF8"/>
<path d="M265.713 82.2871C265.31 82.2871 264.945 81.6644 264.778 80.4043V77.2037C264.945 75.9452 265.31 75.3225 265.723 75.3225C266.137 75.3225 266.491 75.9452 266.668 77.2037V80.4043C266.491 81.6644 266.137 82.2871 265.713 82.2871Z" fill="#D1DCF8"/>
<path d="M305.306 258.399L306.839 258.983C308.983 258.14 311.137 257.287 313.092 256.066C315.041 254.839 316.79 253.196 317.79 251.122C319.139 248.32 318.996 245.034 319.966 242.08C321.051 238.773 323.458 236.067 326.071 233.766C328.684 231.465 331.565 229.463 334.004 226.983C336.443 224.498 338.465 221.401 338.808 217.942C339.05 215.535 338.086 212.666 335.763 212.007C334.983 211.786 334.151 211.849 333.345 211.944C326.561 212.766 320.113 216.109 315.535 221.174C310.958 226.245 308.287 233.002 308.166 239.831C308.109 243.054 308.598 246.272 308.482 249.494C308.362 252.717 307.55 256.082 305.306 258.399Z" fill="#71C687"/>
<path d="M285.747 237.504C285.752 238.351 285.921 239.22 286.205 240.01C287.311 243.048 290.045 245.444 293.206 246.134C294.012 246.308 294.844 246.382 295.603 246.703C296.361 247.024 297.057 247.667 297.141 248.483C297.247 249.525 296.367 250.452 296.367 251.5C296.367 252.485 297.173 253.312 298.068 253.717C300.134 254.638 302.609 254.149 303.858 256.36C303.879 256.392 303.894 256.429 303.916 256.466C304.406 257.387 304.31 259.483 304.974 260.178C305.606 260.841 305.811 259.809 305.901 258.872C305.938 258.456 305.954 258.061 305.97 257.84C305.991 257.603 306.007 257.372 306.023 257.134C306.349 252.422 306.086 247.577 304.321 243.154C302.325 238.156 298.132 233.801 292.859 232.759C290.763 232.343 288.329 232.569 286.901 234.149C286.078 235.061 285.742 236.266 285.747 237.504Z" fill="#71C687"/>
<path d="M285.747 237.504C285.752 238.351 285.921 239.22 286.205 240.01C287.311 243.048 290.045 245.445 293.206 246.134C294.012 246.308 294.844 246.382 295.603 246.703C296.361 247.025 297.057 247.667 297.141 248.483C297.246 249.525 296.367 250.452 296.367 251.5C296.367 252.485 297.173 253.312 298.068 253.717C300.134 254.638 302.609 254.149 303.858 256.36C304.437 257.229 304.996 258.477 305.664 258.793C305.754 258.836 305.833 258.862 305.902 258.872C306.476 258.956 306.265 257.961 306.023 257.135C305.912 256.776 305.802 256.45 305.743 256.255C304.316 251.516 302.272 246.824 298.848 243.175C295.487 239.589 290.604 237.161 285.747 237.504Z" fill="#61BA76"/>
<path d="M305.306 258.398L306.07 258.688C307.676 256.918 308.688 254.586 309.304 252.247C310.115 249.125 310.342 245.881 311.1 242.748C312.707 236.108 316.79 230.094 322.363 226.145C326.935 222.901 332.493 221.068 338.097 220.895C338.461 219.947 338.708 218.957 338.808 217.941C339.05 215.535 338.086 212.665 335.763 212.006C334.983 211.786 334.151 211.849 333.345 211.943C326.561 212.765 320.113 216.108 315.535 221.174C310.958 226.244 308.287 233.001 308.166 239.83C308.109 243.053 308.598 246.271 308.482 249.493C308.362 252.716 307.55 256.082 305.306 258.398Z" fill="#61BA76"/>
<path d="M302.488 279.931C297.358 277.906 293.73 272.91 293.73 267.06C293.73 263.148 295.358 259.625 297.971 257.108H317.177C319.789 259.625 321.418 263.148 321.418 267.06C321.418 268.345 321.244 269.583 320.912 270.762C319.75 274.963 316.649 278.352 312.637 279.931H302.488Z" fill="#D1DCF8"/>
<path d="M302.488 279.931C297.358 277.906 293.73 272.91 293.73 267.06C293.73 263.148 295.358 259.625 297.971 257.108H299.178C299.662 261.726 302.164 266.139 305.978 268.819C310.25 271.82 316.019 272.547 320.913 270.762C319.75 274.963 316.65 278.352 312.637 279.931H302.488Z" fill="#BBCAEA"/>
<path d="M308.412 30.8584V48.2902C308.412 49.9069 307.099 51.2232 305.478 51.2232H206.014C204.392 51.2232 203.08 49.9061 203.08 48.2902V30.8584C203.08 29.2417 204.393 27.9254 206.014 27.9254H305.477C307.099 27.9254 308.412 29.2424 308.412 30.8584Z" fill="#EAEAFA"/>
<path d="M226.442 27.9254H206.014C204.392 27.9254 203.08 29.2424 203.08 30.8584V48.2902C203.08 49.9069 204.393 51.2232 206.014 51.2232H226.442V27.9254Z" fill="#D1DCF8"/>
<path d="M300.653 35.1709C300.653 35.7202 300.43 36.2133 300.071 36.573C299.711 36.9327 299.217 37.1551 298.668 37.1551H234.911C233.815 37.1551 232.926 36.2663 232.926 35.1709C232.926 34.6215 233.148 34.1284 233.508 33.7687C233.868 33.409 234.365 33.1866 234.911 33.1866H298.668C299.764 33.1866 300.653 34.0761 300.653 35.1709Z" fill="white"/>
<path d="M268.186 44.2102C268.186 44.7595 267.964 45.2526 267.604 45.6123C267.244 45.972 266.751 46.1944 266.201 46.1944H234.911C233.816 46.1944 232.926 45.3057 232.926 44.2102C232.926 43.6609 233.149 43.1678 233.509 42.8081C233.869 42.4484 234.366 42.226 234.911 42.226H266.201C267.296 42.226 268.186 43.1147 268.186 44.2102Z" fill="white"/>
<path d="M308.412 64.9636V82.3954C308.412 84.0121 307.099 85.3284 305.478 85.3284H206.014C204.392 85.3284 203.08 84.0113 203.08 82.3954V64.9636C203.08 63.3469 204.393 62.0306 206.014 62.0306H305.477C307.099 62.0306 308.412 63.3469 308.412 64.9636Z" fill="#EAEAFA"/>
<path d="M226.442 62.0306H206.014C204.392 62.0306 203.08 63.3477 203.08 64.9636V82.3954C203.08 84.0121 204.393 85.3284 206.014 85.3284H226.442V62.0306Z" fill="#D1DCF8"/>
<path d="M300.653 69.0436C300.653 69.5929 300.43 70.086 300.071 70.4457C299.711 70.8054 299.217 71.0278 298.668 71.0278H234.911C233.815 71.0278 232.926 70.1391 232.926 69.0436C232.926 68.4943 233.148 68.0012 233.508 67.6415C233.868 67.2818 234.365 67.0594 234.911 67.0594H298.668C299.764 67.0602 300.653 67.9489 300.653 69.0436Z" fill="white"/>
<path d="M268.186 78.083C268.186 78.6323 267.964 79.1254 267.604 79.4851C267.244 79.8448 266.751 80.0671 266.201 80.0671H234.911C233.816 80.0671 232.926 79.1784 232.926 78.083C232.926 77.5337 233.149 77.0406 233.509 76.6809C233.869 76.3212 234.366 76.0988 234.911 76.0988H266.201C267.296 76.0988 268.186 76.9883 268.186 78.083Z" fill="white"/>
<path d="M214.761 79.9837C218.244 79.9837 221.068 77.161 221.068 73.6791C221.068 70.1973 218.244 67.3746 214.761 67.3746C211.278 67.3746 208.454 70.1973 208.454 73.6791C208.454 77.161 211.278 79.9837 214.761 79.9837Z" fill="#64D3FF"/>
<path d="M214.761 45.8792C218.244 45.8792 221.068 43.0565 221.068 39.5746C221.068 36.0927 218.244 33.2701 214.761 33.2701C211.278 33.2701 208.454 36.0927 208.454 39.5746C208.454 43.0565 211.278 45.8792 214.761 45.8792Z" fill="#64D3FF"/>
<path d="M281.695 105.817C281.695 101.364 278.084 97.7549 273.63 97.7549H76.2171C71.7625 97.7549 68.1517 101.364 68.1517 105.817V213.561H281.694V105.817H281.695Z" fill="#1B2C8E"/>
<path d="M72.9911 208.723V105.817C72.9911 104.037 74.4351 102.593 76.2163 102.593H273.629C275.411 102.593 276.855 104.038 276.855 105.819V208.723H72.9911Z" fill="white"/>
<path d="M211.324 110.168H80.5686V201.147H211.324V110.168Z" fill="#E4ECF9"/>
<path d="M68.1517 213.561V232.864C68.1517 237.317 71.7633 240.927 76.2178 240.927H273.629C278.083 240.927 281.694 237.317 281.694 232.864V213.561H68.1517Z" fill="#E4ECF9"/>
<path d="M180.408 228.186C181.123 225.156 179.246 222.119 176.215 221.404C173.184 220.689 170.147 222.565 169.431 225.595C168.715 228.625 170.592 231.661 173.623 232.377C176.655 233.092 179.692 231.216 180.408 228.186Z" fill="#D1DCF8"/>
<path d="M200.931 240.927H148.916V265.984H200.931V240.927Z" fill="#D1DCF8"/>
<path d="M200.931 240.927H148.916V248.458H200.931V240.927Z" fill="#BBCAEA"/>
<path d="M211.508 265.983H138.339V270.872H211.508V265.983Z" fill="#E4ECF9"/>
<path d="M264.012 153.366H228.689C224.805 153.366 221.656 150.218 221.656 146.336V114.916C221.656 111.033 224.805 107.886 228.689 107.886H264.012C267.896 107.886 271.045 111.033 271.045 114.916V146.336C271.045 150.218 267.896 153.366 264.012 153.366Z" fill="#E4ECF9"/>
<path d="M252.99 130.478C256.659 126.81 256.659 120.865 252.99 117.198C249.322 113.53 243.374 113.53 239.705 117.198C236.037 120.865 236.037 126.81 239.705 130.478C243.374 134.145 249.322 134.145 252.99 130.478Z" fill="#FE4C40"/>
<path d="M249.953 124.134L244.549 127.62C244.3 127.771 243.988 127.606 243.988 127.323V120.351C243.988 120.067 244.3 119.903 244.549 120.054L249.953 123.539C250.176 123.676 250.176 123.998 249.953 124.134Z" fill="white"/>
<path d="M265.723 140.112C265.723 140.52 265.561 140.885 265.293 141.149C265.03 141.416 264.661 141.578 264.257 141.578H228.444C227.632 141.578 226.978 140.925 226.978 140.112C226.978 139.709 227.14 139.344 227.408 139.077C227.671 138.809 228.035 138.647 228.444 138.647H264.257C265.069 138.646 265.723 139.305 265.723 140.112Z" fill="#D1DCF8"/>
<path d="M243.465 146.603C243.465 147.011 243.302 147.376 243.035 147.639C242.772 147.907 242.402 148.069 241.999 148.069H228.444C227.632 148.069 226.978 147.415 226.978 146.603C226.978 146.2 227.14 145.835 227.408 145.568C227.671 145.3 228.035 145.138 228.444 145.138H241.998C242.811 145.137 243.465 145.795 243.465 146.603Z" fill="#D1DCF8"/>
<path d="M264.012 205.245H228.689C224.805 205.245 221.656 202.098 221.656 198.215V166.796C221.656 162.913 224.805 159.766 228.689 159.766H264.012C267.896 159.766 271.045 162.913 271.045 166.796V198.215C271.045 202.098 267.896 205.245 264.012 205.245Z" fill="#E4ECF9"/>
<path d="M252.99 182.357C256.658 178.69 256.658 172.744 252.99 169.077C249.321 165.41 243.374 165.41 239.705 169.077C236.037 172.744 236.037 178.69 239.705 182.357C243.373 186.024 249.321 186.024 252.99 182.357Z" fill="#FE4C40"/>
<path d="M249.953 176.014L244.549 179.5C244.3 179.65 243.988 179.486 243.988 179.203V172.231C243.988 171.947 244.3 171.783 244.549 171.934L249.953 175.419C250.176 175.556 250.176 175.877 249.953 176.014Z" fill="white"/>
<path d="M265.723 191.992C265.723 192.4 265.561 192.764 265.293 193.028C265.03 193.296 264.661 193.458 264.257 193.458H228.444C227.632 193.458 226.978 192.804 226.978 191.992C226.978 191.589 227.14 191.224 227.408 190.957C227.671 190.689 228.035 190.527 228.444 190.527H264.257C265.069 190.526 265.723 191.184 265.723 191.992Z" fill="#D1DCF8"/>
<path d="M243.465 198.483C243.465 198.891 243.302 199.255 243.035 199.519C242.772 199.787 242.402 199.949 241.999 199.949H228.444C227.632 199.949 226.978 199.295 226.978 198.483C226.978 198.08 227.14 197.715 227.408 197.448C227.671 197.18 228.035 197.018 228.444 197.018H241.998C242.811 197.017 243.465 197.675 243.465 198.483Z" fill="#D1DCF8"/>
<path d="M217.777 176.845C217.777 176.845 215.058 175.538 208.48 177.042C205.533 177.711 198.954 178.184 192.123 177.806C183.701 177.325 174.9 175.538 172.095 171.206C167.029 163.353 166.793 156.651 166.793 156.651L185.805 153.445C185.805 153.445 188.799 160.29 190.54 161.085C191.06 161.321 193.424 161.928 196.528 162.676C196.536 162.676 196.544 162.684 196.544 162.684C203.895 164.44 215.359 166.952 216.17 166.984C217.328 167.031 225.183 161.967 226.152 164.204C227.113 166.448 224.166 167.913 224.166 167.913C224.166 167.913 234.953 167.551 235.378 169.623C235.803 171.678 232.596 179.089 217.777 176.845Z" fill="#A8735B"/>
<path d="M188.019 164.63C186.238 167.134 187.561 170.607 189.129 173.254C190.059 174.814 191.06 176.334 192.123 177.806C183.701 177.325 174.9 175.538 172.095 171.206C167.029 163.353 166.793 156.651 166.793 156.651L185.805 153.445C185.805 153.445 188.799 160.29 190.54 161.085C191.06 161.321 193.424 161.928 196.528 162.676C193.463 162.243 189.791 162.125 188.019 164.63Z" fill="#9E6B57"/>
<path d="M113.12 170.969C112.672 175.205 111.643 185.354 111.018 194.167C110.843 196.669 110.704 199.034 110.618 201.148H173.293L169.94 170.996L169.105 167.499L169.078 167.411L167.707 161.629L167.602 161.18C167.602 161.18 186.826 160.178 186.36 154.634C186.237 153.166 185.753 150.011 184.98 146.049C184.83 145.275 184.672 144.458 184.487 143.623C184.382 143.096 184.267 142.561 184.153 142.015C181.823 131.312 177.85 117.35 173.042 112.288C170.132 109.239 162.599 108 153.862 107.948C144.632 107.877 134.075 109.125 126.216 110.935C122.463 111.797 119.334 112.789 117.25 113.817C112.434 115.496 108.311 118.764 104.716 123.176C103.705 125.083 102.175 126.761 100.927 128.536C100.461 129.292 100.003 130.065 99.5553 130.865C99.0894 131.884 98.8084 132.974 98.8255 134.186C98.8958 138.184 98.2362 141.497 95.5028 144.054C94.922 147.718 93.6302 151.322 91.5118 154.3C89.2881 157.454 87.7145 161.013 86.642 164.721C86.5804 164.923 86.5187 165.143 86.4578 165.354C86.4578 165.354 91.6266 169.949 101.05 170.477C104.566 170.688 108.689 170.327 113.33 168.948C113.33 168.948 113.26 169.686 113.12 170.969Z" fill="#64D3FF"/>
<path d="M173.292 201.147L169.942 170.991L169.106 167.495L169.083 167.411L167.71 161.629L167.603 161.184C167.603 161.184 186.826 160.179 186.358 154.636C186.235 153.164 185.76 150.012 184.985 146.049C183.596 146.776 182.047 147.23 180.528 147.674C175.182 149.238 168.869 150.633 164.49 147.183C161.721 144.998 160.532 141.394 159.688 137.967C159.067 146.808 161.82 155.901 159.45 164.443C157.708 170.716 153.383 175.929 148.841 180.591C139.806 189.873 128.867 198.062 116.417 201.147H173.292Z" fill="#42C1F4"/>
<path d="M155.714 75.4675C152.316 81.9749 150.217 89.2407 149.596 96.6501C149.194 101.446 149.446 106.465 151.486 110.767C154.376 116.866 160.408 120.603 166.508 122.78C168.731 123.574 171.046 124.212 173.39 124.13C175.734 124.048 178.134 123.17 179.71 121.328C181.287 119.486 181.852 116.594 180.712 114.42C180.023 113.108 178.836 112.194 177.798 111.172C176.76 110.15 175.794 108.846 175.801 107.344C175.811 104.633 178.862 102.905 179.239 100.222C179.562 97.918 177.808 95.8963 176.038 94.5168C174.268 93.1373 172.214 91.8366 171.458 89.6488C170.53 86.9647 171.907 84.0832 172.49 81.2922C173.281 77.4986 172.517 73.3702 170.433 70.175C169.148 68.2056 164.583 63.3719 161.94 64.6242C160.722 65.2016 159.868 68.0988 159.225 69.245C158.06 71.3228 156.819 73.3522 155.714 75.4675Z" fill="black"/>
<path d="M163.093 94.8813C161.115 103.467 154.452 104.459 152.94 104.565C152.746 104.592 152.632 104.592 152.632 104.592C152.632 104.592 152.307 106.384 152.088 107.957C151.964 108.897 151.877 109.759 151.929 110.128C151.956 110.295 152.043 110.532 152.167 110.831C152.808 112.29 156.043 115.057 156.368 115.303V115.312C156.368 115.312 156.368 115.312 156.368 115.32C156.36 115.364 156.333 115.504 156.298 115.724C156.289 115.742 156.289 115.76 156.289 115.777C155.797 118.247 153.01 129.652 143.367 129.064C133.056 128.431 127.764 111.868 127.958 110.558C127.958 110.497 127.984 110.47 128.02 110.48C128.073 110.497 128.133 110.506 128.204 110.506C128.212 110.506 128.212 110.506 128.222 110.506C128.415 110.506 128.67 110.453 128.978 110.348C130.2 109.952 132.178 108.863 133.821 108.028C136.054 106.929 135.158 92.3696 135.158 92.3696C128.486 90.8669 130.129 85.2256 130.296 83.4333C130.455 81.6145 132.037 80.3575 135.667 75.7712C139.289 71.184 158.32 69.277 161.239 72.6868C164.165 76.1028 165.343 85.1624 163.093 94.8813Z" fill="#A8735B"/>
<path d="M153.248 98.8513C153.31 99.122 152.707 99.6136 151.286 99.623C150.09 99.4708 148.99 99.1985 147.9 98.3823C147.287 97.8057 147.151 97.0434 147.272 96.6408C147.386 96.2093 147.635 96.1 147.766 96.1586C148.058 96.2873 148.059 96.8413 148.809 97.2946C149.439 97.7854 150.498 98.1225 151.423 98.2122C152.545 98.4448 153.185 98.5212 153.248 98.8513Z" fill="#4F2D2A"/>
<path d="M145.971 82.0936C145.906 82.053 145.896 81.9009 145.998 81.6496C146.102 81.403 146.325 81.0511 146.752 80.7258C147.496 80.2186 148.457 80.0586 149.313 80.299C149.812 80.4698 150.126 80.7312 150.296 80.9325C150.466 81.1393 150.5 81.2876 150.448 81.3484C150.333 81.4936 149.945 81.2088 149.133 81.0512C148.457 80.8639 147.729 80.9856 147.14 81.3835C146.412 81.7987 146.126 82.1966 145.971 82.0936Z" fill="#4F2D2A"/>
<path d="M156.601 80.2802C156.532 80.1553 156.875 79.7184 157.845 79.4945C158.667 79.3767 159.511 79.4851 160.283 79.8073C161.174 80.2692 161.409 80.7803 161.311 80.8872C161.199 81.03 160.809 80.7912 160.016 80.5298C159.363 80.256 158.637 80.1631 157.941 80.2638C157.112 80.3176 156.68 80.4518 156.601 80.2802Z" fill="#4F2D2A"/>
<path d="M152.868 93.6196C152.931 93.5603 153.137 93.7343 153.522 94.0199C153.714 94.1556 153.963 94.3156 154.257 94.3819C154.536 94.4459 154.935 94.3905 155.14 94.1486C155.512 93.7936 155.246 92.7215 155.153 91.8874C155.022 91.0143 154.849 90.1482 154.638 89.2931C154.19 87.2628 153.904 86.2571 154.067 86.1892C154.201 86.1307 154.752 87.0389 155.346 89.0956C155.563 89.9758 155.741 90.8668 155.876 91.7649C155.945 92.2167 156 92.6599 156.047 93.1233C156.068 93.3613 156.08 93.6188 156.035 93.8966C155.992 94.1728 155.871 94.4748 155.656 94.6987C155.112 95.1988 154.505 95.1427 154.089 94.9991C153.664 94.8329 153.411 94.5723 153.232 94.3655C152.888 93.9364 152.812 93.6719 152.868 93.6196Z" fill="#4F2D2A"/>
<path d="M158.864 87.2643C159.328 87.2643 159.703 86.5489 159.703 85.6664C159.703 84.7838 159.328 84.0684 158.864 84.0684C158.401 84.0684 158.025 84.7838 158.025 85.6664C158.025 86.5489 158.401 87.2643 158.864 87.2643Z" fill="#4F2D2A"/>
<path d="M149.034 88.1421C149.498 88.1421 149.873 87.4267 149.873 86.5441C149.873 85.6616 149.498 84.9462 149.034 84.9462C148.571 84.9462 148.195 85.6616 148.195 86.5441C148.195 87.4267 148.571 88.1421 149.034 88.1421Z" fill="#4F2D2A"/>
<path d="M159.116 60.4647C153.447 56.4814 146.333 54.7009 139.594 55.6114C139.566 55.6153 139.539 55.6192 139.511 55.6231C134.922 56.2575 131 59.2389 128.92 63.3766C128.834 63.549 128.745 63.7222 128.656 63.8955C126.149 68.7502 121.328 72.0094 119.576 77.3136C117.735 82.8886 118.306 88.4152 114.746 93.433C111.678 97.7565 106.028 100.247 105.113 105.911C104.233 111.356 107.354 116.563 105.273 121.987C103.599 126.347 98.7397 129.322 98.8271 134.185C98.8989 138.185 98.2347 141.499 95.4997 144.063C95.2592 145.571 94.9103 147.069 94.4186 148.518C97.042 149.019 99.7802 148.626 101.938 147.021C106.548 143.579 106.781 136.62 108.421 130.903C110.385 124.029 115.052 118.078 121.063 114.779C124.751 112.753 130.232 111.706 133.345 108.788C138.069 104.35 137.591 95.8948 133.784 90.5578C132.572 88.8506 130.915 87.3376 130.511 85.2434C130.13 83.2865 131.086 81.1244 132.743 80.1795C134.404 79.2292 136.63 79.5764 137.962 80.9933C138.89 81.9718 139.134 87.6958 140.376 88.1397C140.54 88.1226 140.717 87.9977 140.905 87.8042C142.197 83.0587 144.542 78.53 148.264 75.5143C151.343 73.0167 155.282 71.6911 159.18 71.8276C159.465 71.8393 160.006 71.9189 160.472 72.1007C163.345 68.3905 164.238 64.0663 159.116 60.4647Z" fill="black"/>
<g opacity="0.5">
<path opacity="0.5" d="M131.899 83.6876C132.156 82.5516 133.063 81.6113 134.14 81.3632C134.599 81.2579 135.142 81.2992 135.446 81.6784C135.802 82.1232 135.656 82.8293 135.314 83.2866C134.972 83.7438 134.479 84.0419 134.069 84.4297C133.657 84.8175 133.309 85.3754 133.409 85.9489C133.477 86.3335 133.76 86.9281 133.218 87.0748C132.814 87.184 132.729 86.7915 132.555 86.5021C132.029 85.6204 131.655 84.7628 131.899 83.6876Z" fill="#774030"/>
</g>
<path d="M139.71 99.6689C141.343 103.598 144.213 106.917 147.755 108.993C149.152 109.8 150.636 110.422 152.17 110.831C152.046 110.527 151.958 110.289 151.933 110.131C151.796 109.139 152.632 104.589 152.632 104.589C152.632 104.589 152.744 104.589 152.943 104.563C148.229 104.205 143.613 102.5 139.71 99.6689Z" fill="#9E6B57"/>
<path d="M178.743 98.8676C179.195 99.69 178.985 100.724 178.583 101.571C178.181 102.419 177.601 103.181 177.285 104.063C176.469 106.343 177.598 108.889 179.177 110.724C180.756 112.558 182.783 113.979 184.279 115.882C185.775 117.785 186.676 120.476 185.565 122.627C184.911 123.895 183.649 124.796 183.117 126.119C182.488 127.682 183.018 129.466 183.757 130.979C184.496 132.493 185.456 133.944 185.732 135.605C186.009 137.267 185.33 139.259 183.732 139.789C183.214 139.961 182.623 139.955 182.147 139.691C181.731 139.46 181.44 139.061 181.16 138.677C178.379 134.868 174.802 131.039 170.113 130.522C168.168 130.307 166.162 130.691 164.266 130.208C161.978 129.623 160.084 127.706 159.527 125.412C159.259 124.303 159.281 123.131 158.931 122.045C158.151 119.619 155.646 117.986 155.093 115.5C154.522 112.937 156.253 110.392 158.326 108.781C160.399 107.17 162.881 106.112 164.822 104.344C166.849 102.496 168.183 99.9038 168.508 97.1791C170.249 96.8647 172.117 97.3281 173.509 98.4213" fill="black"/>
<path d="M92.5539 161.262C92.9832 161.262 106.716 162.835 108.576 166.268C110.436 169.7 128.604 182.284 130.178 181.998C131.751 181.713 132.323 175.277 134.469 173.99C136.615 172.703 137.903 180.425 137.903 180.425C137.903 180.425 145.358 175.86 149.793 176.93C154.228 178 154.069 188.576 147.774 192.437C141.48 196.298 133.755 196.441 130.179 196.012C126.602 195.583 94.9868 191.722 90.5518 176.563C86.1159 161.405 92.5539 161.262 92.5539 161.262Z" fill="#FEC9AC"/>
<path d="M147.773 192.438C141.478 196.296 133.754 196.444 130.179 196.011C126.599 195.584 94.9876 191.721 90.5479 176.564C86.1144 161.406 92.5515 161.264 92.5515 161.264C92.984 161.264 106.718 162.835 108.574 166.266C108.966 166.994 110.094 168.132 111.636 169.463C117.385 174.453 128.939 182.22 130.179 181.998C131.751 181.713 132.325 175.278 134.471 173.992C136.617 172.701 137.903 180.427 137.903 180.427C137.903 180.427 145.359 175.858 149.793 176.927C151.079 177.235 151.978 178.344 152.451 179.852C153.618 183.556 152.246 189.696 147.773 192.438Z" fill="#A8735B"/>
<path d="M147.773 192.438C141.478 196.296 133.754 196.444 130.179 196.011C126.599 195.584 94.9876 191.721 90.5479 176.564C86.1144 161.406 92.5515 161.264 92.5515 161.264C92.984 161.264 106.718 162.835 108.574 166.266C108.966 166.994 110.094 168.132 111.636 169.463C110.515 173.093 111.551 177.36 113.896 180.456C116.741 184.217 121.152 186.498 125.626 188.012C129.645 189.372 133.908 190.208 138.125 189.77C142.349 189.326 146.526 187.494 149.23 184.228C150.385 182.834 151.245 181.213 152.451 179.853C153.618 183.556 152.246 189.696 147.773 192.438Z" fill="#9E6B57"/>
<path d="M116.974 143.711C113.12 147.806 109.051 152.043 103.843 153.787C100.189 155.011 95.8244 154.55 92.7498 152.352C92.4571 152.883 92.1425 153.399 91.8061 153.899C89.6175 157.146 87.8238 160.641 86.7333 164.402C86.6412 164.72 86.5491 165.039 86.457 165.359C86.457 165.359 96.2099 174.017 113.337 168.946C113.337 168.946 113.255 169.686 113.12 170.969C116.35 162.355 117.726 152.948 116.974 143.711Z" fill="#42C1F4"/>
<path d="M169.705 156.174C169.758 155.731 171.197 155.707 173.886 155.196C176.183 154.885 178.418 154.081 180.387 152.858C182.783 151.541 183.907 150.643 184.238 150.957C184.515 151.193 183.875 152.668 181.381 154.466C179.185 155.828 176.705 156.72 174.145 157.069C171.074 157.273 169.64 156.542 169.705 156.174Z" fill="white"/>
<path d="M113.447 161.678C113.657 161.919 112.15 163.841 107.785 165.543C104.052 166.796 100.032 167.153 96.1366 166.578C91.5439 165.673 89.7221 164.048 89.8899 163.764C90.0889 163.317 92.1402 164.213 96.4082 164.708C100.007 165.241 103.739 164.909 107.187 163.75C111.306 162.51 113.166 161.265 113.447 161.678Z" fill="white"/>
<path d="M120.507 76.5645C121.561 83.1289 121.561 91.0048 114.47 94.9428C113.683 95.7301 112.894 97.3055 112.107 98.8808C110.531 104.394 109.743 109.908 106.017 113.601" fill="black"/>
<path d="M107.892 106.056C109.485 111.401 108.577 117.436 105.482 122.076C103.52 125.018 100.791 127.346 98.2425 129.798C95.694 132.25 93.2345 134.959 92.0497 138.291C90.8648 141.623 91.227 145.719 93.7669 148.18C95.7276 150.079 98.5672 150.697 101.26 151.148C102.805 151.407 104.384 151.638 105.93 151.393C107.476 151.149 109.012 150.357 109.788 148.998C110.897 147.059 110.232 144.527 111.134 142.484C112.245 139.966 115.276 139.013 117.978 138.485C120.679 137.956 123.699 137.397 125.309 135.165C127.303 132.398 126.176 128.344 127.817 125.355C129.307 122.641 132.672 121.501 134.525 119.022C136.381 116.54 136.417 113.189 136.374 110.091C136.328 106.775 136.214 103.238 134.323 100.514C133.103 98.7568 131.257 97.5256 129.93 95.8472C128.03 93.4433 127.329 90.2652 127.39 87.2019C127.452 84.1386 128.215 81.1377 128.973 78.1688" fill="black"/>
<path d="M60.3525 230.967H133.477C135.37 230.967 136.899 229.438 136.899 227.546V216.094C136.899 214.208 135.37 212.673 133.477 212.673H60.3525V230.967Z" fill="#42C1F4"/>
<g opacity="0.3">
<path opacity="0.3" d="M60.3525 226.973V230.967H133.477C135.37 230.967 136.899 229.438 136.899 227.546V226.973H60.3525Z" fill="#13B1E2"/>
</g>
<path d="M93.2033 230.967C95.0961 230.967 96.6252 229.438 96.6252 227.546V216.094C96.6252 214.208 95.0961 212.673 93.2033 212.673H43.4833V214.399H93.2041C94.1391 214.399 94.8994 215.159 94.8994 216.094V227.546C94.8994 228.481 94.1391 229.241 93.2041 229.241H43.4833V230.967H93.2033Z" fill="#64D3FF"/>
<path d="M44.8579 229.241H93.2041C94.1392 229.241 94.8995 228.48 94.8995 227.546V216.094C94.8995 215.159 94.1392 214.399 93.2041 214.399H44.8579V229.241Z" fill="#F6F6FE"/>
<path d="M44.854 229.245V226.941H90.3035C91.2355 226.941 91.9957 226.182 91.9957 225.25V214.403H93.204C94.1368 214.403 94.8963 215.162 94.8963 216.095V227.545C94.8963 228.478 94.1368 229.245 93.204 229.245H44.854Z" fill="#D1DCF8"/>
<path d="M126.464 270.79H26.6727C24.7799 270.79 23.2508 269.261 23.2508 267.369V254.648C23.2508 252.762 24.7799 251.227 26.6727 251.227H126.464V270.79Z" fill="#FE4C40"/>
<g opacity="0.3">
<path opacity="0.3" d="M126.464 266.796V270.79H26.6727C24.7799 270.79 23.2508 269.261 23.2508 267.369V266.796H126.464Z" fill="#EA241F"/>
</g>
<path d="M93.6131 270.79C91.7202 270.79 90.1911 269.261 90.1911 267.369V254.648C90.1911 252.762 91.7202 251.227 93.6131 251.227H140.793V252.953H93.6123C92.6772 252.953 91.9169 253.713 91.9169 254.648V267.368C91.9169 268.303 92.6772 269.063 93.6123 269.063H140.793V270.789H93.6131V270.79Z" fill="#FE7B73"/>
<path d="M139.419 269.064H93.6123C92.6772 269.064 91.9169 268.303 91.9169 267.369V254.648C91.9169 253.714 92.6772 252.954 93.6123 252.954H139.419V269.064Z" fill="#F6F6FE"/>
<path d="M139.423 269.068V266.764H96.5128C95.5808 266.764 94.8206 266.004 94.8206 265.072V252.957H93.6123C92.6795 252.957 91.9201 253.716 91.9201 254.648V267.368C91.9201 268.301 92.6795 269.068 93.6123 269.068H139.423V269.068Z" fill="#D1DCF8"/>
<path d="M43.6785 251.227H138.348C140.798 251.227 142.777 249.248 142.777 246.798V235.406C142.777 232.965 140.798 230.978 138.348 230.978H43.6785V251.227Z" fill="#FCC230"/>
<g opacity="0.3">
<path opacity="0.3" d="M43.6785 246.056V251.227H138.348C140.798 251.227 142.777 249.248 142.777 246.798V246.056H43.6785Z" fill="#F49758"/>
</g>
<path d="M86.208 251.227C88.6543 251.227 90.6376 249.244 90.6376 246.799V235.407C90.6376 232.961 88.6543 230.978 86.2073 230.978H22.9573C22.3399 230.978 21.8396 231.479 21.8396 232.096C21.8396 232.713 22.3399 233.213 22.9573 233.213H86.2088C87.421 233.213 88.4037 234.195 88.4037 235.407V246.798C88.4037 248.01 87.421 248.992 86.208 248.992H22.9573C22.3399 248.992 21.8396 249.492 21.8396 250.11C21.8396 250.727 22.3399 251.227 22.9573 251.227H86.208Z" fill="#FFCF3D"/>
<path d="M23.6192 248.992H86.2088C87.4195 248.992 88.4037 248.008 88.4037 246.798V235.407C88.4037 234.197 87.4195 233.213 86.2088 233.213H23.6192V248.992Z" fill="#F6F6FE"/>
<path d="M23.6145 248.998V246.015H82.4544C83.6611 246.015 84.6446 245.032 84.6446 243.825V233.218H86.2088C87.4156 233.218 88.3998 234.201 88.3998 235.407V246.797C88.3998 248.003 87.4163 248.998 86.2088 248.998H23.6145Z" fill="#D1DCF8"/>
</svg>
