<svg width="36" height="36" viewBox="0 0 36 36" fill="none" xmlns="http://www.w3.org/2000/svg">
<circle cx="18" cy="18" r="17" stroke="#8F98FF" stroke-width="2"/>
<path fill-rule="evenodd" clip-rule="evenodd" d="M19.9 8.99985C19.9 8.54807 19.5971 8.15241 19.161 8.0345C18.7248 7.9166 18.2638 8.10574 18.0362 8.49597L11.7362 19.296C11.5558 19.6053 11.5545 19.9874 11.7328 20.2979C11.9112 20.6084 12.2419 20.7998 12.6 20.7998H16.1V26.9998C16.1 27.4516 16.4029 27.8473 16.839 27.9652C17.2751 28.0831 17.7361 27.8939 17.9638 27.5037L24.2638 16.7037C24.4442 16.3944 24.4455 16.0123 24.2671 15.7018C24.0888 15.3913 23.758 15.1998 23.4 15.1998H19.9V8.99985Z" fill="#8F98FF"/>
</svg>
