<svg width="34" height="34" viewBox="0 0 34 34" fill="none" xmlns="http://www.w3.org/2000/svg">
<path fill-rule="evenodd" clip-rule="evenodd" d="M17 1.78947C8.59946 1.78947 1.78947 8.59946 1.78947 17C1.78947 25.4005 8.59946 32.2105 17 32.2105C25.4005 32.2105 32.2105 25.4005 32.2105 17C32.2105 8.59946 25.4005 1.78947 17 1.78947ZM0 17C0 7.61116 7.61116 0 17 0C26.3888 0 34 7.61116 34 17C34 26.3888 26.3888 34 17 34C7.61116 34 0 26.3888 0 17Z" fill="#CFCFCF"/>
<path fill-rule="evenodd" clip-rule="evenodd" d="M16.5155 11.5174C14.7512 10.4718 12.5829 11.8328 12.5829 13.986L12.5829 20.014C12.5829 22.1672 14.7512 23.5282 16.5155 22.4825L21.601 19.4685C23.4164 18.3926 23.4164 15.6074 21.601 14.5314L16.5155 11.5174ZM10.8182 13.986C10.8182 10.3973 14.4319 8.12896 17.3725 9.87176L22.458 12.8857C25.4837 14.679 25.4837 19.321 22.458 21.1142L17.3725 24.1282C14.4319 25.871 10.8182 23.6026 10.8182 20.014L10.8182 13.986Z" fill="#CFCFCF"/>
</svg>
