<svg width="190" height="143" viewBox="0 0 190 143" fill="none" xmlns="http://www.w3.org/2000/svg">
<g clip-path="url(#clip0_438_3469)">
<path d="M124.094 42.2306L9.27737 42.9253C3.53373 42.9589 -0.59451 38.3986 0.0673542 32.7402L2.59141 11.003C3.25328 5.3446 8.43601 0.728248 14.1909 0.694634L129.008 -5.95009e-05C134.751 -0.0336737 138.879 4.52665 138.218 10.185L135.693 31.9222C135.032 37.5806 129.838 42.197 124.094 42.2306Z" fill="#F8B800"/>
<path d="M166.936 122.591L13.9664 123.734C5.57534 123.79 -0.448745 117.123 0.516007 108.865L6.5401 57.0769C7.50485 48.819 15.0882 42.0738 23.4681 42.0177L176.437 40.8749C184.828 40.8188 190.853 47.4857 189.888 55.7435L183.864 107.532C182.91 115.801 175.327 122.535 166.936 122.591Z" fill="#006B17"/>
<path d="M20.2822 31.362V14.3868H16.7934V12.4708H25.8688V14.3868H22.38V31.362H20.2822V31.362Z" fill="black"/>
<path d="M28.4377 27.5524L27.7085 31.362H25.7678L29.3913 12.4821H32.4426L36.066 31.362H33.957L33.2278 27.5524H28.4377ZM28.7069 25.7485H32.9249L30.7935 14.8463L28.7069 25.7485Z" fill="black"/>
<path d="M40.9122 23.1602L39.8016 25.0202V31.362H37.6926V12.4821H39.8016V21.6027L44.8273 12.4821H46.9587L42.1798 21.0873L47.1158 31.362H44.9507L40.9122 23.1602Z" fill="black"/>
<path d="M55.462 20.8408V22.7344H50.8401V29.4572H56.5165V31.3732H48.7424V12.4821H56.5165V14.3981H50.8401V20.8408H55.462Z" fill="black"/>
<path d="M64.773 27.5524L64.0438 31.362H62.1031L65.7265 12.4821H68.7778L72.4012 31.362H70.2923L69.5631 27.5524H64.773ZM65.0534 25.7485H69.2714L67.14 14.8463L65.0534 25.7485Z" fill="black"/>
<path d="M86.7379 17.0312V26.8017C86.7379 27.967 86.4911 28.9867 86.0087 29.7374C86.2219 30.1968 86.5809 30.3312 87.1754 30.3312H87.4446V32.1912H87.0969C85.9078 32.1912 85.1225 31.7654 84.6962 30.9811C84.1017 31.3284 83.3164 31.5525 82.3965 31.5525C79.5023 31.5525 78.0776 29.6589 78.0776 26.8017V17.0312C78.0776 14.1404 79.5135 12.2804 82.3965 12.2804C85.302 12.2916 86.7379 14.1516 86.7379 17.0312ZM80.1417 16.9304V26.9138C80.1417 28.6393 80.8709 29.6365 82.3853 29.6365C83.9222 29.6365 84.6289 28.6393 84.6289 26.9138V16.9304C84.6289 15.2272 83.9222 14.2076 82.3853 14.2076C80.8709 14.2076 80.1417 15.2272 80.1417 16.9304Z" fill="black"/>
<path d="M91.0793 26.9137C91.0793 28.6169 91.7524 29.6365 93.2893 29.6365C94.8037 29.6365 95.4768 28.6057 95.4768 26.9137V12.4821H97.4511V26.8129C97.4511 29.6701 96.1274 31.5861 93.2107 31.5861C90.3165 31.5861 88.9927 29.6701 88.9927 26.8129V12.4821H91.0681V26.9137H91.0793Z" fill="black"/>
<path d="M101.635 12.4821V31.362H99.5265V12.4821H101.635Z" fill="black"/>
<path d="M112.147 17.0312V18.7343H110.15V16.9304C110.15 15.2272 109.477 14.2076 107.94 14.2076C106.426 14.2076 105.73 15.2384 105.73 16.9304V26.9138C105.73 28.6169 106.437 29.6365 107.94 29.6365C109.477 29.6365 110.15 28.6057 110.15 26.9138V24.4599H112.147V26.8017C112.147 29.6589 110.801 31.5525 107.884 31.5525C104.99 31.5525 103.643 29.6589 103.643 26.8017V17.0312C103.643 14.174 104.99 12.2804 107.884 12.2804C110.789 12.2916 112.147 14.174 112.147 17.0312Z" fill="black"/>
<path d="M117.273 23.1602L116.163 25.0202V31.362H114.054V12.4821H116.163V21.6027L121.189 12.4821H123.32L118.541 21.0873L123.488 31.362H121.323L117.273 23.1602Z" fill="black"/>
<path d="M21.5723 65.8278C21.5723 56.1245 26.6878 50.5781 36.066 50.5781C45.4443 50.5781 50.5597 56.1245 50.5597 65.8278V97.3691C50.5597 100.753 49.954 103.61 48.7424 105.862C49.1799 106.983 49.8754 107.162 51.4348 107.162H52.2985V115.655H50.9973C46.7456 115.655 44.0533 114.098 42.752 111.498C40.8449 112.193 38.5901 112.63 36.066 112.63C26.699 112.63 21.5723 107.084 21.5723 97.3803V65.8278V65.8278ZM31.1189 97.9741C31.1189 102.31 33.026 103.957 36.066 103.957C39.1061 103.957 41.0132 102.31 41.0132 97.9741V65.2227C41.0132 60.8865 39.1061 59.2394 36.066 59.2394C33.026 59.2394 31.1189 60.8865 31.1189 65.2227V97.9741V97.9741Z" fill="white"/>
<path d="M63.6624 51.2728V98.075C63.6624 102.411 65.5695 103.969 68.6096 103.969C71.6496 103.969 73.5567 102.411 73.5567 98.075V51.2728H82.576V97.4699C82.576 107.173 77.7186 112.72 68.3403 112.72C58.962 112.72 54.1158 107.173 54.1158 97.4699V51.2728H63.6624Z" fill="white"/>
<path d="M86.9062 51.2728H96.4528V111.935H86.9062V51.2728Z" fill="white"/>
<path d="M127.684 51.2728V59.766L109.555 103.263H127.695V111.924H99.7509V103.431L117.89 59.9229H100.615V51.2616H127.684V51.2728Z" fill="white"/>
<path d="M149.649 103.095C149.088 101.403 148.796 99.5652 148.796 97.0218C148.796 75.4078 165.769 73.4246 165.769 48.8414C165.769 41.7712 162.942 39.0933 157.984 39.0933C153.025 39.0933 150.21 41.7824 150.21 48.8414V59.5755H135.503V49.8274C135.503 34.0063 143.288 24.9641 158.421 24.9641C173.554 24.9641 181.34 34.0063 181.34 49.8274C181.34 75.5423 162.953 79.4975 162.953 97.582C162.953 99.4196 163.099 101.257 163.525 103.095H149.649ZM163.94 110.019V125H148.942V110.019H163.94Z" fill="#F8B800"/>
</g>
<defs>
<clipPath id="clip0_438_3469">
<rect width="190" height="143" fill="white"/>
</clipPath>
</defs>
</svg>
