<svg width="20" height="20" viewBox="0 0 20 20" fill="none" xmlns="http://www.w3.org/2000/svg">
<path fill-rule="evenodd" clip-rule="evenodd" d="M10 2C5.58172 2 2 5.58172 2 10C2 11.1595 2.24615 12.2601 2.68899 13.2535C3.57031 12.4741 4.7295 12 6 12H14C15.2705 12 16.4297 12.4741 17.311 13.2535C17.7539 12.2601 18 11.1595 18 10C18 5.58172 14.4183 2 10 2ZM0 10C0 4.47715 4.47715 0 10 0C15.5228 0 20 4.47715 20 10C20 12.0618 19.3749 13.9807 18.3038 15.5737C16.51 18.2414 13.4605 20 10 20C6.53946 20 3.49004 18.2414 1.69625 15.5737C0.625088 13.9807 0 12.0618 0 10ZM6 7C6 4.79086 7.79086 3 10 3C12.2091 3 14 4.79086 14 7C14 9.20914 12.2091 11 10 11C7.79086 11 6 9.20914 6 7Z" fill="#09AC2C"/>
</svg>
