<svg width="20" height="21" viewBox="0 0 20 21" fill="none" xmlns="http://www.w3.org/2000/svg">
<path fill-rule="evenodd" clip-rule="evenodd" d="M6.60115 1.22409C6.60115 0.757528 6.92379 0.352964 7.37867 0.249159C8.86088 -0.0890905 10.3804 -0.0777458 11.8237 0.251562C12.2786 0.355354 12.6012 0.759926 12.6012 1.22651L12.6012 3.07324C12.6012 3.84304 13.4346 4.32417 14.1012 3.93927L15.7023 3.01491C16.1067 2.7814 16.619 2.85893 16.9362 3.20169C17.4344 3.74004 17.8803 4.34128 18.2615 5.0015C18.6426 5.66171 18.9404 6.34842 19.1575 7.04907C19.2957 7.49517 19.1068 7.97755 18.7023 8.21106L17.1012 9.13544C16.4346 9.52034 16.4346 10.4826 17.1012 10.8675L18.7006 11.7909C19.1047 12.0242 19.2937 12.5059 19.1562 12.9517C18.7197 14.3663 17.9698 15.6879 16.9357 16.8024C16.6184 17.1445 16.1067 17.2216 15.7026 16.9883L14.1012 16.0638C13.4346 15.6789 12.6012 16.16 12.6012 16.9298L12.6012 18.7789C12.6012 19.2455 12.2786 19.65 11.8237 19.7539C10.3415 20.0921 8.82196 20.0807 7.3787 19.7514C6.92381 19.6476 6.60115 19.2431 6.60115 18.7765L6.60115 16.9297C6.60115 16.1599 5.76782 15.6788 5.10115 16.0637L3.5001 16.9881C3.09564 17.2216 2.58341 17.144 2.26619 16.8013C1.76795 16.2629 1.32212 15.6617 0.940956 15.0015C0.559774 14.3413 0.262006 13.6545 0.0449082 12.9539C-0.0933132 12.5078 0.0956522 12.0254 0.500108 11.7919L2.10113 10.8675C2.76779 10.4826 2.76779 9.52039 2.10113 9.13548L0.501818 8.21212C0.0977483 7.97883 -0.0912919 7.49712 0.0462655 7.05128C0.482705 5.63672 1.23266 4.31507 2.26669 3.20056C2.58403 2.85853 3.09571 2.7814 3.49977 3.01468L5.10115 3.93924C5.76782 4.32414 6.60115 3.84302 6.60115 3.07322L6.60115 1.22409ZM9.60133 12.0016C10.7059 12.0016 11.6013 11.1062 11.6013 10.0016C11.6013 8.89705 10.7059 8.00162 9.60133 8.00162C8.49676 8.00162 7.60133 8.89705 7.60133 10.0016C7.60133 11.1062 8.49676 12.0016 9.60133 12.0016Z" fill="#09AC2C"/>
</svg>
