<svg width="22" height="14" viewBox="0 0 22 14" fill="none" xmlns="http://www.w3.org/2000/svg">
<path fill-rule="evenodd" clip-rule="evenodd" d="M0 1C0 0.447715 0.447715 0 1 0H21C21.5523 0 22 0.447715 22 1V11C22 12.6569 20.6569 14 19 14H3C1.34315 14 0 12.6569 0 11V1ZM4 5C4 4.44772 4.44772 4 5 4H17C17.5523 4 18 4.44772 18 5C18 5.55228 17.5523 6 17 6H5C4.44772 6 4 5.55228 4 5ZM4 9C4 8.44772 4.44772 8 5 8H9C9.55228 8 10 8.44772 10 9C10 9.55228 9.55228 10 9 10H5C4.44772 10 4 9.55228 4 9Z" fill="#09AC2C"/>
</svg>
