<svg width="16" height="20" viewBox="0 0 16 20" fill="none" xmlns="http://www.w3.org/2000/svg">
<path fill-rule="evenodd" clip-rule="evenodd" d="M5 5C5 3.34315 6.34315 2 8 2C9.65685 2 11 3.34315 11 5V7H5V5ZM3 7V5C3 2.23858 5.23858 0 8 0C10.7614 0 13 2.23858 13 5V7H15C15.5523 7 16 7.44772 16 8V17C16 18.6569 14.6569 20 13 20H3C1.34315 20 0 18.6569 0 17V8C0 7.44772 0.447715 7 1 7H3ZM9 13.5C9 12.6716 9.67157 12 10.5 12C11.3284 12 12 12.6716 12 13.5C12 14.3284 11.3284 15 10.5 15C9.67157 15 9 14.3284 9 13.5Z" fill="#09AC2C"/>
</svg>
