<svg width="20" height="18" viewBox="0 0 20 18" fill="none" xmlns="http://www.w3.org/2000/svg">
<path fill-rule="evenodd" clip-rule="evenodd" d="M16 1V4H19C19.5523 4 20 4.44772 20 5V15C20 16.6569 18.6569 18 17 18H15H3C1.34315 18 0 16.6569 0 15V1C0 0.447715 0.447715 0 1 0H15C15.5523 0 16 0.447715 16 1ZM18 15C18 15.5523 17.5523 16 17 16C16.4477 16 16 15.5523 16 15V6H18V15ZM4 5C4 4.44772 4.44772 4 5 4H11C11.5523 4 12 4.44772 12 5C12 5.55228 11.5523 6 11 6H5C4.44772 6 4 5.55228 4 5ZM6 9C6 8.44772 6.44772 8 7 8H11C11.5523 8 12 8.44772 12 9C12 9.55228 11.5523 10 11 10H7C6.44772 10 6 9.55228 6 9Z" fill="#09AC2C"/>
</svg>
