<svg width="23" height="23" viewBox="0 0 23 23" fill="none" xmlns="http://www.w3.org/2000/svg">
<path fill-rule="evenodd" clip-rule="evenodd" d="M8.7663 0.999009C9.95875 -0.333003 12.0442 -0.333003 13.2367 0.999009L14.2206 2.09811C14.4232 2.32439 14.7176 2.44635 15.0209 2.42958L16.4938 2.34816C18.2789 2.24947 19.7535 3.72411 19.6548 5.50918L19.5734 6.98211C19.5566 7.28536 19.6786 7.57979 19.9049 7.78237L21.004 8.7663C22.336 9.95875 22.336 12.0442 21.004 13.2367L19.9049 14.2206C19.6786 14.4232 19.5566 14.7176 19.5734 15.0209L19.6548 16.4938C19.7535 18.2789 18.2789 19.7535 16.4938 19.6548L15.0209 19.5734C14.7176 19.5566 14.4232 19.6786 14.2206 19.9049L13.2367 21.004C12.0442 22.336 9.95875 22.336 8.7663 21.004L7.78237 19.9049C7.57979 19.6786 7.28536 19.5566 6.98211 19.5734L5.50918 19.6548C3.72411 19.7535 2.24947 18.2789 2.34816 16.4938L2.42958 15.0209C2.44635 14.7176 2.32439 14.4232 2.09811 14.2206L0.999009 13.2367C-0.333003 12.0442 -0.333003 9.95875 0.999009 8.7663L2.09811 7.78237C2.32439 7.57979 2.44635 7.28536 2.42958 6.98211L2.34816 5.50918C2.24947 3.72411 3.72411 2.24947 5.50918 2.34816L6.98211 2.42958C7.28536 2.44635 7.57979 2.32439 7.78237 2.09811L8.7663 0.999009ZM14.7086 7.29436C15.0991 7.68488 15.0991 8.31805 14.7086 8.70857L8.70857 14.7086C8.31805 15.0991 7.68488 15.0991 7.29436 14.7086C6.90383 14.318 6.90383 13.6849 7.29436 13.2944L13.2944 7.29436C13.6849 6.90383 14.318 6.90383 14.7086 7.29436ZM8.50146 10.0015C9.32989 10.0015 10.0015 9.32989 10.0015 8.50146C10.0015 7.67304 9.32989 7.00146 8.50146 7.00146C7.67304 7.00146 7.00146 7.67304 7.00146 8.50146C7.00146 9.32989 7.67304 10.0015 8.50146 10.0015ZM13.5015 15.0015C14.3299 15.0015 15.0015 14.3299 15.0015 13.5015C15.0015 12.673 14.3299 12.0015 13.5015 12.0015C12.673 12.0015 12.0015 12.673 12.0015 13.5015C12.0015 14.3299 12.673 15.0015 13.5015 15.0015Z" fill="#09AC2C"/>
</svg>
