<svg width="130" height="58" viewBox="0 0 130 58" fill="none" xmlns="http://www.w3.org/2000/svg">
<g filter="url(#filter0_d_438_3490)">
<rect x="9" y="6" width="111.765" height="40" rx="15" fill="#F8B800"/>
</g>
<path d="M34.7583 33.192C37.1423 33.192 38.7743 31.848 38.7743 29.88C38.7743 28.28 37.7983 27.272 35.8463 26.68L33.7183 26.04C32.5503 25.704 31.9263 25 31.9263 24.088C31.9263 22.968 32.8703 22.216 34.3103 22.216C35.7663 22.216 36.8543 22.984 37.3503 24.392L38.6783 23.768C38.1343 22.184 36.4863 20.888 34.2943 20.888C32.0063 20.888 30.4063 22.248 30.4063 24.184C30.4063 25.656 31.3663 26.856 33.2703 27.416L35.4943 28.088C36.6783 28.44 37.2543 28.984 37.2543 29.992C37.2543 31.096 36.2623 31.864 34.7583 31.864C33.1743 31.864 31.9423 31 31.3823 29.368L30.0383 29.96C30.6143 31.768 32.4223 33.192 34.7583 33.192ZM44.1153 33.096C44.3553 33.096 44.6913 33.08 44.9633 33.016V31.896C44.7873 31.928 44.5473 31.944 44.3713 31.944C42.9153 31.944 42.8193 30.952 42.8193 30.408V25.832H44.8673V24.52H42.8193V21.768H41.4433V23.272C41.4433 24.024 40.9633 24.52 40.2273 24.52H39.7953V25.832H41.4433V30.408C41.4433 32.12 42.4033 33.096 44.1153 33.096ZM49.8586 24.328C48.2906 24.328 46.9146 25.224 46.4346 26.376L47.6666 27.016C48.0346 26.184 48.8346 25.64 49.8586 25.64C50.9786 25.64 51.7786 26.28 51.7786 27.256V27.496L48.8346 28.152C47.1226 28.536 46.1146 29.4 46.1146 30.648C46.1146 32.136 47.3306 33.192 49.1386 33.192C50.2266 33.192 51.2346 32.664 51.8106 31.816V33H53.1546V27.256C53.1546 25.528 51.7946 24.328 49.8586 24.328ZM49.2186 31.96C48.2106 31.96 47.5706 31.448 47.5706 30.648C47.5706 29.96 48.1946 29.432 49.1546 29.224L51.7786 28.616V29.352C51.7786 30.84 50.7066 31.96 49.2186 31.96ZM58.5699 24.424C57.5459 24.424 56.7299 24.792 56.2819 25.576V24.52H54.9539V33H56.3299V27.944C56.3299 26.536 57.1459 25.736 58.3619 25.736H59.2579V24.424H58.5699ZM64.3497 33.096C64.5897 33.096 64.9257 33.08 65.1977 33.016V31.896C65.0217 31.928 64.7817 31.944 64.6057 31.944C63.1497 31.944 63.0537 30.952 63.0537 30.408V25.832H65.1017V24.52H63.0537V21.768H61.6777V23.272C61.6777 24.024 61.1977 24.52 60.4617 24.52H60.0297V25.832H61.6777V30.408C61.6777 32.12 62.6377 33.096 64.3497 33.096ZM77.3389 21.08V30.088L71.0189 21.08H69.7389V33H71.2589V23.928L77.5789 33H78.8589V21.08H77.3389ZM85.0138 33.192C87.4618 33.192 89.3818 31.32 89.3818 28.744C89.3818 26.168 87.4778 24.328 85.0138 24.328C82.5498 24.328 80.6458 26.168 80.6458 28.744C80.6458 31.32 82.5658 33.192 85.0138 33.192ZM85.0138 31.864C83.3658 31.864 82.1018 30.536 82.1018 28.76C82.1018 26.984 83.3658 25.656 85.0138 25.656C86.6618 25.656 87.9258 26.984 87.9258 28.76C87.9258 30.536 86.6618 31.864 85.0138 31.864ZM101.148 24.52L99.0842 30.936L97.1322 24.52H95.6282L93.6762 30.968L91.6122 24.52H90.0602L93.0202 33H94.3162L96.3962 26.408L98.4602 33H99.7402L102.7 24.52H101.148Z" fill="black"/>
<defs>
<filter id="filter0_d_438_3490" x="0" y="0" width="129.765" height="58" filterUnits="userSpaceOnUse" color-interpolation-filters="sRGB">
<feFlood flood-opacity="0" result="BackgroundImageFix"/>
<feColorMatrix in="SourceAlpha" type="matrix" values="0 0 0 0 0 0 0 0 0 0 0 0 0 0 0 0 0 0 127 0" result="hardAlpha"/>
<feOffset dy="3"/>
<feGaussianBlur stdDeviation="4.5"/>
<feComposite in2="hardAlpha" operator="out"/>
<feColorMatrix type="matrix" values="0 0 0 0 0 0 0 0 0 0.254167 0 0 0 0 0.0545756 0 0 0 0.5 0"/>
<feBlend mode="normal" in2="BackgroundImageFix" result="effect1_dropShadow_438_3490"/>
<feBlend mode="normal" in="SourceGraphic" in2="effect1_dropShadow_438_3490" result="shape"/>
</filter>
</defs>
</svg>
