<svg width="314" height="250" viewBox="0 0 314 250" fill="none" xmlns="http://www.w3.org/2000/svg">
<ellipse opacity="0.5" cx="156.958" cy="236.88" rx="156.623" ry="12.6598" fill="#C4C4C4"/>
<path d="M168.857 124.714C170.652 124.892 173.241 124.677 176.215 124.12C185.993 122.293 199.998 116.784 204.338 109.418C204.99 108.311 205.48 107.22 205.821 106.165C208.484 98.0646 194.472 81.3871 194.472 81.3871C190.685 89.1426 187.673 96.7024 182.805 100.424C183.168 100.736 185.607 104.71 186.348 106.188C186.363 106.225 186.371 106.255 186.363 106.284C186.541 108.133 170.489 116.308 170.489 116.308C170.489 116.308 168.738 116.687 166.951 115.417C165.156 114.148 161.788 111.719 160.734 113.286C159.688 114.86 167.514 119.909 164.287 118.462C161.617 117.267 155.245 115.87 152.79 116.443C152.285 116.554 151.936 116.754 151.84 117.059C151.232 118.833 161.149 123.934 168.857 124.714Z" fill="#A8735B"/>
<path d="M176.388 104.785L181.145 131.059C146.675 135.596 114.811 127.241 114.811 127.241L116.428 110.52L117.329 101.221C110.468 99.0586 102.71 77.9409 102.71 77.9409C102.71 77.9409 107.551 70.841 116.542 62.2512C123.783 55.3259 132.9 50.5896 142.795 49.0254C152.032 47.5635 161.175 48.8399 169.298 53.907C170.44 54.6178 171.618 55.4705 172.821 56.4323C185.857 66.8571 201.547 90.2471 201.547 90.2471C190.478 105.616 176.388 104.785 176.388 104.785Z" fill="#FE4C40"/>
<path d="M176.065 103.613C176.065 103.613 155.766 110.492 138.179 110.312C129.723 110.227 121.89 108.511 117.244 103.613L119.357 84.7277C119.357 84.7277 138.113 90.3514 162.089 86.8267C165.492 86.3253 168.998 85.6411 172.572 84.7277L176.065 103.613Z" fill="white"/>
<path d="M176.388 104.785L181.145 131.059C155.379 137.511 114.987 129.432 114.811 127.241L116.429 110.52C118.106 110.905 119.802 111.216 121.512 111.44C128.992 112.417 136.848 111.614 143.561 108.162C150.498 104.597 155.824 98.4241 159.652 91.6203C163.476 84.8164 165.939 77.3488 168.38 69.931C169.859 65.4328 171.342 60.9312 172.821 56.4337C185.857 66.8585 201.547 90.2484 201.547 90.2484C190.478 105.616 176.388 104.785 176.388 104.785Z" fill="#EA241F"/>
<path d="M181.142 131.632C180.871 131.632 180.631 131.44 180.581 131.163L171.74 83.3695C171.682 83.0585 171.888 82.7597 172.199 82.7024C172.503 82.6451 172.808 82.8504 172.865 83.1615L181.706 130.955C181.764 131.266 181.558 131.565 181.248 131.622C181.212 131.629 181.177 131.632 181.142 131.632Z" fill="#BB2C32"/>
<path d="M114.811 127.814C114.79 127.814 114.77 127.813 114.75 127.812C114.436 127.779 114.208 127.498 114.24 127.183L118.788 83.0244C118.821 82.7085 119.105 82.4827 119.417 82.5127C119.731 82.5455 119.959 82.8265 119.926 83.1417L115.378 127.3C115.348 127.595 115.1 127.814 114.811 127.814Z" fill="#BB2C32"/>
<path d="M158.637 49.4607C157.709 52.2111 154.265 54.1021 151.655 54.8197C149.18 55.5005 146.558 55.5571 144.074 54.9009C138.481 53.4213 138.342 49.9539 138.342 49.9539C139.287 49.6483 139.747 47.2354 139.963 44.6398C140.235 41.3675 140.13 37.8059 140.13 37.8059H154.985C154.985 37.8059 155.421 42.3252 155.893 45.8056C155.99 46.5069 156.235 47.1788 156.617 47.7614C156.955 48.2873 157.399 48.7478 157.937 49.0943C158.34 49.3542 158.637 49.4607 158.637 49.4607Z" fill="#A8735B"/>
<path d="M156.618 47.7614C151.541 49.5991 145.549 49.0002 141.249 45.7401C140.798 45.3977 140.37 45.0314 139.963 44.6398C140.235 41.3675 140.13 37.8059 140.13 37.8059H154.985C154.985 37.8059 155.421 42.3252 155.893 45.8056C155.991 46.5062 156.235 47.1781 156.618 47.7614Z" fill="#9E6B57"/>
<path d="M159.546 53.7972C159.662 53.9009 159.403 54.4616 158.596 55.3675C157.788 56.2598 156.401 57.5074 154.183 58.5934C150.377 60.3248 145.967 60.6324 141.952 59.5C139.617 58.7954 137.956 57.693 137.197 56.6431C136.42 55.5947 136.476 54.8784 136.608 54.8511C136.791 54.7815 137.043 55.3232 137.867 56.0162C138.68 56.7195 140.154 57.4829 142.366 58.0157C146.042 59.0505 150.075 58.7694 153.551 57.1868C155.636 56.3171 157.048 55.3348 157.988 54.6813C158.923 54.0168 159.413 53.6744 159.546 53.7972Z" fill="white"/>
<path d="M181.876 98.7311C181.78 98.3744 183.417 97.7945 186.434 96.2187C189.033 94.9704 191.434 93.3079 193.517 91.314C196.051 89.0451 197.17 87.7169 197.476 87.9373C197.722 88.0982 197.063 89.8132 194.579 92.43C192.379 94.5351 189.846 96.289 187.103 97.6076C183.778 99.0135 181.942 99.0258 181.876 98.7311Z" fill="white"/>
<path d="M115.335 92.3291C115.155 92.5665 113.818 92.0194 111.842 90.0057C110.273 88.2184 108.962 86.2074 107.957 84.0504C106.911 81.4316 106.948 79.9867 107.246 79.9144C107.597 79.8182 108.125 81.0645 109.352 83.3969C110.294 85.4215 111.528 87.3118 113.001 88.9899C114.642 91.0548 115.57 92.0392 115.335 92.3291Z" fill="white"/>
<path d="M176.065 103.613C176.065 103.613 155.766 110.492 138.179 110.312C140.031 109.762 141.835 109.049 143.561 108.161C150.498 104.599 155.824 98.4248 159.65 91.6189C160.529 90.054 161.339 88.4523 162.088 86.8261C165.492 86.3247 168.997 85.6405 172.572 84.7271L176.065 103.613Z" fill="#E4ECF9"/>
<path d="M129.486 124.714C127.691 124.892 125.102 124.677 122.127 124.12C112.35 122.293 98.3447 116.784 94.0051 109.418C93.3522 108.311 92.8629 107.22 92.5215 106.165C89.8582 98.0647 103.871 81.3872 103.871 81.3872C107.658 89.1427 110.669 96.7024 115.538 100.424C115.175 100.736 112.736 104.71 111.994 106.188C111.979 106.225 111.972 106.255 111.979 106.284C111.801 108.133 127.854 116.308 127.854 116.308C127.854 116.308 129.604 116.687 131.392 115.417C133.187 114.148 136.555 111.719 137.608 113.286C138.654 114.86 130.828 119.91 134.055 118.462C136.726 117.267 143.098 115.87 145.553 116.443C146.057 116.554 146.406 116.755 146.502 117.059C147.111 118.833 137.193 123.934 129.486 124.714Z" fill="#A8735B"/>
<path d="M146.506 117.055C147.114 118.833 137.192 123.936 129.488 124.711C127.689 124.889 125.103 124.679 122.125 124.123C127.754 123.828 133.345 122.723 138.646 120.798C141.226 119.857 143.927 118.557 145.556 116.439C146.059 116.552 146.403 116.752 146.506 117.055Z" fill="#FFAB90"/>
<path d="M159.97 32.7825C159.57 35.6305 158.992 38.6341 157.049 40.7522C155.324 42.6302 152.728 43.5245 150.181 43.6446C148.798 43.7114 147.398 43.5688 146.091 43.1104C143.442 42.1854 141.392 40.0755 139.552 37.9622C138.869 37.1818 138.196 36.3857 137.562 35.5616C136.905 34.7089 136.084 34.007 135.204 33.3883C135.2 33.3855 135.196 33.3828 135.192 33.3794C134.489 32.8855 133.916 32.2265 133.373 31.5683C132.938 31.043 132.498 30.487 132.387 29.824C132.284 29.223 132.471 28.5961 132.818 28.1022C133.031 27.8082 133.289 27.5544 133.583 27.3409C133.014 24.2616 133.343 21.005 134.565 18.1167C136.192 14.272 139.379 11.1177 143.243 9.53784L157.632 7.27716C157.694 9.43074 158.615 11.4465 159.268 13.4937C161.249 19.6693 160.867 26.3531 159.97 32.7825Z" fill="#A8735B"/>
<path d="M165.789 14.1581C165.213 15.4979 164.489 16.8056 163.417 17.7968C162.345 18.788 160.881 19.4251 159.433 19.2402C158.231 19.082 157.175 18.3903 156.059 17.9005C155.319 17.5682 154.318 17.6719 153.42 17.9605C152.441 18.2872 151.412 18.451 150.383 18.3582L149.48 18.2818C149.616 17.6283 150.541 17.601 151.058 17.176C147.412 16.7892 143.641 19.0663 142.28 22.4764C141.784 23.7295 140.261 28.2182 140.261 28.2182C140.261 28.2182 138.753 27.1942 138.095 26.9377C137.218 26.6001 136.223 26.3552 135.292 26.5892C134.563 26.7692 133.888 27.2918 133.681 28.0162C133.333 26.5503 132.599 25.366 131.972 24.0938C131.031 22.1851 130.71 20.0131 130.906 17.8943C130.982 17.0498 131.129 16.2162 131.314 15.3887C131.591 14.1411 131.961 12.9098 132.332 11.6846C132.897 9.82708 133.48 7.94227 134.546 6.31941C136.037 4.05327 138.399 2.44609 140.957 1.53609C143.509 0.626087 146.258 0.370276 148.968 0.397563C150.709 0.419392 152.462 0.555824 154.127 1.0729C155.787 1.58998 157.353 2.52181 158.415 3.90524C158.747 4.34114 159.024 4.81524 159.286 5.29957C159.673 6.02403 160.021 6.78123 160.451 7.48386C161.506 9.21041 163.096 10.6109 164.94 11.439C165.267 11.5864 165.615 11.7221 165.849 11.9998C166.339 12.5782 166.094 13.461 165.789 14.1581Z" fill="black"/>
<g opacity="0.5">
<path opacity="0.5" d="M137.459 32.3146C137.492 32.6413 137.231 32.9681 136.909 33.0063C136.751 33.0281 136.599 32.9899 136.452 32.9299C135.94 32.7286 135.548 32.3036 135.211 31.8677C134.596 31.0778 134.052 30.163 134.03 29.1602C134.024 28.8444 134.079 28.5067 134.291 28.2721C134.59 27.9398 135.118 27.918 135.554 28.0381C136.43 28.2721 137.154 28.9965 137.398 29.8683L137.459 32.3146Z" fill="#9E6B57"/>
</g>
<g opacity="0.1">
<path opacity="0.1" d="M158.122 11.6744C157.039 12.3497 155.635 12.115 154.4 11.7937C152.473 11.2924 150.52 10.6225 148.545 10.8728C146.585 11.1123 144.773 12.3163 143.778 14.0162C143.533 14.4412 143.331 14.8935 143.038 15.2857C142.319 16.2387 141.106 16.7074 139.919 16.7947C138.727 16.882 137.546 16.631 136.382 16.3806C135.239 16.1412 134.101 15.8963 132.964 15.6507C132.414 15.5306 131.876 15.416 131.315 15.3894C131.592 14.1417 131.962 12.9104 132.332 11.6853C132.898 9.82776 133.481 7.94294 134.547 6.32008C136.038 4.05394 138.4 2.44677 140.958 1.53676C143.51 0.626758 146.258 0.370948 148.969 0.398234C150.71 0.420063 152.462 0.556496 154.127 1.07357C155.787 1.59065 157.354 2.52249 158.416 3.90591C158.748 4.34181 159.025 4.81591 159.287 5.30025C159.385 6.10656 159.548 6.91765 159.608 7.73011C159.722 9.20631 159.379 10.8953 158.122 11.6744Z" fill="white"/>
</g>
<path d="M144.801 24.7923C144.743 24.7582 144.734 24.6307 144.825 24.4185C144.918 24.2111 145.117 23.9144 145.497 23.6409C146.162 23.2138 147.017 23.0794 147.781 23.2814C148.226 23.4253 148.507 23.6456 148.658 23.8148C148.809 23.9888 148.839 24.1136 148.793 24.1648C148.691 24.2869 148.344 24.0474 147.621 23.9144C147.017 23.7568 146.369 23.8591 145.843 24.1941C145.194 24.544 144.94 24.879 144.801 24.7923Z" fill="#4F2D2A"/>
<path d="M154.128 22.9185C154.04 22.8339 154.234 22.3966 155.016 21.9798C155.694 21.6851 156.444 21.5678 157.18 21.6408C158.051 21.7984 158.369 22.1551 158.31 22.2656C158.245 22.4089 157.856 22.31 157.117 22.2902C156.493 22.2268 155.849 22.3277 155.275 22.5788C154.576 22.825 154.235 23.0379 154.128 22.9185Z" fill="#4F2D2A"/>
<path d="M151.086 34.0404C151.141 33.9906 151.325 34.1373 151.669 34.3774C151.84 34.492 152.062 34.6264 152.325 34.6823C152.574 34.7362 152.929 34.6898 153.113 34.4859C153.444 34.1864 153.207 33.2846 153.124 32.5826C153.008 31.8479 152.853 31.1187 152.664 30.3983C152.264 28.6888 152.01 27.8423 152.155 27.7857C152.274 27.7359 152.766 28.5013 153.295 30.2326C153.489 30.9734 153.648 31.7238 153.768 32.4796C153.83 32.8596 153.879 33.2327 153.921 33.6236C153.939 33.8242 153.95 34.0404 153.91 34.2751C153.872 34.5077 153.763 34.7614 153.572 34.9497C153.088 35.3706 152.546 35.3236 152.175 35.2021C151.796 35.0623 151.57 34.8426 151.41 34.6687C151.104 34.3071 151.035 34.0847 151.086 34.0404Z" fill="#4F2D2A"/>
<path d="M152.33 37.7487C152.347 37.8107 152.209 37.926 151.887 38.029C151.568 38.1279 151.056 38.2282 150.373 38.1532C149.227 37.9792 148.132 37.4587 147.324 36.5828C146.873 36.0385 146.719 35.477 146.739 35.1168C146.756 34.7512 146.883 34.6011 146.945 34.6161C147.106 34.6352 146.975 35.2997 147.811 36.1476C148.484 36.8803 149.465 37.3598 150.469 37.5065C151.658 37.7248 152.293 37.5788 152.33 37.7487Z" fill="#4F2D2A"/>
<path d="M156.433 28.6902C156.847 28.6902 157.182 28.0879 157.182 27.345C157.182 26.602 156.847 25.9998 156.433 25.9998C156.02 25.9998 155.685 26.602 155.685 27.345C155.685 28.0879 156.02 28.6902 156.433 28.6902Z" fill="#4F2D2A"/>
<path d="M147.667 29.429C148.08 29.429 148.415 28.8268 148.415 28.0838C148.415 27.3409 148.08 26.7386 147.667 26.7386C147.254 26.7386 146.919 27.3409 146.919 28.0838C146.919 28.8268 147.254 29.429 147.667 29.429Z" fill="#4F2D2A"/>
<path d="M131.526 156.949L130.391 158.533L173.78 189.674L174.915 188.089L131.526 156.949Z" fill="#4A5258"/>
<path d="M127.636 166.655L126.501 168.24L177.67 204.964L178.805 203.38L127.636 166.655Z" fill="#4A5258"/>
<path d="M165.418 156.95L122.029 188.085L123.164 189.669L166.553 158.534L165.418 156.95Z" fill="#4A5258"/>
<path d="M169.308 166.655L118.139 203.373L119.274 204.958L170.442 168.24L169.308 166.655Z" fill="#4A5258"/>
<path d="M161.572 147.271H167.027L187.118 230.497H181.664L161.572 147.271Z" fill="#BBCAEA"/>
<path d="M134.866 147.271H129.411L109.319 230.497H114.774L134.866 147.271Z" fill="#BBCAEA"/>
<path d="M147.811 154.254C167.875 154.254 184.139 148.323 184.139 141.007C184.139 133.69 167.875 127.759 147.811 127.759C127.748 127.759 111.484 133.69 111.484 141.007C111.484 148.323 127.748 154.254 147.811 154.254Z" fill="#BBCAEA"/>
<path d="M147.811 150.722C126.589 150.722 115.012 144.304 115.012 141.007C115.012 137.709 126.589 131.292 147.811 131.292C169.033 131.292 180.61 137.709 180.61 141.007C180.61 144.304 169.033 150.722 147.811 150.722Z" fill="#D1DCF8"/>
<path d="M125.919 216.817H117.013V231.334H125.919V216.817Z" fill="#A8735B"/>
<path d="M125.919 215.886V224.015C122.943 224.192 119.946 223.984 117.013 223.392V215.886H125.919Z" fill="#9E6B57"/>
<path d="M129.34 236.675H101.061C100.387 236.675 99.771 236.391 99.3239 235.922C98.8769 235.453 98.5981 234.808 98.5981 234.101C98.5981 233.025 99.236 232.064 100.196 231.68C103.172 230.512 108.377 229.213 109.476 228.06C110.949 226.523 113.522 223.949 115.362 224.08C117.202 224.21 118.301 227.292 121.123 229.09C123.124 230.366 125.286 227.215 126.364 225.278C126.73 224.625 127.646 224.617 127.991 225.278C130.279 229.605 129.34 236.675 129.34 236.675Z" fill="#2E363A"/>
<path d="M179.797 216.869H170.89V231.386H179.797V216.869Z" fill="#A8735B"/>
<path d="M170.89 215.937V224.066C173.866 224.243 176.864 224.035 179.797 223.443V215.937H170.89Z" fill="#9E6B57"/>
<path d="M167.469 236.727H195.748C196.422 236.727 197.038 236.443 197.485 235.974C197.932 235.505 198.211 234.86 198.211 234.153C198.211 233.077 197.573 232.116 196.613 231.732C193.637 230.564 188.432 229.265 187.333 228.112C185.86 226.575 183.287 224.001 181.447 224.132C179.607 224.262 178.508 227.344 175.686 229.142C173.685 230.418 171.523 227.267 170.445 225.33C170.079 224.677 169.163 224.669 168.818 225.33C166.531 229.656 167.469 236.727 167.469 236.727Z" fill="#2E363A"/>
<path d="M198.6 166.144C196.119 174.569 182.743 218.214 181.093 218.375C179.437 218.547 166.559 218.375 166.559 218.375C166.559 218.375 176.116 150.11 175.633 148.781C175.146 147.461 164.737 149.279 160.119 147.461C156.685 146.11 151.57 145.311 149.159 144.984C148.318 144.871 147.803 144.817 147.803 144.817C147.803 144.817 140.132 145.638 135.503 147.461C130.885 149.279 120.476 147.461 119.989 148.781C119.507 150.111 129.064 218.375 129.064 218.375C129.064 218.375 127.966 218.391 126.375 218.407C122.502 218.444 115.699 218.498 114.531 218.375C112.881 218.214 99.5039 174.568 97.0233 166.144C94.5536 157.709 93.2254 142.496 100.334 130.597C107.432 118.697 135.503 109.93 135.503 109.93H160.119C160.119 109.93 188.185 118.698 195.283 130.597C202.393 142.497 201.07 157.709 198.6 166.144Z" fill="#003567"/>
<path d="M149.159 144.984C148.318 144.872 147.804 144.818 147.804 144.818C147.804 144.818 140.132 145.639 135.504 147.462C130.886 149.28 120.477 147.462 119.99 148.781C119.507 150.112 129.065 218.375 129.065 218.375C129.065 218.375 127.967 218.392 126.376 218.407C126.237 217.485 126.178 216.531 126.125 215.619C125.535 205.28 123.419 195.037 119.867 185.315C117.156 177.899 113.589 170.692 112.426 162.884C111.264 155.076 113.037 146.212 119.257 141.354C123.301 138.196 128.551 137.176 133.463 135.702C138.382 134.227 143.519 131.857 145.822 127.267L149.159 144.984Z" fill="#022E4F"/>
<path d="M45.115 237.387L64.3545 129.83H56.4405L37.2016 237.387H45.115Z" fill="#D1DCF8"/>
<path d="M241.047 237.387L221.808 129.83H213.894L233.133 237.387H241.047Z" fill="#D1DCF8"/>
<path d="M62.71 137.82L64.3545 129.83H56.4404L54.7967 137.82H62.71Z" fill="#BBCAEA"/>
<path d="M223.452 137.82L221.808 129.83H213.894L215.538 137.82H223.452Z" fill="#BBCAEA"/>
<path d="M261.395 119.673V127.555C261.395 128.81 260.383 129.83 259.122 129.83H20.7963C19.5424 129.83 18.5236 128.81 18.5236 127.555V119.673C18.5236 118.418 19.5417 117.398 20.7963 117.398H259.123C260.383 117.398 261.395 118.418 261.395 119.673Z" fill="#CE704C"/>
<path d="M31.6591 97.3995H69.377V98.2727V105.503V106.376H31.6591C29.1867 106.376 27.1749 104.362 27.1749 101.887C27.1749 99.4126 29.1867 97.3995 31.6591 97.3995Z" fill="#E4ECF9"/>
<path d="M27.8087 99.5988C28.5917 98.2843 30.0222 97.3995 31.6591 97.3995H69.377V99.5988H27.8087Z" fill="#D1DCF8"/>
<path d="M31.6591 107.038C28.7124 107.038 26.336 104.546 26.5234 101.557C26.6959 98.8089 29.1117 96.7372 31.8615 96.7372H70.0449C70.6507 96.7372 71.142 97.229 71.142 97.8355C71.142 98.4419 70.6507 98.9338 70.0449 98.9338H31.8104C30.258 98.9338 28.8602 100.065 28.7198 101.613C28.5611 103.364 29.9411 104.84 31.6584 104.84H70.0442C70.65 104.84 71.1414 105.332 71.1414 105.938C71.1414 106.545 70.65 107.037 70.0442 107.037H31.6591V107.038Z" fill="#71C687"/>
<path d="M33.4453 107.749H71.1632V108.622V115.852V116.725H33.4453C30.9729 116.725 28.9611 114.712 28.9611 112.237C28.9611 109.762 30.9729 107.749 33.4453 107.749Z" fill="#E4ECF9"/>
<path d="M29.5949 109.948C30.3779 108.633 31.8084 107.749 33.4453 107.749H71.1632V109.948H29.5949Z" fill="#D1DCF8"/>
<path d="M33.4453 117.387C30.4985 117.387 28.1222 114.895 28.3096 111.906C28.482 109.158 30.8979 107.086 33.6477 107.086H71.831C72.4368 107.086 72.9282 107.578 72.9282 108.185C72.9282 108.791 72.4368 109.283 71.831 109.283H33.5966C32.0441 109.283 30.6464 110.415 30.506 111.962C30.3473 113.713 31.7273 115.189 33.4446 115.189H71.8303C72.4361 115.189 72.9275 115.681 72.9275 116.287C72.9275 116.894 72.4361 117.386 71.8303 117.386H33.4453V117.387Z" fill="#FE4C40"/>
<path d="M195.839 73.2763L187.404 117.253H114.178L111.715 104.407L105.738 73.2763C105.113 69.9958 107.619 66.9534 110.955 66.9534H190.623C191.879 66.9534 193.016 67.3852 193.916 68.1028C195.403 69.2789 196.233 71.2319 195.839 73.2763Z" fill="#3A4146"/>
<path d="M195.839 73.2763L187.404 117.253H114.178L111.715 104.407C126.44 106.274 141.645 104.336 155.405 98.7523C170.815 92.5044 184.354 81.714 193.916 68.1021C195.403 69.2788 196.233 71.2319 195.839 73.2763Z" fill="#2E363A"/>
<path d="M155.516 94.2356C156.132 91.6236 154.516 89.0061 151.906 88.3894C149.297 87.7726 146.682 89.3901 146.066 92.0021C145.45 94.6141 147.066 97.2316 149.675 97.8483C152.285 98.4651 154.899 96.8476 155.516 94.2356Z" fill="#2E363A"/>
<path d="M154.815 94.0701C155.34 91.8453 153.964 89.6158 151.741 89.0904C149.518 88.5651 147.291 89.9428 146.766 92.1676C146.242 94.3925 147.618 96.6219 149.84 97.1473C152.063 97.6726 154.29 96.2949 154.815 94.0701Z" fill="#BBCAEA"/>
<path d="M290.216 192.809C290.986 189.819 290.84 186.682 290.719 183.597C290.599 180.512 290.516 177.362 291.405 174.406C292.672 170.19 295.872 166.481 295.852 162.077C295.848 161.15 295.677 160.18 295.108 159.448C294.223 158.308 292.603 158.021 291.169 158.169C287.088 158.59 283.711 161.824 282.045 165.577C280.378 169.329 280.137 173.547 280.12 177.654C280.104 181.556 280.267 185.46 280.609 189.348C280.782 191.328 281.007 193.324 281.655 195.202C282.073 196.417 282.679 197.584 283.51 198.569C284.51 199.754 285.059 199.919 286.322 198.988C288.322 197.509 289.603 195.187 290.216 192.809Z" fill="#71C687"/>
<path d="M259.107 173.279C259.614 175.07 260.94 176.534 262.459 177.608C263.979 178.682 265.703 179.42 267.379 180.228C269.055 181.035 270.722 181.941 272.021 183.273C273.939 185.24 274.876 187.939 275.71 190.557C277.224 195.311 278.584 200.113 279.788 204.954C280.79 199.807 281.796 194.596 281.514 189.36C281.35 186.322 280.749 183.308 279.736 180.44C278.555 177.094 276.789 173.918 274.298 171.394C271.807 168.87 268.559 167.028 265.05 166.534C263.364 166.297 261.238 166.456 260.282 168.054C259.305 169.688 258.559 171.34 259.107 173.279Z" fill="#71C687"/>
<path d="M280.219 216.487L279.518 216.468C279.763 209.074 279.26 201.629 278.031 194.341C277.813 193.024 277.547 191.594 277.211 190.105L277.085 190.065C277.105 189.999 277.132 189.933 277.152 189.86C276.384 186.603 275.26 183.095 273.429 179.958C270.665 175.206 266.512 171.864 262.049 170.791L262.215 170.103C266.863 171.222 271.174 174.683 274.037 179.601C275.684 182.421 276.768 185.512 277.528 188.463C278.262 185.194 277.978 181.679 276.709 178.582L277.357 178.317C278.851 181.944 279.036 186.127 277.879 189.88V189.886C278.229 191.409 278.5 192.878 278.725 194.222C279.961 201.555 280.464 209.048 280.219 216.487Z" fill="#61BA76"/>
<path d="M281.472 218.266L280.794 218.077L283.457 208.471C283.941 206.729 284.441 204.928 284.725 203.107C285.193 200.103 285.075 196.988 284.961 193.974C284.929 193.123 284.896 192.272 284.876 191.422C284.698 183.81 285.52 176.199 287.321 168.8L288.004 168.967C286.218 176.306 285.403 183.855 285.58 191.405C285.6 192.252 285.632 193.099 285.664 193.948C285.779 196.994 285.899 200.144 285.421 203.215C285.13 205.077 284.625 206.898 284.135 208.66L281.472 218.266Z" fill="#61BA76"/>
<path d="M311.125 174.1C310.73 172.686 309.766 171.445 308.264 171.344C307.027 171.259 305.645 171.963 304.392 172.782C295.736 178.144 289.022 190.399 287.693 203.249C287.471 205.402 288.515 207.127 289.959 207.295C289.969 207.296 289.979 207.298 289.989 207.299C290.134 207.318 290.273 207.348 290.405 207.387C291.601 207.745 292.888 206.676 293.525 205.007C295.075 200.943 296.859 197.315 298.832 193.552C299.827 191.665 300.943 189.91 302.169 188.314C304.322 185.51 306.035 181.902 308.819 180.268C309.61 179.784 310.922 179.481 311.353 178.291C311.796 177.071 311.438 175.163 311.125 174.1Z" fill="#71C687"/>
<path d="M306.264 181.513L301.232 183.115L301.219 183.082C297.834 188.186 295.103 193.719 293.1 199.497L294.071 198.22L294.627 198.643L292.412 201.575C290.732 206.91 289.674 212.444 289.284 218.03L288.577 217.977C289.092 210.743 290.706 203.601 293.318 196.857L292.61 187.313L293.312 187.253L293.953 195.275C295.249 192.131 296.763 189.079 298.482 186.147C297.642 184.394 297.312 182.368 297.55 180.436L298.251 180.522C298.046 182.163 298.284 183.884 298.919 185.42C300.909 182.104 303.164 178.946 305.67 175.995L306.205 176.451C304.651 178.285 303.19 180.198 301.828 182.183L306.046 180.839L306.264 181.513Z" fill="#61BA76"/>
<path d="M292.123 233.21C290.982 235.317 288.758 236.606 286.364 236.606H282.366C280.289 236.606 278.346 235.633 277.128 233.999C276.938 233.752 276.762 233.491 276.614 233.21C273.523 227.509 273.65 217.185 273.749 214.274H294.981C295.087 217.185 295.207 227.509 292.123 233.21Z" fill="#E4ECF9"/>
<path d="M292.123 233.21C290.982 235.317 288.758 236.606 286.364 236.606H282.366C280.289 236.606 278.345 235.633 277.128 233.999C277.719 233.992 278.303 233.921 278.874 233.794C280.127 233.513 281.33 232.956 282.323 232.131C284.477 230.341 285.59 227.628 286.794 225.091C288.596 221.286 290.764 217.664 293.264 214.274H294.982C295.087 217.185 295.207 227.509 292.123 233.21Z" fill="#D1DCF8"/>
<path d="M245.936 140.295H33.9823C29.3182 140.295 25.538 136.51 25.538 131.842V129.83H254.381V131.842C254.381 136.51 250.6 140.295 245.936 140.295Z" fill="#C16244"/>
</svg>
