<svg width="194" height="35" viewBox="0 0 194 35" fill="none" xmlns="http://www.w3.org/2000/svg">
<path d="M6.948 10.4H1.494V23H4.41V19.526H6.948C10.314 19.526 12.42 17.78 12.42 14.972C12.42 12.146 10.314 10.4 6.948 10.4ZM6.786 17.15H4.41V12.776H6.786C8.568 12.776 9.468 13.586 9.468 14.972C9.468 16.34 8.568 17.15 6.786 17.15ZM14.4796 23H17.2876V9.644H14.4796V23ZM23.7997 13.172C22.2517 13.172 20.6857 13.586 19.6237 14.342L20.6317 16.304C21.3337 15.746 22.3957 15.404 23.4217 15.404C24.9337 15.404 25.6537 16.106 25.6537 17.312H23.4217C20.4697 17.312 19.2637 18.5 19.2637 20.21C19.2637 21.884 20.6137 23.144 22.8817 23.144C24.3037 23.144 25.3117 22.676 25.8337 21.794V23H28.4617V17.474C28.4617 14.54 26.7517 13.172 23.7997 13.172ZM23.5837 21.254C22.5937 21.254 21.9997 20.786 21.9997 20.084C21.9997 19.436 22.4137 18.95 23.7277 18.95H25.6537V19.94C25.3297 20.822 24.5197 21.254 23.5837 21.254ZM37.7393 13.316L35.0033 19.886L32.2853 13.316H29.3872L33.5813 23.072L33.5453 23.162C33.1673 24.026 32.7353 24.368 31.9613 24.368C31.4033 24.368 30.8093 24.134 30.3773 23.756L29.3512 25.754C29.9813 26.312 31.0613 26.636 32.0513 26.636C33.7973 26.636 35.1293 25.934 36.0653 23.594L40.4393 13.316H37.7393Z" fill="#555555"/>
<path d="M66.494 10.4H69.41V20.624H75.728V23H66.494V10.4ZM86.575 18.194C86.575 18.23 86.557 18.482 86.521 18.95H79.195C79.327 19.55 79.639 20.024 80.131 20.372C80.623 20.72 81.235 20.894 81.967 20.894C82.471 20.894 82.915 20.822 83.299 20.678C83.695 20.522 84.061 20.282 84.397 19.958L85.891 21.578C84.979 22.622 83.647 23.144 81.895 23.144C80.803 23.144 79.837 22.934 78.997 22.514C78.157 22.082 77.509 21.488 77.053 20.732C76.597 19.976 76.369 19.118 76.369 18.158C76.369 17.21 76.591 16.358 77.035 15.602C77.491 14.834 78.109 14.24 78.889 13.82C79.681 13.388 80.563 13.172 81.535 13.172C82.483 13.172 83.341 13.376 84.109 13.784C84.877 14.192 85.477 14.78 85.909 15.548C86.353 16.304 86.575 17.186 86.575 18.194ZM81.553 15.296C80.917 15.296 80.383 15.476 79.951 15.836C79.519 16.196 79.255 16.688 79.159 17.312H83.929C83.833 16.7 83.569 16.214 83.137 15.854C82.705 15.482 82.177 15.296 81.553 15.296ZM92.0868 13.172C93.5868 13.172 94.7388 13.532 95.5428 14.252C96.3468 14.96 96.7488 16.034 96.7488 17.474V23H94.1208V21.794C93.5928 22.694 92.6088 23.144 91.1688 23.144C90.4248 23.144 89.7768 23.018 89.2248 22.766C88.6848 22.514 88.2708 22.166 87.9828 21.722C87.6948 21.278 87.5508 20.774 87.5508 20.21C87.5508 19.31 87.8868 18.602 88.5588 18.086C89.2428 17.57 90.2928 17.312 91.7088 17.312H93.9408C93.9408 16.7 93.7548 16.232 93.3828 15.908C93.0108 15.572 92.4528 15.404 91.7088 15.404C91.1928 15.404 90.6828 15.488 90.1788 15.656C89.6868 15.812 89.2668 16.028 88.9188 16.304L87.9108 14.342C88.4388 13.97 89.0688 13.682 89.8008 13.478C90.5448 13.274 91.3068 13.172 92.0868 13.172ZM91.8708 21.254C92.3508 21.254 92.7768 21.146 93.1488 20.93C93.5208 20.702 93.7848 20.372 93.9408 19.94V18.95H92.0148C90.8628 18.95 90.2868 19.328 90.2868 20.084C90.2868 20.444 90.4248 20.732 90.7008 20.948C90.9888 21.152 91.3788 21.254 91.8708 21.254ZM101.972 14.594C102.308 14.126 102.758 13.772 103.322 13.532C103.898 13.292 104.558 13.172 105.302 13.172V15.764C104.99 15.74 104.78 15.728 104.672 15.728C103.868 15.728 103.238 15.956 102.782 16.412C102.326 16.856 102.098 17.528 102.098 18.428V23H99.2901V13.316H101.972V14.594ZM112.858 13.172C114.058 13.172 115.024 13.532 115.756 14.252C116.5 14.972 116.872 16.04 116.872 17.456V23H114.064V17.888C114.064 17.12 113.896 16.55 113.56 16.178C113.224 15.794 112.738 15.602 112.102 15.602C111.394 15.602 110.83 15.824 110.41 16.268C109.99 16.7 109.78 17.348 109.78 18.212V23H106.972V13.316H109.654V14.45C110.026 14.042 110.488 13.73 111.04 13.514C111.592 13.286 112.198 13.172 112.858 13.172Z" fill="#555555"/>
<path d="M154.008 20.192C153.27 20.588 152.532 20.732 151.74 20.732C149.328 20.732 147.654 19.058 147.654 16.7C147.654 14.306 149.328 12.668 151.776 12.668C153.054 12.668 154.116 13.118 155.034 14.09L156.906 12.362C155.682 10.94 153.846 10.184 151.632 10.184C147.618 10.184 144.702 12.902 144.702 16.7C144.702 20.498 147.618 23.216 151.578 23.216C153.378 23.216 155.286 22.658 156.672 21.614V16.502H154.008V20.192ZM161.865 14.594V13.316H159.183V23H161.991V18.428C161.991 16.574 163.017 15.728 164.565 15.728C164.781 15.728 164.961 15.746 165.195 15.764V13.172C163.701 13.172 162.549 13.658 161.865 14.594ZM171.384 23.144C174.462 23.144 176.694 21.074 176.694 18.158C176.694 15.242 174.462 13.172 171.384 13.172C168.306 13.172 166.056 15.242 166.056 18.158C166.056 21.074 168.306 23.144 171.384 23.144ZM171.384 20.84C169.98 20.84 168.9 19.832 168.9 18.158C168.9 16.484 169.98 15.476 171.384 15.476C172.788 15.476 173.85 16.484 173.85 18.158C173.85 19.832 172.788 20.84 171.384 20.84ZM191.376 13.316L189.018 19.868L186.714 13.316H184.338L181.962 19.868L179.676 13.316H177.03L180.522 23H183.222L185.472 16.988L187.65 23H190.35L193.86 13.316H191.376Z" fill="#555555"/>
<line x1="53.75" y1="3.27835e-08" x2="53.75" y2="35" stroke="#555555" stroke-width="1.5"/>
<line x1="132.75" y1="3.27835e-08" x2="132.75" y2="35" stroke="#555555" stroke-width="1.5"/>
</svg>
