<svg width="23" height="23" viewBox="0 0 23 23" fill="none" xmlns="http://www.w3.org/2000/svg">
<g clip-path="url(#clip0_6_1242)">
<path d="M21.1261 14.153C21.4076 15.3441 21.5264 15.5891 21.5667 16.2128C21.61 16.8846 21.6952 17.3347 21.6758 17.7398C21.6601 18.0719 21.3016 19.1698 19.6547 20.7449C18.2058 22.1321 17.0063 22.5754 16.5836 22.5957C16.2139 22.6138 16.0765 22.5003 15.1989 22.3928C14.1361 22.2636 12.8477 22.0689 11.6565 21.5993C10.3644 21.0898 9.26795 20.0182 8.66149 19.4606C7.7279 18.6024 5.70312 16.2639 4.90994 15.3945C4.00772 14.4063 1.33391 11.3591 0.673669 10.4679C0.0918538 9.68259 0.159819 8.84997 0.641553 8.37805C1.25324 7.77914 1.9456 8.0707 2.39671 8.45921C3.02035 8.99651 4.35426 10.3153 5.11906 11.0037C5.88386 11.692 8.63759 14.2034 8.63759 14.2034C8.63759 14.2034 9.42255 12.8553 10.3606 11.822C11.5444 10.5182 12.5505 9.73219 12.5505 9.73219C12.5505 9.73219 11.2218 8.58996 9.37849 6.84808C7.5352 5.10694 6.05116 3.66939 5.67474 3.3162C5.19973 2.87059 4.3946 1.93126 5.2886 0.9506C6.20502 -0.0541045 7.15355 0.678571 7.69578 1.1535C8.18722 1.58258 10.2038 3.40863 11.9306 5.07387C15.0301 8.06319 16.8495 8.48401 16.8495 8.48401L20.1925 12.1128L21.1261 14.153Z" fill="#FFCE00"/>
<path d="M21.1261 14.153C21.4076 15.3441 21.5264 15.5891 21.5667 16.2128C21.61 16.8846 21.6952 17.3347 21.6758 17.7398C21.6601 18.0719 21.3016 19.1698 19.6547 20.7449C18.2058 22.1321 17.0063 22.5754 16.5836 22.5957C16.2139 22.6138 16.0765 22.5003 15.1989 22.3928C14.1361 22.2636 12.8477 22.0689 11.6565 21.5993C10.3644 21.0898 9.26795 20.0182 8.66149 19.4606C7.7279 18.6024 5.70312 16.2639 4.90994 15.3945C4.00772 14.4063 1.33391 11.3591 0.673669 10.4679C0.0918538 9.68259 0.159819 8.84997 0.641553 8.37805C1.25324 7.77914 1.9456 8.0707 2.39671 8.45921C3.02035 8.99651 4.35426 10.3153 5.11906 11.0037C5.88386 11.692 8.63759 14.2034 8.63759 14.2034C8.63759 14.2034 9.42255 12.8553 10.3606 11.822C11.5444 10.5182 12.5505 9.73219 12.5505 9.73219C12.5505 9.73219 11.2218 8.58996 9.37849 6.84808C7.5352 5.10694 6.05116 3.66939 5.67474 3.3162C5.19973 2.87059 4.3946 1.93126 5.2886 0.9506C6.20502 -0.0541045 7.15355 0.678571 7.69578 1.1535C8.18722 1.58258 10.2038 3.40863 11.9306 5.07387C15.0301 8.06319 16.8495 8.48401 16.8495 8.48401L20.1925 12.1128L21.1261 14.153Z" fill="#FFCE00"/>
<path d="M21.1261 14.153C21.4077 15.3441 21.5003 15.5883 21.5406 16.212C21.5839 16.8846 21.696 17.3347 21.6758 17.7398C21.6601 18.0719 21.3016 19.1698 19.6547 20.7449C18.2058 22.1321 17.0063 22.5754 16.5836 22.5957C16.2139 22.6138 16.0765 22.5003 15.1989 22.3928C14.1361 22.2636 12.8477 22.0689 11.6565 21.5993C10.3644 21.0898 9.26796 20.0182 8.6615 19.4606C7.7279 18.6024 5.70312 16.2639 4.90994 15.3945C4.00772 14.4063 1.33391 11.3591 0.673669 10.4679C0.0918536 9.68259 0.159819 8.84997 0.641554 8.37805C1.25324 7.77914 1.9456 8.0707 2.39671 8.45921C3.02035 8.99651 4.35427 10.3153 5.11907 11.0037C5.88387 11.692 8.6376 14.2034 8.6376 14.2034C8.6376 14.2034 9.42256 12.8553 10.3606 11.822C11.5444 10.5182 12.5505 9.73219 12.5505 9.73219C12.5505 9.73219 11.2218 8.58996 9.3785 6.84808C7.53521 5.10694 6.05117 3.66939 5.67474 3.3162C5.19973 2.87059 4.3946 1.93126 5.28861 0.9506C6.20502 -0.0541045 7.15356 0.678571 7.69579 1.1535C8.18723 1.58258 10.2038 3.40863 11.9306 5.07387C15.0301 8.06319 16.8495 8.48401 16.8495 8.48401L20.1925 12.1128L21.1261 14.153Z" fill="#FFCE00"/>
<path d="M0.898504 5.05511C0.16582 5.85692 0.72971 6.76318 1.23609 7.29071C1.6872 7.76037 2.31383 8.3946 3.32137 9.33994C4.52085 10.4656 8.65928 14.2733 8.65928 14.2733C8.65928 14.2733 8.98118 13.6669 9.45619 13.0176C9.92747 12.3736 10.3816 11.8431 10.3816 11.8431C10.3816 11.8431 3.60294 5.59015 3.03979 5.10395C2.55433 4.68539 1.67675 4.20295 0.898504 5.05511Z" fill="#FFCE00"/>
<path d="M2.13159 2.06126C1.39069 2.85556 1.9023 3.8009 2.40345 4.33444C2.84933 4.80936 3.48268 5.45261 4.48051 6.40847C5.66879 7.54694 10.3786 11.9437 10.3786 11.9437C10.3786 11.9437 10.8304 11.3929 11.4123 10.8391C12.0083 10.2717 12.6364 9.76976 12.6364 9.76976C12.6364 9.76976 4.90249 2.58203 4.34383 2.09057C3.86284 1.66674 2.91879 1.21662 2.13159 2.06126Z" fill="#FFCE00"/>
<path d="M15.2288 9.50225C15.1683 10.4378 14.287 11.0818 14.4199 12.7463C14.4827 13.5338 15.2131 14.6295 15.2131 14.6295L17.3305 12.5637L19.3881 10.8804L16.8555 8.48928C16.8555 8.48928 15.7643 8.23679 13.8329 6.73462C13.9404 6.81953 15.3408 7.76111 15.2288 9.50225Z" fill="#F7B208"/>
<path d="M2.21076 3.09901C1.97026 2.28367 2.62975 1.70129 2.64693 1.68701C2.47216 1.76216 2.29814 1.88239 2.13159 2.06124C1.39069 2.85553 1.9023 3.80087 2.40345 4.33441C2.84934 4.80933 3.48268 5.45259 4.48051 6.40844C5.42829 7.31696 8.61969 10.3003 9.86996 11.4688C10.1866 11.7649 9.80572 12.115 9.80572 12.115C9.80572 12.115 10.528 11.7611 10.7662 11.5003L11.3921 10.4265C11.3921 10.4265 10.5735 11.1607 9.86697 10.5467C9.28814 10.044 8.39787 9.19787 8.0797 8.91081C7.76153 8.623 7.06918 8.07218 6.5501 7.59876C6.03102 7.12534 5.7375 6.84955 4.98838 6.15671C4.33412 5.55103 3.66418 4.85593 3.41248 4.59968C2.87249 4.04886 2.38329 3.6859 2.21076 3.09901Z" fill="#F7B208"/>
<path d="M0.95822 5.75618C0.876064 5.07611 1.33465 4.7124 1.33465 4.7124C1.18751 4.78755 1.04112 4.89952 0.897724 5.05582C0.165787 5.85688 0.729677 6.76314 1.23606 7.29067C1.68717 7.76033 2.3138 8.39457 3.32133 9.33991C4.11899 10.0884 6.21696 12.0234 7.53221 13.2355C7.77644 13.4609 7.99378 13.6608 8.17079 13.8239C8.47402 14.1027 8.22382 14.7099 8.22382 14.7099C8.22382 14.7099 9.10438 13.0747 9.29857 12.7621C9.29857 12.7621 8.95202 13.1671 8.6346 13.1709C8.32166 13.1746 8.2283 13.1017 7.64872 12.5832C7.06915 12.0647 6.85181 11.6597 6.18335 11.0442C5.51565 10.4288 4.16679 9.31436 3.46249 8.71093C3.03976 8.34873 2.64541 7.79941 1.89704 7.20876C1.40784 6.82326 1.03888 6.42048 0.95822 5.75618Z" fill="#F7B208"/>
<path d="M19.6488 20.3646C18.7286 21.213 17.6247 22.0697 16.6777 22.1388C15.8442 22.1997 15.6515 22.0659 14.7112 21.8653C13.8986 21.6917 12.8798 21.5977 11.7326 21.0635C10.9678 20.7073 10.0298 20.0911 9.07003 19.1743C7.44782 17.624 6.43132 16.3375 4.98836 14.8C4.178 13.9366 0.955233 10.5227 0.604949 9.34441C0.40628 8.67486 0.898471 8.18866 0.898471 8.18866C0.814074 8.23901 0.730424 8.30288 0.648267 8.38329C0.166533 8.85445 0.0985674 9.68783 0.680383 10.4731C1.34062 11.3643 4.01443 14.4115 4.91666 15.3997C5.70984 16.2691 7.73462 18.6077 8.66821 19.4658C9.27467 20.0234 10.3718 21.095 11.6632 21.6045C12.8544 22.0742 14.1428 22.2688 15.2056 22.398C16.0832 22.5048 16.2206 22.6182 16.5903 22.6002C17.013 22.5799 18.2125 22.1358 19.6615 20.7493C20.6869 19.7687 21.212 18.9729 21.4667 18.4318C21.4659 18.4318 20.5122 19.5688 19.6488 20.3646Z" fill="#F7B208"/>
<path d="M8.00725 15.6259C8.09612 15.6499 8.72201 14.0809 10.6639 11.9565C12.8926 9.51875 14.2265 8.90255 14.2265 8.82139C14.2265 8.74024 12.5034 9.04834 10.265 11.5552C8.18874 13.8817 7.91837 15.6018 8.00725 15.6259Z" fill="#F7B208"/>
<path d="M5.67549 0.634216C5.54853 0.712368 5.42081 0.816822 5.29384 0.955842C4.40058 1.9365 5.20571 2.87583 5.67998 3.32144C6.0564 3.67463 7.5397 5.11143 9.38373 6.85331C10.4928 7.9016 11.416 8.73197 11.9746 9.22793C12.2652 9.48493 12.304 9.64575 12.0807 9.86442L13.5371 8.99197C13.5371 8.99197 12.9695 9.19863 12.4019 8.94388C12.1098 8.81238 11.6871 8.40508 11.3555 8.10901C10.8663 7.67391 10.4084 7.18546 10.1314 6.92621C9.79152 6.60834 9.37477 6.08382 8.53752 5.32184C7.79214 4.64402 7.37015 4.30135 6.72635 3.71822C6.07433 3.0945 5.27741 2.43021 5.19301 1.88315C5.07202 1.10163 5.63143 0.676298 5.67549 0.634216Z" fill="#F7B208"/>
<path d="M15.0958 15.0908C15.0958 15.0908 14.6178 13.7615 14.8942 12.3563C15.2153 10.7263 15.7971 10.0666 15.8397 8.79959C15.8733 7.80541 15.3035 6.48283 15.8472 4.96413C16.4902 3.16588 18.1072 3.39583 18.1072 3.39583C18.1072 3.39583 18.465 4.40354 18.6853 5.06032C18.9064 5.7171 19.3328 6.68423 19.4972 7.39286C19.6854 8.20293 19.6928 9.44284 19.9132 10.4475C20.1454 11.5056 20.554 12.46 20.554 12.46L15.0958 15.0908Z" fill="#FFCE00"/>
<mask id="mask0_6_1242" style="mask-type:alpha" maskUnits="userSpaceOnUse" x="15" y="3" width="6" height="14">
<path d="M17.2991 3.54538C17.5232 3.44468 18.0549 3.44919 18.0549 3.44919C18.0549 3.44919 18.5964 5.19258 18.8235 5.91699C19.0169 6.53544 19.1581 7.64385 19.1977 8.25028C19.2372 8.85671 19.1581 10.2199 19.3 10.8992C19.4419 11.5785 20.4472 13.9043 20.6712 14.6993C20.8946 15.4944 20.6966 16.4683 20.6966 16.4683C20.6966 16.4683 19.3463 16.8598 17.801 16.4044C16.4678 16.0121 15.476 15.069 15.2639 14.7361C15.1003 14.4784 14.8568 13.5579 15.1847 12.4833C15.4648 11.5672 16.119 10.5896 16.376 9.33389C16.6329 8.07819 15.877 7.18771 16.1601 5.7434C16.4581 4.21493 17.0743 3.64607 17.2991 3.54538Z" fill="url(#paint0_linear_6_1242)"/>
</mask>
<g mask="url(#mask0_6_1242)">
<path d="M17.2991 3.54538C17.5232 3.44468 18.0549 3.44919 18.0549 3.44919C18.0549 3.44919 18.5964 5.19258 18.8235 5.91699C19.0169 6.53544 19.1581 7.64385 19.1977 8.25028C19.2372 8.85671 19.1581 10.2199 19.3 10.8992C19.4419 11.5785 20.4472 13.9043 20.6712 14.6993C20.8946 15.4944 20.6966 16.4683 20.6966 16.4683C20.6966 16.4683 19.3463 16.8598 17.801 16.4044C16.4678 16.0121 15.476 15.069 15.2639 14.7361C15.1003 14.4784 14.8568 13.5579 15.1847 12.4833C15.4648 11.5672 16.119 10.5896 16.376 9.33389C16.6329 8.07819 15.877 7.18771 16.1601 5.7434C16.4581 4.21493 17.0743 3.64607 17.2991 3.54538Z" fill="url(#paint1_linear_6_1242)"/>
<path d="M16.2908 8.93939C16.308 7.86931 15.8255 7.47705 16.0376 5.85163C16.2117 4.51553 17.1191 3.57245 17.1191 3.57245H17.0519C16.6097 3.76933 16.1325 4.16761 15.8472 4.96491C15.3035 6.48361 15.8733 7.80619 15.8397 8.80037C15.7971 10.0673 15.2146 10.7264 14.8942 12.357C14.6178 13.7623 15.0958 15.0916 15.0958 15.0916C15.0958 15.0916 14.7403 13.5962 15.063 12.4495C15.3856 11.302 16.2736 10.0087 16.2908 8.93939Z" fill="#F7B208"/>
<path d="M19.0057 5.92676C19.0057 5.92676 19.0356 6.39417 19.2425 7.59651C19.4494 8.79884 19.1454 10.0741 19.6047 11.6146C20.0641 13.1543 20.7004 14.0628 20.852 14.7662C21.0036 15.4688 20.9588 15.928 21.1313 16.4833C21.3039 17.0379 21.5615 18.1929 21.5615 18.1929C21.8132 17.5955 21.6497 16.8357 21.5541 16.1684C21.4652 15.55 21.5533 14.8331 21.2971 14.1252C21.1343 13.7592 20.5503 12.463 20.5503 12.463L20.5533 12.4615C20.5533 12.4615 20.1447 11.5071 19.9124 10.4491C19.6921 9.44435 19.6846 8.20444 19.4964 7.39436C19.3964 6.95851 19.1962 6.42573 19.0057 5.92676Z" fill="#FFC200"/>
<path d="M13.1196 13.9494C13.1196 13.9494 12.4407 15.4704 12.9747 16.4285C13.4901 17.352 16.066 18.1133 16.066 18.1133L12.5079 17.5466L11.6221 17.0447L11.4451 16.5096L12.1375 15.6184L13.1196 13.9494Z" fill="#FFC200"/>
<path d="M15.9697 15.0555C15.9697 15.0555 16.8226 15.8934 17.7286 16.2947C18.6345 16.696 19.6652 16.7328 19.6652 16.7328C19.6652 16.7328 18.627 16.9755 17.6561 16.4893C16.6852 16.0024 15.9697 15.0555 15.9697 15.0555Z" fill="#FFB600"/>
</g>
<mask id="mask1_6_1242" style="mask-type:alpha" maskUnits="userSpaceOnUse" x="0" y="8" width="9" height="9">
<path d="M0.905981 8.44946C0.430969 8.94392 0.833535 9.70966 1.09121 10.0779C2.58047 12.2083 7.22603 16.947 7.22603 16.947C7.22603 16.947 7.29848 16.064 7.56437 15.408C7.83026 14.752 8.16784 14.2335 8.16784 14.2335C8.16784 14.2335 2.58869 8.7493 2.27426 8.46599C1.96057 8.18194 1.38099 7.955 0.905981 8.44946Z" fill="url(#paint2_linear_6_1242)"/>
</mask>
<g mask="url(#mask1_6_1242)">
<path d="M0.905981 8.44946C0.430969 8.94392 0.833535 9.70966 1.09121 10.0779C2.58047 12.2083 7.22603 16.947 7.22603 16.947C7.22603 16.947 7.29848 16.064 7.56437 15.408C7.83026 14.752 8.16784 14.2335 8.16784 14.2335C8.16784 14.2335 2.58869 8.7493 2.27426 8.46599C1.96057 8.18194 1.38099 7.955 0.905981 8.44946Z" fill="url(#paint3_linear_6_1242)"/>
</g>
<mask id="mask2_6_1242" style="mask-type:alpha" maskUnits="userSpaceOnUse" x="1" y="4" width="9" height="10">
<path d="M1.27417 4.90329C1.78727 4.36223 2.70518 4.90629 2.98899 5.14676C3.44832 5.53527 8.04907 9.93433 8.46582 10.3168C8.88258 10.6993 9.80049 11.4771 9.85501 11.7018C9.90953 11.9265 9.14249 12.8199 8.87063 12.9838C8.59877 13.1476 8.15214 12.8808 7.69953 12.4247C7.20435 11.9265 6.94444 11.58 6.35889 11.0149C5.80994 10.4859 3.75603 8.78534 3.38185 8.44493C3.00766 8.10451 2.84484 7.85578 2.43406 7.49132C2.08154 7.17796 1.65507 6.91946 1.37724 6.50089C1.136 6.13644 0.820067 5.38272 1.27417 4.90329Z" fill="url(#paint4_linear_6_1242)"/>
</mask>
<g mask="url(#mask2_6_1242)">
<path d="M1.27417 4.90329C1.78727 4.36223 2.70518 4.90629 2.98899 5.14676C3.44832 5.53527 8.04907 9.93433 8.46582 10.3168C8.88258 10.6993 9.80049 11.4771 9.85501 11.7018C9.90953 11.9265 9.14249 12.8199 8.87063 12.9838C8.59877 13.1476 8.15214 12.8808 7.69953 12.4247C7.20435 11.9265 6.94444 11.58 6.35889 11.0149C5.80994 10.4859 3.75603 8.78534 3.38185 8.44493C3.00766 8.10451 2.84484 7.85578 2.43406 7.49132C2.08154 7.17796 1.65507 6.91946 1.37724 6.50089C1.136 6.13644 0.820067 5.38272 1.27417 4.90329Z" fill="url(#paint5_linear_6_1242)"/>
</g>
<mask id="mask3_6_1242" style="mask-type:alpha" maskUnits="userSpaceOnUse" x="2" y="1" width="11" height="10">
<path d="M2.50653 1.99961C2.09126 2.46927 2.24064 2.99981 2.40943 3.33571C2.57897 3.67237 2.99349 4.03607 3.46028 4.514C3.92708 4.99193 5.1288 6.14843 5.71883 6.70151C6.42537 7.36355 7.17374 8.03836 8.17605 8.88901C9.09545 9.66903 9.78407 10.5655 10.3495 10.6933C10.9148 10.821 11.301 10.4212 11.5571 10.2131C11.8141 10.0057 12.1599 9.83135 12.1517 9.58411C12.1472 9.45336 11.3854 8.77855 10.5997 8.06541C9.89834 7.42892 9.18209 6.75636 8.89379 6.48884C8.28285 5.92224 6.55757 4.22319 5.81518 3.54837C5.19602 2.98628 4.27214 1.98383 3.69256 1.75313C3.33033 1.60885 2.88668 1.56827 2.50653 1.99961Z" fill="url(#paint6_linear_6_1242)"/>
</mask>
<g mask="url(#mask3_6_1242)">
<path d="M2.50653 1.99961C2.09126 2.46927 2.24064 2.99981 2.40943 3.33571C2.57897 3.67237 2.99349 4.03607 3.46028 4.514C3.92708 4.99193 5.1288 6.14843 5.71883 6.70151C6.42537 7.36355 7.17374 8.03836 8.17605 8.88901C9.09545 9.66903 9.78407 10.5655 10.3495 10.6933C10.9148 10.821 11.301 10.4212 11.5571 10.2131C11.8141 10.0057 12.1599 9.83135 12.1517 9.58411C12.1472 9.45336 11.3854 8.77855 10.5997 8.06541C9.89834 7.42892 9.18209 6.75636 8.89379 6.48884C8.28285 5.92224 6.55757 4.22319 5.81518 3.54837C5.19602 2.98628 4.27214 1.98383 3.69256 1.75313C3.33033 1.60885 2.88668 1.56827 2.50653 1.99961Z" fill="url(#paint7_linear_6_1242)"/>
</g>
<mask id="mask4_6_1242" style="mask-type:alpha" maskUnits="userSpaceOnUse" x="5" y="0" width="10" height="9">
<path d="M5.59185 0.851377C6.31632 0.105927 7.24618 0.928026 7.62858 1.23237C7.76078 1.33682 8.32392 1.84857 8.93113 2.40089C10.1933 3.54913 11.0201 4.38175 11.6303 4.95887C12.2405 5.53599 13.9307 6.89689 14.2631 7.26736C14.5954 7.63783 14.5977 8.00755 14.3355 8.33669C13.8463 8.95064 13.3818 8.96867 13.0979 8.97468C12.8141 8.98069 12.5565 8.97694 12.0732 8.65306C11.7961 8.46745 10.8715 7.57245 10.109 6.79018C9.63394 6.30248 9.11113 5.7727 8.80491 5.48189C8.38815 5.08662 7.74659 4.53204 7.02585 3.88202C6.37084 3.29137 5.85027 2.79541 5.73002 2.65864C5.47534 2.37008 4.82705 1.63741 5.59185 0.851377Z" fill="url(#paint8_linear_6_1242)"/>
</mask>
<g mask="url(#mask4_6_1242)">
<path d="M5.59185 0.851377C6.31632 0.105927 7.24618 0.928026 7.62858 1.23237C7.76078 1.33682 8.32392 1.84857 8.93113 2.40089C10.1933 3.54913 11.0201 4.38175 11.6303 4.95887C12.2405 5.53599 13.9307 6.89689 14.2631 7.26736C14.5954 7.63783 14.5977 8.00755 14.3355 8.33669C13.8463 8.95064 13.3818 8.96867 13.0979 8.97468C12.8141 8.98069 12.5565 8.97694 12.0732 8.65306C11.7961 8.46745 10.8715 7.57245 10.109 6.79018C9.63394 6.30248 9.11113 5.7727 8.80491 5.48189C8.38815 5.08662 7.74659 4.53204 7.02585 3.88202C6.37084 3.29137 5.85027 2.79541 5.73002 2.65864C5.47534 2.37008 4.82705 1.63741 5.59185 0.851377Z" fill="url(#paint9_linear_6_1242)"/>
</g>
<mask id="mask5_6_1242" style="mask-type:alpha" maskUnits="userSpaceOnUse" x="9" y="17" width="10" height="6">
<path d="M13.8725 17.8901C17.6808 18.4815 19.0326 20.3767 18.9684 20.6359C18.9042 20.8952 17.8249 21.8871 16.8107 22.066C16.6157 22.1005 16.2296 22.1298 15.7845 22.0419C15.1085 21.9081 14.1779 21.6977 13.387 21.5377C12.9441 21.4475 12.2801 21.2687 11.6901 20.9606C10.4346 20.3045 8.90052 19.1864 9.06184 18.6476C9.13803 18.3913 11.0881 17.458 13.8725 17.8901Z" fill="url(#paint10_linear_6_1242)"/>
</mask>
<g mask="url(#mask5_6_1242)">
<path d="M13.8725 17.8901C17.6808 18.4815 19.0326 20.3767 18.9684 20.6359C18.9042 20.8952 17.8249 21.8871 16.8107 22.066C16.6157 22.1005 16.2296 22.1298 15.7845 22.0419C15.1085 21.9081 14.1779 21.6977 13.387 21.5377C12.9441 21.4475 12.2801 21.2687 11.6901 20.9606C10.4346 20.3045 8.90052 19.1864 9.06184 18.6476C9.13803 18.3913 11.0881 17.458 13.8725 17.8901Z" fill="url(#paint11_linear_6_1242)"/>
</g>
<path d="M20.0147 2.92699C20.4748 3.38914 20.8669 3.87384 21.185 4.33974C21.504 4.80565 21.7482 5.25202 21.9267 5.63902C22.1044 6.02602 22.2165 6.35216 22.274 6.58361C22.3315 6.81581 22.336 6.95408 22.2904 6.97287C22.2441 6.9924 22.1537 6.89171 22.0201 6.70009C21.8864 6.50846 21.7101 6.22742 21.4845 5.88775C21.259 5.54884 20.9834 5.15282 20.654 4.73276C20.3246 4.31344 19.9415 3.87083 19.5091 3.43573C19.0766 3.00064 18.6367 2.61514 18.2192 2.28449C17.8025 1.9531 17.4081 1.67656 17.0705 1.44962C16.7337 1.22268 16.4536 1.04533 16.2632 0.911571C16.0727 0.777811 15.9726 0.686132 15.9913 0.639542C16.01 0.594454 16.1474 0.598211 16.3782 0.656074C16.6082 0.713936 16.9331 0.826656 17.3177 1.0055C17.7016 1.18435 18.146 1.43008 18.6091 1.7502C19.0721 2.07033 19.5546 2.46484 20.0147 2.92699Z" fill="white"/>
<path d="M2.986 20.0731C2.52593 19.6109 2.13382 19.1263 1.81565 18.6604C1.49674 18.1944 1.25251 17.7473 1.07475 17.3611C0.896995 16.9748 0.784964 16.6479 0.726708 16.4165C0.669199 16.1843 0.664717 16.046 0.710277 16.0272C0.756583 16.0077 0.847702 16.1091 0.980645 16.3C1.11434 16.4909 1.2906 16.7727 1.51615 17.1116C1.74171 17.4505 2.01731 17.8465 2.34668 18.2666C2.67605 18.6859 3.0592 19.1285 3.49164 19.5636C3.92408 19.9987 4.36399 20.3842 4.78149 20.7148C5.19899 21.0462 5.5926 21.3228 5.93018 21.5497C6.26702 21.7767 6.54785 21.954 6.73755 22.0885C6.92801 22.2223 7.02809 22.314 7.00942 22.3598C6.99074 22.4049 6.85407 22.4011 6.62254 22.3433C6.3925 22.2854 6.06761 22.1727 5.68297 21.9938C5.29833 21.8157 4.85468 21.5693 4.39087 21.2491C3.92781 20.9298 3.44533 20.5352 2.986 20.0731Z" fill="white"/>
<path d="M21.3344 1.70135C21.9461 2.32206 22.4062 2.96982 22.6803 3.4703C22.9559 3.97152 23.0545 4.31794 22.9716 4.36904C22.8857 4.4224 22.6362 4.17366 22.2688 3.76637C21.9006 3.35833 21.4054 2.79623 20.8258 2.20859C20.247 1.61944 19.6928 1.11597 19.2917 0.741737C18.8907 0.367509 18.6464 0.114267 18.6995 0.0286C18.751 -0.0540608 19.0946 0.0488895 19.5905 0.330688C20.0834 0.610232 20.7235 1.07914 21.3344 1.70135Z" fill="white"/>
<path d="M1.66551 21.2987C1.05308 20.678 0.593749 20.0303 0.319646 19.5298C0.0447964 19.0286 -0.0545379 18.6814 0.0283652 18.631C0.114256 18.5784 0.363712 18.8264 0.731174 19.2337C1.09938 19.641 1.59456 20.2038 2.17413 20.7915C2.75296 21.3806 3.30714 21.8841 3.70896 22.2583C4.11003 22.6326 4.35426 22.8858 4.30123 22.9715C4.2497 23.0541 3.90614 22.9512 3.41096 22.6701C2.91653 22.3899 2.27646 21.9209 1.66551 21.2987Z" fill="white"/>
</g>
<defs>
<linearGradient id="paint0_linear_6_1242" x1="18.1296" y1="16.8044" x2="16.7532" y2="3.58104" gradientUnits="userSpaceOnUse">
<stop/>
<stop offset="1" stop-color="white"/>
</linearGradient>
<linearGradient id="paint1_linear_6_1242" x1="16.8284" y1="-0.167584" x2="17.8069" y2="13.1368" gradientUnits="userSpaceOnUse">
<stop stop-color="#FCE953"/>
<stop offset="1" stop-color="#FCE63A"/>
</linearGradient>
<linearGradient id="paint2_linear_6_1242" x1="7.43666" y1="15.3277" x2="0.821423" y2="8.75285" gradientUnits="userSpaceOnUse">
<stop/>
<stop offset="1" stop-color="white"/>
</linearGradient>
<linearGradient id="paint3_linear_6_1242" x1="0.840059" y1="8.16169" x2="7.18572" y2="15.0002" gradientUnits="userSpaceOnUse">
<stop stop-color="#FCE953"/>
<stop offset="1" stop-color="#FCE63A"/>
</linearGradient>
<linearGradient id="paint4_linear_6_1242" x1="8.45035" y1="11.8032" x2="1.30787" y2="5.03843" gradientUnits="userSpaceOnUse">
<stop/>
<stop offset="1" stop-color="white"/>
</linearGradient>
<linearGradient id="paint5_linear_6_1242" x1="1.36535" y1="4.45157" x2="8.05947" y2="11.6656" gradientUnits="userSpaceOnUse">
<stop stop-color="#FCE953"/>
<stop offset="1" stop-color="#FCE63A"/>
</linearGradient>
<linearGradient id="paint6_linear_6_1242" x1="11.4555" y1="10.3197" x2="2.43714" y2="2.16091" gradientUnits="userSpaceOnUse">
<stop/>
<stop offset="1" stop-color="white"/>
</linearGradient>
<linearGradient id="paint7_linear_6_1242" x1="6.06152" y1="7.13342" x2="7.9314" y2="5.27496" gradientUnits="userSpaceOnUse">
<stop stop-color="#FCE953"/>
<stop offset="1" stop-color="#FCE63A"/>
</linearGradient>
<linearGradient id="paint8_linear_6_1242" x1="13.9946" y1="8.73768" x2="5.44513" y2="0.916304" gradientUnits="userSpaceOnUse">
<stop/>
<stop offset="1" stop-color="white"/>
</linearGradient>
<linearGradient id="paint9_linear_6_1242" x1="8.81118" y1="5.76294" x2="10.8031" y2="3.78318" gradientUnits="userSpaceOnUse">
<stop stop-color="#FCE953"/>
<stop offset="1" stop-color="#FCE63A"/>
</linearGradient>
<linearGradient id="paint10_linear_6_1242" x1="13.8849" y1="21.8579" x2="14.4262" y2="12.5321" gradientUnits="userSpaceOnUse">
<stop/>
<stop offset="1" stop-color="white"/>
</linearGradient>
<linearGradient id="paint11_linear_6_1242" x1="12.9755" y1="18.036" x2="15.9006" y2="22.6823" gradientUnits="userSpaceOnUse">
<stop stop-color="#FCE953"/>
<stop offset="1" stop-color="#FCE63A"/>
</linearGradient>
<clipPath id="clip0_6_1242">
<rect width="23" height="23" fill="white"/>
</clipPath>
</defs>
</svg>
